M48
; DRILL file {KiCad 6.0.0-rc1-unknown-59b0f55~66~ubuntu18.04.1} date So 02 Dez 2018 19:47:11 CET
; FORMAT={-:-/ absolute / inch / decimal}
; #@! TF.CreationDate,2018-12-02T19:47:11+01:00
; #@! TF.GenerationSoftware,Kicad,Pcbnew,6.0.0-rc1-unknown-59b0f55~66~ubuntu18.04.1
; #@! TF.FileFunction,Plated,1,2,PTH
FMAT,2
INCH
T1C0.0157
T2C0.0315
T3C0.0394
%
G90
G05
T1
X4.13Y-2.35
X4.18Y-5.5506
X4.23Y-2.35
X4.3504Y-2.3392
X4.3645Y-5.4292
X4.4685Y-2.3307
X4.57Y-2.3
X4.588Y-5.4325
X4.626Y-4.9961
X4.6275Y-5.0379
X4.7402Y-4.9921
X4.7895Y-5.3206
X4.8583Y-4.2559
X5.0074Y-5.4292
X5.0433Y-4.9921
X5.19Y-4.74
X5.2106Y-5.4292
X5.275Y-4.7677
X5.2992Y-2.95
X5.3806Y-5.3206
X5.4906Y-3.64
X5.5206Y-4.0637
X5.5866Y-2.2362
X5.5906Y-3.3268
X5.6Y-2.3
X5.6006Y-3.69
X5.6006Y-3.82
X5.6457Y-2.2795
X5.6489Y-5.4302
X5.66Y-2.99
X5.6873Y-3.4346
X5.6929Y-3.5748
X5.7047Y-3.5315
X5.7205Y-3.378
X5.7283Y-3.9488
X5.7283Y-4.0
X5.7441Y-4.9921
X5.8Y-2.3
X5.811Y-3.9409
X5.8159Y-3.5197
X5.8346Y-4.8031
X5.85Y-5.4292
X5.8543Y-4.311
X5.874Y-4.8317
X5.878Y-4.2559
X5.9252Y-4.0
X6.0Y-2.1
X6.0154Y-2.3036
X6.027Y-2.3784
X6.0276Y-4.6535
X6.03Y-5.3206
X6.05Y-2.98
X6.0839Y-4.3189
X6.1063Y-2.3392
X6.1457Y-3.5748
X6.1457Y-3.9961
X6.2529Y-5.4317
X6.2913Y-4.6457
X6.3031Y-3.4291
X6.3268Y-5.3189
X6.3493Y-5.4006
X6.3775Y-4.9977
X6.4228Y-5.0095
X6.4488Y-2.3976
X6.4644Y-5.4292
X6.575Y-2.675
X6.61Y-4.71
X6.6494Y-5.3206
X6.7165Y-4.7677
X6.7534Y-4.7815
X6.7723Y-4.8161
X6.9187Y-5.4292
X7.1187Y-5.4106
X7.2987Y-5.3306
T2
X6.125Y-5.0
X6.225Y-5.0
X6.325Y-5.0
T3
X7.7Y-2.25
X7.7Y-2.35
X7.7Y-2.45
X4.1Y-4.4197
X4.1Y-4.5197
X5.95Y-5.75
X6.05Y-5.75
X6.15Y-5.75
X7.2Y-2.1
X7.3Y-2.1
X7.4Y-2.1
X7.5Y-2.1
X7.6Y-2.1
X7.7Y-2.1
X4.35Y-4.0697
X4.45Y-4.0697
X4.55Y-4.0697
X4.1Y-3.1803
X4.1Y-3.2803
X4.1Y-4.2197
X4.1Y-4.3197
X4.35Y-3.6303
X4.45Y-3.6303
X4.55Y-3.6303
X4.35Y-3.4303
X4.45Y-3.4303
X4.55Y-3.4303
X6.9287Y-5.75
X7.0287Y-5.75
X7.1287Y-5.75
X4.1Y-3.5803
X4.1Y-3.6803
X4.1Y-3.3803
X4.1Y-3.4803
X4.35Y-4.4697
X4.45Y-4.4697
X4.55Y-4.4697
X4.35Y-4.6697
X4.45Y-4.6697
X4.55Y-4.6697
X4.1Y-4.6197
X4.1Y-4.7197
X4.1Y-2.9803
X4.1Y-3.0803
X4.626Y-5.2166
X4.726Y-5.2166
X4.826Y-5.2166
X4.926Y-5.2166
X5.026Y-5.2166
X5.126Y-5.2166
X5.226Y-5.2166
X5.326Y-5.2166
X5.426Y-5.2166
X5.526Y-5.2166
X5.626Y-5.2166
X5.726Y-5.2166
X5.826Y-5.2166
X5.926Y-5.2166
X6.026Y-5.2166
X6.126Y-5.2166
X6.226Y-5.2166
X6.326Y-5.2166
X6.426Y-5.2166
X4.35Y-4.8697
X4.45Y-4.8697
X4.55Y-4.8697
X4.1Y-4.0197
X4.1Y-4.1197
X6.2894Y-5.75
X6.3894Y-5.75
X6.4894Y-5.75
X5.65Y-5.75
X5.75Y-5.75
X5.85Y-5.75
X4.05Y-5.65
X4.05Y-5.75
X4.3713Y-5.75
X4.4713Y-5.75
X4.5713Y-5.75
X4.025Y-2.05
X4.025Y-2.15
X4.125Y-2.05
X4.125Y-2.15
X4.225Y-2.05
X4.225Y-2.15
X4.325Y-2.05
X4.325Y-2.15
X4.425Y-2.05
X4.425Y-2.15
X7.55Y-2.25
X7.55Y-2.35
X7.55Y-2.45
X4.1Y-3.7803
X4.1Y-3.8803
X7.2287Y-5.75
X7.3287Y-5.75
X7.4287Y-5.75
X5.3106Y-5.75
X5.4106Y-5.75
X5.5106Y-5.75
X4.35Y-3.0303
X4.45Y-3.0303
X4.55Y-3.0303
X6.5894Y-5.75
X6.6894Y-5.75
X6.7894Y-5.75
X4.35Y-3.2303
X4.45Y-3.2303
X4.55Y-3.2303
X4.35Y-3.8303
X4.45Y-3.8303
X4.55Y-3.8303
X4.1Y-4.8197
X4.1Y-4.9197
X4.626Y-2.0441
X4.626Y-2.1425
X4.626Y-2.4575
X4.626Y-2.5559
X5.374Y-2.0441
X5.374Y-2.1425
X5.374Y-2.4575
X5.374Y-2.5559
X4.6713Y-5.75
X4.7713Y-5.75
X4.8713Y-5.75
X4.35Y-4.2697
X4.45Y-4.2697
X4.55Y-4.2697
X5.0106Y-5.75
X5.1106Y-5.75
X5.2106Y-5.75
T0
M30
