G04 #@! TF.GenerationSoftware,KiCad,Pcbnew,6.0.0-rc1-unknown-59b0f55~66~ubuntu18.04.1*
G04 #@! TF.CreationDate,2018-12-02T19:46:27+01:00
G04 #@! TF.ProjectId,FloorHeatingCentral,466c6f6f-7248-4656-9174-696e6743656e,rev?*
G04 #@! TF.SameCoordinates,Original*
G04 #@! TF.FileFunction,Soldermask,Bot*
G04 #@! TF.FilePolarity,Negative*
%FSLAX46Y46*%
G04 Gerber Fmt 4.6, Leading zero omitted, Abs format (unit mm)*
G04 Created by KiCad (PCBNEW 6.0.0-rc1-unknown-59b0f55~66~ubuntu18.04.1) date So 02 Dez 2018 19:46:27 CET*
%MOMM*%
%LPD*%
G01*
G04 APERTURE LIST*
%ADD10C,0.100000*%
G04 APERTURE END LIST*
D10*
G36*
X188952812Y-145183624D02*
X189116784Y-145251544D01*
X189264354Y-145350147D01*
X189389853Y-145475646D01*
X189488456Y-145623216D01*
X189556376Y-145787188D01*
X189591000Y-145961259D01*
X189591000Y-146138741D01*
X189556376Y-146312812D01*
X189488456Y-146476784D01*
X189389853Y-146624354D01*
X189264354Y-146749853D01*
X189116784Y-146848456D01*
X188952812Y-146916376D01*
X188778741Y-146951000D01*
X188601259Y-146951000D01*
X188427188Y-146916376D01*
X188263216Y-146848456D01*
X188115646Y-146749853D01*
X187990147Y-146624354D01*
X187891544Y-146476784D01*
X187823624Y-146312812D01*
X187789000Y-146138741D01*
X187789000Y-145961259D01*
X187823624Y-145787188D01*
X187891544Y-145623216D01*
X187990147Y-145475646D01*
X188115646Y-145350147D01*
X188263216Y-145251544D01*
X188427188Y-145183624D01*
X188601259Y-145149000D01*
X188778741Y-145149000D01*
X188952812Y-145183624D01*
X188952812Y-145183624D01*
G37*
G36*
X140232812Y-145183624D02*
X140396784Y-145251544D01*
X140544354Y-145350147D01*
X140669853Y-145475646D01*
X140768456Y-145623216D01*
X140836376Y-145787188D01*
X140871000Y-145961259D01*
X140871000Y-146138741D01*
X140836376Y-146312812D01*
X140768456Y-146476784D01*
X140669853Y-146624354D01*
X140544354Y-146749853D01*
X140396784Y-146848456D01*
X140232812Y-146916376D01*
X140058741Y-146951000D01*
X139881259Y-146951000D01*
X139707188Y-146916376D01*
X139543216Y-146848456D01*
X139395646Y-146749853D01*
X139270147Y-146624354D01*
X139171544Y-146476784D01*
X139103624Y-146312812D01*
X139069000Y-146138741D01*
X139069000Y-145961259D01*
X139103624Y-145787188D01*
X139171544Y-145623216D01*
X139270147Y-145475646D01*
X139395646Y-145350147D01*
X139543216Y-145251544D01*
X139707188Y-145183624D01*
X139881259Y-145149000D01*
X140058741Y-145149000D01*
X140232812Y-145183624D01*
X140232812Y-145183624D01*
G37*
G36*
X181332812Y-145183624D02*
X181496784Y-145251544D01*
X181644354Y-145350147D01*
X181769853Y-145475646D01*
X181868456Y-145623216D01*
X181936376Y-145787188D01*
X181971000Y-145961259D01*
X181971000Y-146138741D01*
X181936376Y-146312812D01*
X181868456Y-146476784D01*
X181769853Y-146624354D01*
X181644354Y-146749853D01*
X181496784Y-146848456D01*
X181332812Y-146916376D01*
X181158741Y-146951000D01*
X180981259Y-146951000D01*
X180807188Y-146916376D01*
X180643216Y-146848456D01*
X180495646Y-146749853D01*
X180370147Y-146624354D01*
X180271544Y-146476784D01*
X180203624Y-146312812D01*
X180169000Y-146138741D01*
X180169000Y-145961259D01*
X180203624Y-145787188D01*
X180271544Y-145623216D01*
X180370147Y-145475646D01*
X180495646Y-145350147D01*
X180643216Y-145251544D01*
X180807188Y-145183624D01*
X180981259Y-145149000D01*
X181158741Y-145149000D01*
X181332812Y-145183624D01*
X181332812Y-145183624D01*
G37*
G36*
X178792812Y-145183624D02*
X178956784Y-145251544D01*
X179104354Y-145350147D01*
X179229853Y-145475646D01*
X179328456Y-145623216D01*
X179396376Y-145787188D01*
X179431000Y-145961259D01*
X179431000Y-146138741D01*
X179396376Y-146312812D01*
X179328456Y-146476784D01*
X179229853Y-146624354D01*
X179104354Y-146749853D01*
X178956784Y-146848456D01*
X178792812Y-146916376D01*
X178618741Y-146951000D01*
X178441259Y-146951000D01*
X178267188Y-146916376D01*
X178103216Y-146848456D01*
X177955646Y-146749853D01*
X177830147Y-146624354D01*
X177731544Y-146476784D01*
X177663624Y-146312812D01*
X177629000Y-146138741D01*
X177629000Y-145961259D01*
X177663624Y-145787188D01*
X177731544Y-145623216D01*
X177830147Y-145475646D01*
X177955646Y-145350147D01*
X178103216Y-145251544D01*
X178267188Y-145183624D01*
X178441259Y-145149000D01*
X178618741Y-145149000D01*
X178792812Y-145183624D01*
X178792812Y-145183624D01*
G37*
G36*
X176891000Y-146951000D02*
X175089000Y-146951000D01*
X175089000Y-145149000D01*
X176891000Y-145149000D01*
X176891000Y-146951000D01*
X176891000Y-146951000D01*
G37*
G36*
X172712812Y-145183624D02*
X172876784Y-145251544D01*
X173024354Y-145350147D01*
X173149853Y-145475646D01*
X173248456Y-145623216D01*
X173316376Y-145787188D01*
X173351000Y-145961259D01*
X173351000Y-146138741D01*
X173316376Y-146312812D01*
X173248456Y-146476784D01*
X173149853Y-146624354D01*
X173024354Y-146749853D01*
X172876784Y-146848456D01*
X172712812Y-146916376D01*
X172538741Y-146951000D01*
X172361259Y-146951000D01*
X172187188Y-146916376D01*
X172023216Y-146848456D01*
X171875646Y-146749853D01*
X171750147Y-146624354D01*
X171651544Y-146476784D01*
X171583624Y-146312812D01*
X171549000Y-146138741D01*
X171549000Y-145961259D01*
X171583624Y-145787188D01*
X171651544Y-145623216D01*
X171750147Y-145475646D01*
X171875646Y-145350147D01*
X172023216Y-145251544D01*
X172187188Y-145183624D01*
X172361259Y-145149000D01*
X172538741Y-145149000D01*
X172712812Y-145183624D01*
X172712812Y-145183624D01*
G37*
G36*
X170172812Y-145183624D02*
X170336784Y-145251544D01*
X170484354Y-145350147D01*
X170609853Y-145475646D01*
X170708456Y-145623216D01*
X170776376Y-145787188D01*
X170811000Y-145961259D01*
X170811000Y-146138741D01*
X170776376Y-146312812D01*
X170708456Y-146476784D01*
X170609853Y-146624354D01*
X170484354Y-146749853D01*
X170336784Y-146848456D01*
X170172812Y-146916376D01*
X169998741Y-146951000D01*
X169821259Y-146951000D01*
X169647188Y-146916376D01*
X169483216Y-146848456D01*
X169335646Y-146749853D01*
X169210147Y-146624354D01*
X169111544Y-146476784D01*
X169043624Y-146312812D01*
X169009000Y-146138741D01*
X169009000Y-145961259D01*
X169043624Y-145787188D01*
X169111544Y-145623216D01*
X169210147Y-145475646D01*
X169335646Y-145350147D01*
X169483216Y-145251544D01*
X169647188Y-145183624D01*
X169821259Y-145149000D01*
X169998741Y-145149000D01*
X170172812Y-145183624D01*
X170172812Y-145183624D01*
G37*
G36*
X168271000Y-146951000D02*
X166469000Y-146951000D01*
X166469000Y-145149000D01*
X168271000Y-145149000D01*
X168271000Y-146951000D01*
X168271000Y-146951000D01*
G37*
G36*
X165092812Y-145183624D02*
X165256784Y-145251544D01*
X165404354Y-145350147D01*
X165529853Y-145475646D01*
X165628456Y-145623216D01*
X165696376Y-145787188D01*
X165731000Y-145961259D01*
X165731000Y-146138741D01*
X165696376Y-146312812D01*
X165628456Y-146476784D01*
X165529853Y-146624354D01*
X165404354Y-146749853D01*
X165256784Y-146848456D01*
X165092812Y-146916376D01*
X164918741Y-146951000D01*
X164741259Y-146951000D01*
X164567188Y-146916376D01*
X164403216Y-146848456D01*
X164255646Y-146749853D01*
X164130147Y-146624354D01*
X164031544Y-146476784D01*
X163963624Y-146312812D01*
X163929000Y-146138741D01*
X163929000Y-145961259D01*
X163963624Y-145787188D01*
X164031544Y-145623216D01*
X164130147Y-145475646D01*
X164255646Y-145350147D01*
X164403216Y-145251544D01*
X164567188Y-145183624D01*
X164741259Y-145149000D01*
X164918741Y-145149000D01*
X165092812Y-145183624D01*
X165092812Y-145183624D01*
G37*
G36*
X162552812Y-145183624D02*
X162716784Y-145251544D01*
X162864354Y-145350147D01*
X162989853Y-145475646D01*
X163088456Y-145623216D01*
X163156376Y-145787188D01*
X163191000Y-145961259D01*
X163191000Y-146138741D01*
X163156376Y-146312812D01*
X163088456Y-146476784D01*
X162989853Y-146624354D01*
X162864354Y-146749853D01*
X162716784Y-146848456D01*
X162552812Y-146916376D01*
X162378741Y-146951000D01*
X162201259Y-146951000D01*
X162027188Y-146916376D01*
X161863216Y-146848456D01*
X161715646Y-146749853D01*
X161590147Y-146624354D01*
X161491544Y-146476784D01*
X161423624Y-146312812D01*
X161389000Y-146138741D01*
X161389000Y-145961259D01*
X161423624Y-145787188D01*
X161491544Y-145623216D01*
X161590147Y-145475646D01*
X161715646Y-145350147D01*
X161863216Y-145251544D01*
X162027188Y-145183624D01*
X162201259Y-145149000D01*
X162378741Y-145149000D01*
X162552812Y-145183624D01*
X162552812Y-145183624D01*
G37*
G36*
X160651000Y-146951000D02*
X158849000Y-146951000D01*
X158849000Y-145149000D01*
X160651000Y-145149000D01*
X160651000Y-146951000D01*
X160651000Y-146951000D01*
G37*
G36*
X156472812Y-145183624D02*
X156636784Y-145251544D01*
X156784354Y-145350147D01*
X156909853Y-145475646D01*
X157008456Y-145623216D01*
X157076376Y-145787188D01*
X157111000Y-145961259D01*
X157111000Y-146138741D01*
X157076376Y-146312812D01*
X157008456Y-146476784D01*
X156909853Y-146624354D01*
X156784354Y-146749853D01*
X156636784Y-146848456D01*
X156472812Y-146916376D01*
X156298741Y-146951000D01*
X156121259Y-146951000D01*
X155947188Y-146916376D01*
X155783216Y-146848456D01*
X155635646Y-146749853D01*
X155510147Y-146624354D01*
X155411544Y-146476784D01*
X155343624Y-146312812D01*
X155309000Y-146138741D01*
X155309000Y-145961259D01*
X155343624Y-145787188D01*
X155411544Y-145623216D01*
X155510147Y-145475646D01*
X155635646Y-145350147D01*
X155783216Y-145251544D01*
X155947188Y-145183624D01*
X156121259Y-145149000D01*
X156298741Y-145149000D01*
X156472812Y-145183624D01*
X156472812Y-145183624D01*
G37*
G36*
X153932812Y-145183624D02*
X154096784Y-145251544D01*
X154244354Y-145350147D01*
X154369853Y-145475646D01*
X154468456Y-145623216D01*
X154536376Y-145787188D01*
X154571000Y-145961259D01*
X154571000Y-146138741D01*
X154536376Y-146312812D01*
X154468456Y-146476784D01*
X154369853Y-146624354D01*
X154244354Y-146749853D01*
X154096784Y-146848456D01*
X153932812Y-146916376D01*
X153758741Y-146951000D01*
X153581259Y-146951000D01*
X153407188Y-146916376D01*
X153243216Y-146848456D01*
X153095646Y-146749853D01*
X152970147Y-146624354D01*
X152871544Y-146476784D01*
X152803624Y-146312812D01*
X152769000Y-146138741D01*
X152769000Y-145961259D01*
X152803624Y-145787188D01*
X152871544Y-145623216D01*
X152970147Y-145475646D01*
X153095646Y-145350147D01*
X153243216Y-145251544D01*
X153407188Y-145183624D01*
X153581259Y-145149000D01*
X153758741Y-145149000D01*
X153932812Y-145183624D01*
X153932812Y-145183624D01*
G37*
G36*
X152031000Y-146951000D02*
X150229000Y-146951000D01*
X150229000Y-145149000D01*
X152031000Y-145149000D01*
X152031000Y-146951000D01*
X152031000Y-146951000D01*
G37*
G36*
X148852812Y-145183624D02*
X149016784Y-145251544D01*
X149164354Y-145350147D01*
X149289853Y-145475646D01*
X149388456Y-145623216D01*
X149456376Y-145787188D01*
X149491000Y-145961259D01*
X149491000Y-146138741D01*
X149456376Y-146312812D01*
X149388456Y-146476784D01*
X149289853Y-146624354D01*
X149164354Y-146749853D01*
X149016784Y-146848456D01*
X148852812Y-146916376D01*
X148678741Y-146951000D01*
X148501259Y-146951000D01*
X148327188Y-146916376D01*
X148163216Y-146848456D01*
X148015646Y-146749853D01*
X147890147Y-146624354D01*
X147791544Y-146476784D01*
X147723624Y-146312812D01*
X147689000Y-146138741D01*
X147689000Y-145961259D01*
X147723624Y-145787188D01*
X147791544Y-145623216D01*
X147890147Y-145475646D01*
X148015646Y-145350147D01*
X148163216Y-145251544D01*
X148327188Y-145183624D01*
X148501259Y-145149000D01*
X148678741Y-145149000D01*
X148852812Y-145183624D01*
X148852812Y-145183624D01*
G37*
G36*
X146312812Y-145183624D02*
X146476784Y-145251544D01*
X146624354Y-145350147D01*
X146749853Y-145475646D01*
X146848456Y-145623216D01*
X146916376Y-145787188D01*
X146951000Y-145961259D01*
X146951000Y-146138741D01*
X146916376Y-146312812D01*
X146848456Y-146476784D01*
X146749853Y-146624354D01*
X146624354Y-146749853D01*
X146476784Y-146848456D01*
X146312812Y-146916376D01*
X146138741Y-146951000D01*
X145961259Y-146951000D01*
X145787188Y-146916376D01*
X145623216Y-146848456D01*
X145475646Y-146749853D01*
X145350147Y-146624354D01*
X145251544Y-146476784D01*
X145183624Y-146312812D01*
X145149000Y-146138741D01*
X145149000Y-145961259D01*
X145183624Y-145787188D01*
X145251544Y-145623216D01*
X145350147Y-145475646D01*
X145475646Y-145350147D01*
X145623216Y-145251544D01*
X145787188Y-145183624D01*
X145961259Y-145149000D01*
X146138741Y-145149000D01*
X146312812Y-145183624D01*
X146312812Y-145183624D01*
G37*
G36*
X184511000Y-146951000D02*
X182709000Y-146951000D01*
X182709000Y-145149000D01*
X184511000Y-145149000D01*
X184511000Y-146951000D01*
X184511000Y-146951000D01*
G37*
G36*
X144411000Y-146951000D02*
X142609000Y-146951000D01*
X142609000Y-145149000D01*
X144411000Y-145149000D01*
X144411000Y-146951000D01*
X144411000Y-146951000D01*
G37*
G36*
X186412812Y-145183624D02*
X186576784Y-145251544D01*
X186724354Y-145350147D01*
X186849853Y-145475646D01*
X186948456Y-145623216D01*
X187016376Y-145787188D01*
X187051000Y-145961259D01*
X187051000Y-146138741D01*
X187016376Y-146312812D01*
X186948456Y-146476784D01*
X186849853Y-146624354D01*
X186724354Y-146749853D01*
X186576784Y-146848456D01*
X186412812Y-146916376D01*
X186238741Y-146951000D01*
X186061259Y-146951000D01*
X185887188Y-146916376D01*
X185723216Y-146848456D01*
X185575646Y-146749853D01*
X185450147Y-146624354D01*
X185351544Y-146476784D01*
X185283624Y-146312812D01*
X185249000Y-146138741D01*
X185249000Y-145961259D01*
X185283624Y-145787188D01*
X185351544Y-145623216D01*
X185450147Y-145475646D01*
X185575646Y-145350147D01*
X185723216Y-145251544D01*
X185887188Y-145183624D01*
X186061259Y-145149000D01*
X186238741Y-145149000D01*
X186412812Y-145183624D01*
X186412812Y-145183624D01*
G37*
G36*
X102980443Y-145155519D02*
X103046627Y-145162037D01*
X103159853Y-145196384D01*
X103216467Y-145213557D01*
X103355087Y-145287652D01*
X103372991Y-145297222D01*
X103408729Y-145326552D01*
X103510186Y-145409814D01*
X103593448Y-145511271D01*
X103622778Y-145547009D01*
X103622779Y-145547011D01*
X103706443Y-145703533D01*
X103706443Y-145703534D01*
X103757963Y-145873373D01*
X103775359Y-146050000D01*
X103757963Y-146226627D01*
X103731819Y-146312812D01*
X103706443Y-146396467D01*
X103663513Y-146476782D01*
X103622778Y-146552991D01*
X103593448Y-146588729D01*
X103510186Y-146690186D01*
X103437480Y-146749853D01*
X103372991Y-146802778D01*
X103372989Y-146802779D01*
X103216467Y-146886443D01*
X103159853Y-146903616D01*
X103046627Y-146937963D01*
X102980442Y-146944482D01*
X102914260Y-146951000D01*
X102825740Y-146951000D01*
X102759558Y-146944482D01*
X102693373Y-146937963D01*
X102580147Y-146903616D01*
X102523533Y-146886443D01*
X102367011Y-146802779D01*
X102367009Y-146802778D01*
X102302520Y-146749853D01*
X102229814Y-146690186D01*
X102146552Y-146588729D01*
X102117222Y-146552991D01*
X102076487Y-146476782D01*
X102033557Y-146396467D01*
X102008181Y-146312812D01*
X101982037Y-146226627D01*
X101964641Y-146050000D01*
X101982037Y-145873373D01*
X102033557Y-145703534D01*
X102033557Y-145703533D01*
X102117221Y-145547011D01*
X102117222Y-145547009D01*
X102146552Y-145511271D01*
X102229814Y-145409814D01*
X102331271Y-145326552D01*
X102367009Y-145297222D01*
X102384913Y-145287652D01*
X102523533Y-145213557D01*
X102580147Y-145196384D01*
X102693373Y-145162037D01*
X102759557Y-145155519D01*
X102825740Y-145149000D01*
X102914260Y-145149000D01*
X102980443Y-145155519D01*
X102980443Y-145155519D01*
G37*
G36*
X116372812Y-145183624D02*
X116536784Y-145251544D01*
X116684354Y-145350147D01*
X116809853Y-145475646D01*
X116908456Y-145623216D01*
X116976376Y-145787188D01*
X117011000Y-145961259D01*
X117011000Y-146138741D01*
X116976376Y-146312812D01*
X116908456Y-146476784D01*
X116809853Y-146624354D01*
X116684354Y-146749853D01*
X116536784Y-146848456D01*
X116372812Y-146916376D01*
X116198741Y-146951000D01*
X116021259Y-146951000D01*
X115847188Y-146916376D01*
X115683216Y-146848456D01*
X115535646Y-146749853D01*
X115410147Y-146624354D01*
X115311544Y-146476784D01*
X115243624Y-146312812D01*
X115209000Y-146138741D01*
X115209000Y-145961259D01*
X115243624Y-145787188D01*
X115311544Y-145623216D01*
X115410147Y-145475646D01*
X115535646Y-145350147D01*
X115683216Y-145251544D01*
X115847188Y-145183624D01*
X116021259Y-145149000D01*
X116198741Y-145149000D01*
X116372812Y-145183624D01*
X116372812Y-145183624D01*
G37*
G36*
X113832812Y-145183624D02*
X113996784Y-145251544D01*
X114144354Y-145350147D01*
X114269853Y-145475646D01*
X114368456Y-145623216D01*
X114436376Y-145787188D01*
X114471000Y-145961259D01*
X114471000Y-146138741D01*
X114436376Y-146312812D01*
X114368456Y-146476784D01*
X114269853Y-146624354D01*
X114144354Y-146749853D01*
X113996784Y-146848456D01*
X113832812Y-146916376D01*
X113658741Y-146951000D01*
X113481259Y-146951000D01*
X113307188Y-146916376D01*
X113143216Y-146848456D01*
X112995646Y-146749853D01*
X112870147Y-146624354D01*
X112771544Y-146476784D01*
X112703624Y-146312812D01*
X112669000Y-146138741D01*
X112669000Y-145961259D01*
X112703624Y-145787188D01*
X112771544Y-145623216D01*
X112870147Y-145475646D01*
X112995646Y-145350147D01*
X113143216Y-145251544D01*
X113307188Y-145183624D01*
X113481259Y-145149000D01*
X113658741Y-145149000D01*
X113832812Y-145183624D01*
X113832812Y-145183624D01*
G37*
G36*
X111931000Y-146951000D02*
X110129000Y-146951000D01*
X110129000Y-145149000D01*
X111931000Y-145149000D01*
X111931000Y-146951000D01*
X111931000Y-146951000D01*
G37*
G36*
X123992812Y-145183624D02*
X124156784Y-145251544D01*
X124304354Y-145350147D01*
X124429853Y-145475646D01*
X124528456Y-145623216D01*
X124596376Y-145787188D01*
X124631000Y-145961259D01*
X124631000Y-146138741D01*
X124596376Y-146312812D01*
X124528456Y-146476784D01*
X124429853Y-146624354D01*
X124304354Y-146749853D01*
X124156784Y-146848456D01*
X123992812Y-146916376D01*
X123818741Y-146951000D01*
X123641259Y-146951000D01*
X123467188Y-146916376D01*
X123303216Y-146848456D01*
X123155646Y-146749853D01*
X123030147Y-146624354D01*
X122931544Y-146476784D01*
X122863624Y-146312812D01*
X122829000Y-146138741D01*
X122829000Y-145961259D01*
X122863624Y-145787188D01*
X122931544Y-145623216D01*
X123030147Y-145475646D01*
X123155646Y-145350147D01*
X123303216Y-145251544D01*
X123467188Y-145183624D01*
X123641259Y-145149000D01*
X123818741Y-145149000D01*
X123992812Y-145183624D01*
X123992812Y-145183624D01*
G37*
G36*
X119551000Y-146951000D02*
X117749000Y-146951000D01*
X117749000Y-145149000D01*
X119551000Y-145149000D01*
X119551000Y-146951000D01*
X119551000Y-146951000D01*
G37*
G36*
X137692812Y-145183624D02*
X137856784Y-145251544D01*
X138004354Y-145350147D01*
X138129853Y-145475646D01*
X138228456Y-145623216D01*
X138296376Y-145787188D01*
X138331000Y-145961259D01*
X138331000Y-146138741D01*
X138296376Y-146312812D01*
X138228456Y-146476784D01*
X138129853Y-146624354D01*
X138004354Y-146749853D01*
X137856784Y-146848456D01*
X137692812Y-146916376D01*
X137518741Y-146951000D01*
X137341259Y-146951000D01*
X137167188Y-146916376D01*
X137003216Y-146848456D01*
X136855646Y-146749853D01*
X136730147Y-146624354D01*
X136631544Y-146476784D01*
X136563624Y-146312812D01*
X136529000Y-146138741D01*
X136529000Y-145961259D01*
X136563624Y-145787188D01*
X136631544Y-145623216D01*
X136730147Y-145475646D01*
X136855646Y-145350147D01*
X137003216Y-145251544D01*
X137167188Y-145183624D01*
X137341259Y-145149000D01*
X137518741Y-145149000D01*
X137692812Y-145183624D01*
X137692812Y-145183624D01*
G37*
G36*
X135791000Y-146951000D02*
X133989000Y-146951000D01*
X133989000Y-145149000D01*
X135791000Y-145149000D01*
X135791000Y-146951000D01*
X135791000Y-146951000D01*
G37*
G36*
X132612812Y-145183624D02*
X132776784Y-145251544D01*
X132924354Y-145350147D01*
X133049853Y-145475646D01*
X133148456Y-145623216D01*
X133216376Y-145787188D01*
X133251000Y-145961259D01*
X133251000Y-146138741D01*
X133216376Y-146312812D01*
X133148456Y-146476784D01*
X133049853Y-146624354D01*
X132924354Y-146749853D01*
X132776784Y-146848456D01*
X132612812Y-146916376D01*
X132438741Y-146951000D01*
X132261259Y-146951000D01*
X132087188Y-146916376D01*
X131923216Y-146848456D01*
X131775646Y-146749853D01*
X131650147Y-146624354D01*
X131551544Y-146476784D01*
X131483624Y-146312812D01*
X131449000Y-146138741D01*
X131449000Y-145961259D01*
X131483624Y-145787188D01*
X131551544Y-145623216D01*
X131650147Y-145475646D01*
X131775646Y-145350147D01*
X131923216Y-145251544D01*
X132087188Y-145183624D01*
X132261259Y-145149000D01*
X132438741Y-145149000D01*
X132612812Y-145183624D01*
X132612812Y-145183624D01*
G37*
G36*
X130072812Y-145183624D02*
X130236784Y-145251544D01*
X130384354Y-145350147D01*
X130509853Y-145475646D01*
X130608456Y-145623216D01*
X130676376Y-145787188D01*
X130711000Y-145961259D01*
X130711000Y-146138741D01*
X130676376Y-146312812D01*
X130608456Y-146476784D01*
X130509853Y-146624354D01*
X130384354Y-146749853D01*
X130236784Y-146848456D01*
X130072812Y-146916376D01*
X129898741Y-146951000D01*
X129721259Y-146951000D01*
X129547188Y-146916376D01*
X129383216Y-146848456D01*
X129235646Y-146749853D01*
X129110147Y-146624354D01*
X129011544Y-146476784D01*
X128943624Y-146312812D01*
X128909000Y-146138741D01*
X128909000Y-145961259D01*
X128943624Y-145787188D01*
X129011544Y-145623216D01*
X129110147Y-145475646D01*
X129235646Y-145350147D01*
X129383216Y-145251544D01*
X129547188Y-145183624D01*
X129721259Y-145149000D01*
X129898741Y-145149000D01*
X130072812Y-145183624D01*
X130072812Y-145183624D01*
G37*
G36*
X128171000Y-146951000D02*
X126369000Y-146951000D01*
X126369000Y-145149000D01*
X128171000Y-145149000D01*
X128171000Y-146951000D01*
X128171000Y-146951000D01*
G37*
G36*
X121452812Y-145183624D02*
X121616784Y-145251544D01*
X121764354Y-145350147D01*
X121889853Y-145475646D01*
X121988456Y-145623216D01*
X122056376Y-145787188D01*
X122091000Y-145961259D01*
X122091000Y-146138741D01*
X122056376Y-146312812D01*
X121988456Y-146476784D01*
X121889853Y-146624354D01*
X121764354Y-146749853D01*
X121616784Y-146848456D01*
X121452812Y-146916376D01*
X121278741Y-146951000D01*
X121101259Y-146951000D01*
X120927188Y-146916376D01*
X120763216Y-146848456D01*
X120615646Y-146749853D01*
X120490147Y-146624354D01*
X120391544Y-146476784D01*
X120323624Y-146312812D01*
X120289000Y-146138741D01*
X120289000Y-145961259D01*
X120323624Y-145787188D01*
X120391544Y-145623216D01*
X120490147Y-145475646D01*
X120615646Y-145350147D01*
X120763216Y-145251544D01*
X120927188Y-145183624D01*
X121101259Y-145149000D01*
X121278741Y-145149000D01*
X121452812Y-145183624D01*
X121452812Y-145183624D01*
G37*
G36*
X103771000Y-144411000D02*
X101969000Y-144411000D01*
X101969000Y-142609000D01*
X103771000Y-142609000D01*
X103771000Y-144411000D01*
X103771000Y-144411000D01*
G37*
G36*
X106744096Y-130047033D02*
X106744098Y-130047034D01*
X106744099Y-130047034D01*
X107208352Y-130239333D01*
X107624284Y-130517250D01*
X107626171Y-130518511D01*
X107981489Y-130873829D01*
X107981491Y-130873832D01*
X108260667Y-131291648D01*
X108449700Y-131748016D01*
X108452967Y-131755904D01*
X108551000Y-132248747D01*
X108551000Y-132751253D01*
X108531903Y-132847261D01*
X108452966Y-133244099D01*
X108260667Y-133708352D01*
X107982750Y-134124284D01*
X107981489Y-134126171D01*
X107626171Y-134481489D01*
X107626168Y-134481491D01*
X107208352Y-134760667D01*
X106744099Y-134952966D01*
X106744098Y-134952966D01*
X106744096Y-134952967D01*
X106251253Y-135051000D01*
X105748747Y-135051000D01*
X105255904Y-134952967D01*
X105255902Y-134952966D01*
X105255901Y-134952966D01*
X104791648Y-134760667D01*
X104373832Y-134481491D01*
X104373829Y-134481489D01*
X104018511Y-134126171D01*
X104017250Y-134124284D01*
X103739333Y-133708352D01*
X103547034Y-133244099D01*
X103468098Y-132847261D01*
X103449000Y-132751253D01*
X103449000Y-132248747D01*
X103547033Y-131755904D01*
X103550300Y-131748016D01*
X103739333Y-131291648D01*
X104018509Y-130873832D01*
X104018511Y-130873829D01*
X104373829Y-130518511D01*
X104375716Y-130517250D01*
X104791648Y-130239333D01*
X105255901Y-130047034D01*
X105255902Y-130047034D01*
X105255904Y-130047033D01*
X105748747Y-129949000D01*
X106251253Y-129949000D01*
X106744096Y-130047033D01*
X106744096Y-130047033D01*
G37*
G36*
X194744096Y-130047033D02*
X194744098Y-130047034D01*
X194744099Y-130047034D01*
X195208352Y-130239333D01*
X195624284Y-130517250D01*
X195626171Y-130518511D01*
X195981489Y-130873829D01*
X195981491Y-130873832D01*
X196260667Y-131291648D01*
X196449700Y-131748016D01*
X196452967Y-131755904D01*
X196551000Y-132248747D01*
X196551000Y-132751253D01*
X196531903Y-132847261D01*
X196452966Y-133244099D01*
X196260667Y-133708352D01*
X195982750Y-134124284D01*
X195981489Y-134126171D01*
X195626171Y-134481489D01*
X195626168Y-134481491D01*
X195208352Y-134760667D01*
X194744099Y-134952966D01*
X194744098Y-134952966D01*
X194744096Y-134952967D01*
X194251253Y-135051000D01*
X193748747Y-135051000D01*
X193255904Y-134952967D01*
X193255902Y-134952966D01*
X193255901Y-134952966D01*
X192791648Y-134760667D01*
X192373832Y-134481491D01*
X192373829Y-134481489D01*
X192018511Y-134126171D01*
X192017250Y-134124284D01*
X191739333Y-133708352D01*
X191547034Y-133244099D01*
X191468098Y-132847261D01*
X191449000Y-132751253D01*
X191449000Y-132248747D01*
X191547033Y-131755904D01*
X191550300Y-131748016D01*
X191739333Y-131291648D01*
X192018509Y-130873832D01*
X192018511Y-130873829D01*
X192373829Y-130518511D01*
X192375716Y-130517250D01*
X192791648Y-130239333D01*
X193255901Y-130047034D01*
X193255902Y-130047034D01*
X193255904Y-130047033D01*
X193748747Y-129949000D01*
X194251253Y-129949000D01*
X194744096Y-130047033D01*
X194744096Y-130047033D01*
G37*
G36*
X143010443Y-131606313D02*
X143076627Y-131612831D01*
X143189853Y-131647178D01*
X143246467Y-131664351D01*
X143385087Y-131738446D01*
X143402991Y-131748016D01*
X143412602Y-131755904D01*
X143540186Y-131860608D01*
X143623448Y-131962065D01*
X143652778Y-131997803D01*
X143652779Y-131997805D01*
X143736443Y-132154327D01*
X143736443Y-132154328D01*
X143787963Y-132324167D01*
X143805359Y-132500794D01*
X143787963Y-132677421D01*
X143765566Y-132751253D01*
X143736443Y-132847261D01*
X143662348Y-132985881D01*
X143652778Y-133003785D01*
X143623448Y-133039523D01*
X143540186Y-133140980D01*
X143438729Y-133224242D01*
X143402991Y-133253572D01*
X143402989Y-133253573D01*
X143246467Y-133337237D01*
X143189853Y-133354410D01*
X143076627Y-133388757D01*
X143010442Y-133395276D01*
X142944260Y-133401794D01*
X142855740Y-133401794D01*
X142789558Y-133395276D01*
X142723373Y-133388757D01*
X142610147Y-133354410D01*
X142553533Y-133337237D01*
X142397011Y-133253573D01*
X142397009Y-133253572D01*
X142361271Y-133224242D01*
X142259814Y-133140980D01*
X142176552Y-133039523D01*
X142147222Y-133003785D01*
X142137652Y-132985881D01*
X142063557Y-132847261D01*
X142034434Y-132751253D01*
X142012037Y-132677421D01*
X141994641Y-132500794D01*
X142012037Y-132324167D01*
X142063557Y-132154328D01*
X142063557Y-132154327D01*
X142147221Y-131997805D01*
X142147222Y-131997803D01*
X142176552Y-131962065D01*
X142259814Y-131860608D01*
X142387398Y-131755904D01*
X142397009Y-131748016D01*
X142414913Y-131738446D01*
X142553533Y-131664351D01*
X142610147Y-131647178D01*
X142723373Y-131612831D01*
X142789557Y-131606313D01*
X142855740Y-131599794D01*
X142944260Y-131599794D01*
X143010443Y-131606313D01*
X143010443Y-131606313D01*
G37*
G36*
X164121000Y-133401794D02*
X162319000Y-133401794D01*
X162319000Y-131599794D01*
X164121000Y-131599794D01*
X164121000Y-133401794D01*
X164121000Y-133401794D01*
G37*
G36*
X160790443Y-131606313D02*
X160856627Y-131612831D01*
X160969853Y-131647178D01*
X161026467Y-131664351D01*
X161165087Y-131738446D01*
X161182991Y-131748016D01*
X161192602Y-131755904D01*
X161320186Y-131860608D01*
X161403448Y-131962065D01*
X161432778Y-131997803D01*
X161432779Y-131997805D01*
X161516443Y-132154327D01*
X161516443Y-132154328D01*
X161567963Y-132324167D01*
X161585359Y-132500794D01*
X161567963Y-132677421D01*
X161545566Y-132751253D01*
X161516443Y-132847261D01*
X161442348Y-132985881D01*
X161432778Y-133003785D01*
X161403448Y-133039523D01*
X161320186Y-133140980D01*
X161218729Y-133224242D01*
X161182991Y-133253572D01*
X161182989Y-133253573D01*
X161026467Y-133337237D01*
X160969853Y-133354410D01*
X160856627Y-133388757D01*
X160790442Y-133395276D01*
X160724260Y-133401794D01*
X160635740Y-133401794D01*
X160569558Y-133395276D01*
X160503373Y-133388757D01*
X160390147Y-133354410D01*
X160333533Y-133337237D01*
X160177011Y-133253573D01*
X160177009Y-133253572D01*
X160141271Y-133224242D01*
X160039814Y-133140980D01*
X159956552Y-133039523D01*
X159927222Y-133003785D01*
X159917652Y-132985881D01*
X159843557Y-132847261D01*
X159814434Y-132751253D01*
X159792037Y-132677421D01*
X159774641Y-132500794D01*
X159792037Y-132324167D01*
X159843557Y-132154328D01*
X159843557Y-132154327D01*
X159927221Y-131997805D01*
X159927222Y-131997803D01*
X159956552Y-131962065D01*
X160039814Y-131860608D01*
X160167398Y-131755904D01*
X160177009Y-131748016D01*
X160194913Y-131738446D01*
X160333533Y-131664351D01*
X160390147Y-131647178D01*
X160503373Y-131612831D01*
X160569557Y-131606313D01*
X160635740Y-131599794D01*
X160724260Y-131599794D01*
X160790443Y-131606313D01*
X160790443Y-131606313D01*
G37*
G36*
X158250443Y-131606313D02*
X158316627Y-131612831D01*
X158429853Y-131647178D01*
X158486467Y-131664351D01*
X158625087Y-131738446D01*
X158642991Y-131748016D01*
X158652602Y-131755904D01*
X158780186Y-131860608D01*
X158863448Y-131962065D01*
X158892778Y-131997803D01*
X158892779Y-131997805D01*
X158976443Y-132154327D01*
X158976443Y-132154328D01*
X159027963Y-132324167D01*
X159045359Y-132500794D01*
X159027963Y-132677421D01*
X159005566Y-132751253D01*
X158976443Y-132847261D01*
X158902348Y-132985881D01*
X158892778Y-133003785D01*
X158863448Y-133039523D01*
X158780186Y-133140980D01*
X158678729Y-133224242D01*
X158642991Y-133253572D01*
X158642989Y-133253573D01*
X158486467Y-133337237D01*
X158429853Y-133354410D01*
X158316627Y-133388757D01*
X158250442Y-133395276D01*
X158184260Y-133401794D01*
X158095740Y-133401794D01*
X158029558Y-133395276D01*
X157963373Y-133388757D01*
X157850147Y-133354410D01*
X157793533Y-133337237D01*
X157637011Y-133253573D01*
X157637009Y-133253572D01*
X157601271Y-133224242D01*
X157499814Y-133140980D01*
X157416552Y-133039523D01*
X157387222Y-133003785D01*
X157377652Y-132985881D01*
X157303557Y-132847261D01*
X157274434Y-132751253D01*
X157252037Y-132677421D01*
X157234641Y-132500794D01*
X157252037Y-132324167D01*
X157303557Y-132154328D01*
X157303557Y-132154327D01*
X157387221Y-131997805D01*
X157387222Y-131997803D01*
X157416552Y-131962065D01*
X157499814Y-131860608D01*
X157627398Y-131755904D01*
X157637009Y-131748016D01*
X157654913Y-131738446D01*
X157793533Y-131664351D01*
X157850147Y-131647178D01*
X157963373Y-131612831D01*
X158029557Y-131606313D01*
X158095740Y-131599794D01*
X158184260Y-131599794D01*
X158250443Y-131606313D01*
X158250443Y-131606313D01*
G37*
G36*
X155710443Y-131606313D02*
X155776627Y-131612831D01*
X155889853Y-131647178D01*
X155946467Y-131664351D01*
X156085087Y-131738446D01*
X156102991Y-131748016D01*
X156112602Y-131755904D01*
X156240186Y-131860608D01*
X156323448Y-131962065D01*
X156352778Y-131997803D01*
X156352779Y-131997805D01*
X156436443Y-132154327D01*
X156436443Y-132154328D01*
X156487963Y-132324167D01*
X156505359Y-132500794D01*
X156487963Y-132677421D01*
X156465566Y-132751253D01*
X156436443Y-132847261D01*
X156362348Y-132985881D01*
X156352778Y-133003785D01*
X156323448Y-133039523D01*
X156240186Y-133140980D01*
X156138729Y-133224242D01*
X156102991Y-133253572D01*
X156102989Y-133253573D01*
X155946467Y-133337237D01*
X155889853Y-133354410D01*
X155776627Y-133388757D01*
X155710442Y-133395276D01*
X155644260Y-133401794D01*
X155555740Y-133401794D01*
X155489558Y-133395276D01*
X155423373Y-133388757D01*
X155310147Y-133354410D01*
X155253533Y-133337237D01*
X155097011Y-133253573D01*
X155097009Y-133253572D01*
X155061271Y-133224242D01*
X154959814Y-133140980D01*
X154876552Y-133039523D01*
X154847222Y-133003785D01*
X154837652Y-132985881D01*
X154763557Y-132847261D01*
X154734434Y-132751253D01*
X154712037Y-132677421D01*
X154694641Y-132500794D01*
X154712037Y-132324167D01*
X154763557Y-132154328D01*
X154763557Y-132154327D01*
X154847221Y-131997805D01*
X154847222Y-131997803D01*
X154876552Y-131962065D01*
X154959814Y-131860608D01*
X155087398Y-131755904D01*
X155097009Y-131748016D01*
X155114913Y-131738446D01*
X155253533Y-131664351D01*
X155310147Y-131647178D01*
X155423373Y-131612831D01*
X155489557Y-131606313D01*
X155555740Y-131599794D01*
X155644260Y-131599794D01*
X155710443Y-131606313D01*
X155710443Y-131606313D01*
G37*
G36*
X153170443Y-131606313D02*
X153236627Y-131612831D01*
X153349853Y-131647178D01*
X153406467Y-131664351D01*
X153545087Y-131738446D01*
X153562991Y-131748016D01*
X153572602Y-131755904D01*
X153700186Y-131860608D01*
X153783448Y-131962065D01*
X153812778Y-131997803D01*
X153812779Y-131997805D01*
X153896443Y-132154327D01*
X153896443Y-132154328D01*
X153947963Y-132324167D01*
X153965359Y-132500794D01*
X153947963Y-132677421D01*
X153925566Y-132751253D01*
X153896443Y-132847261D01*
X153822348Y-132985881D01*
X153812778Y-133003785D01*
X153783448Y-133039523D01*
X153700186Y-133140980D01*
X153598729Y-133224242D01*
X153562991Y-133253572D01*
X153562989Y-133253573D01*
X153406467Y-133337237D01*
X153349853Y-133354410D01*
X153236627Y-133388757D01*
X153170442Y-133395276D01*
X153104260Y-133401794D01*
X153015740Y-133401794D01*
X152949558Y-133395276D01*
X152883373Y-133388757D01*
X152770147Y-133354410D01*
X152713533Y-133337237D01*
X152557011Y-133253573D01*
X152557009Y-133253572D01*
X152521271Y-133224242D01*
X152419814Y-133140980D01*
X152336552Y-133039523D01*
X152307222Y-133003785D01*
X152297652Y-132985881D01*
X152223557Y-132847261D01*
X152194434Y-132751253D01*
X152172037Y-132677421D01*
X152154641Y-132500794D01*
X152172037Y-132324167D01*
X152223557Y-132154328D01*
X152223557Y-132154327D01*
X152307221Y-131997805D01*
X152307222Y-131997803D01*
X152336552Y-131962065D01*
X152419814Y-131860608D01*
X152547398Y-131755904D01*
X152557009Y-131748016D01*
X152574913Y-131738446D01*
X152713533Y-131664351D01*
X152770147Y-131647178D01*
X152883373Y-131612831D01*
X152949557Y-131606313D01*
X153015740Y-131599794D01*
X153104260Y-131599794D01*
X153170443Y-131606313D01*
X153170443Y-131606313D01*
G37*
G36*
X150630443Y-131606313D02*
X150696627Y-131612831D01*
X150809853Y-131647178D01*
X150866467Y-131664351D01*
X151005087Y-131738446D01*
X151022991Y-131748016D01*
X151032602Y-131755904D01*
X151160186Y-131860608D01*
X151243448Y-131962065D01*
X151272778Y-131997803D01*
X151272779Y-131997805D01*
X151356443Y-132154327D01*
X151356443Y-132154328D01*
X151407963Y-132324167D01*
X151425359Y-132500794D01*
X151407963Y-132677421D01*
X151385566Y-132751253D01*
X151356443Y-132847261D01*
X151282348Y-132985881D01*
X151272778Y-133003785D01*
X151243448Y-133039523D01*
X151160186Y-133140980D01*
X151058729Y-133224242D01*
X151022991Y-133253572D01*
X151022989Y-133253573D01*
X150866467Y-133337237D01*
X150809853Y-133354410D01*
X150696627Y-133388757D01*
X150630442Y-133395276D01*
X150564260Y-133401794D01*
X150475740Y-133401794D01*
X150409558Y-133395276D01*
X150343373Y-133388757D01*
X150230147Y-133354410D01*
X150173533Y-133337237D01*
X150017011Y-133253573D01*
X150017009Y-133253572D01*
X149981271Y-133224242D01*
X149879814Y-133140980D01*
X149796552Y-133039523D01*
X149767222Y-133003785D01*
X149757652Y-132985881D01*
X149683557Y-132847261D01*
X149654434Y-132751253D01*
X149632037Y-132677421D01*
X149614641Y-132500794D01*
X149632037Y-132324167D01*
X149683557Y-132154328D01*
X149683557Y-132154327D01*
X149767221Y-131997805D01*
X149767222Y-131997803D01*
X149796552Y-131962065D01*
X149879814Y-131860608D01*
X150007398Y-131755904D01*
X150017009Y-131748016D01*
X150034913Y-131738446D01*
X150173533Y-131664351D01*
X150230147Y-131647178D01*
X150343373Y-131612831D01*
X150409557Y-131606313D01*
X150475740Y-131599794D01*
X150564260Y-131599794D01*
X150630443Y-131606313D01*
X150630443Y-131606313D01*
G37*
G36*
X148090443Y-131606313D02*
X148156627Y-131612831D01*
X148269853Y-131647178D01*
X148326467Y-131664351D01*
X148465087Y-131738446D01*
X148482991Y-131748016D01*
X148492602Y-131755904D01*
X148620186Y-131860608D01*
X148703448Y-131962065D01*
X148732778Y-131997803D01*
X148732779Y-131997805D01*
X148816443Y-132154327D01*
X148816443Y-132154328D01*
X148867963Y-132324167D01*
X148885359Y-132500794D01*
X148867963Y-132677421D01*
X148845566Y-132751253D01*
X148816443Y-132847261D01*
X148742348Y-132985881D01*
X148732778Y-133003785D01*
X148703448Y-133039523D01*
X148620186Y-133140980D01*
X148518729Y-133224242D01*
X148482991Y-133253572D01*
X148482989Y-133253573D01*
X148326467Y-133337237D01*
X148269853Y-133354410D01*
X148156627Y-133388757D01*
X148090442Y-133395276D01*
X148024260Y-133401794D01*
X147935740Y-133401794D01*
X147869558Y-133395276D01*
X147803373Y-133388757D01*
X147690147Y-133354410D01*
X147633533Y-133337237D01*
X147477011Y-133253573D01*
X147477009Y-133253572D01*
X147441271Y-133224242D01*
X147339814Y-133140980D01*
X147256552Y-133039523D01*
X147227222Y-133003785D01*
X147217652Y-132985881D01*
X147143557Y-132847261D01*
X147114434Y-132751253D01*
X147092037Y-132677421D01*
X147074641Y-132500794D01*
X147092037Y-132324167D01*
X147143557Y-132154328D01*
X147143557Y-132154327D01*
X147227221Y-131997805D01*
X147227222Y-131997803D01*
X147256552Y-131962065D01*
X147339814Y-131860608D01*
X147467398Y-131755904D01*
X147477009Y-131748016D01*
X147494913Y-131738446D01*
X147633533Y-131664351D01*
X147690147Y-131647178D01*
X147803373Y-131612831D01*
X147869557Y-131606313D01*
X147935740Y-131599794D01*
X148024260Y-131599794D01*
X148090443Y-131606313D01*
X148090443Y-131606313D01*
G37*
G36*
X145550443Y-131606313D02*
X145616627Y-131612831D01*
X145729853Y-131647178D01*
X145786467Y-131664351D01*
X145925087Y-131738446D01*
X145942991Y-131748016D01*
X145952602Y-131755904D01*
X146080186Y-131860608D01*
X146163448Y-131962065D01*
X146192778Y-131997803D01*
X146192779Y-131997805D01*
X146276443Y-132154327D01*
X146276443Y-132154328D01*
X146327963Y-132324167D01*
X146345359Y-132500794D01*
X146327963Y-132677421D01*
X146305566Y-132751253D01*
X146276443Y-132847261D01*
X146202348Y-132985881D01*
X146192778Y-133003785D01*
X146163448Y-133039523D01*
X146080186Y-133140980D01*
X145978729Y-133224242D01*
X145942991Y-133253572D01*
X145942989Y-133253573D01*
X145786467Y-133337237D01*
X145729853Y-133354410D01*
X145616627Y-133388757D01*
X145550442Y-133395276D01*
X145484260Y-133401794D01*
X145395740Y-133401794D01*
X145329558Y-133395276D01*
X145263373Y-133388757D01*
X145150147Y-133354410D01*
X145093533Y-133337237D01*
X144937011Y-133253573D01*
X144937009Y-133253572D01*
X144901271Y-133224242D01*
X144799814Y-133140980D01*
X144716552Y-133039523D01*
X144687222Y-133003785D01*
X144677652Y-132985881D01*
X144603557Y-132847261D01*
X144574434Y-132751253D01*
X144552037Y-132677421D01*
X144534641Y-132500794D01*
X144552037Y-132324167D01*
X144603557Y-132154328D01*
X144603557Y-132154327D01*
X144687221Y-131997805D01*
X144687222Y-131997803D01*
X144716552Y-131962065D01*
X144799814Y-131860608D01*
X144927398Y-131755904D01*
X144937009Y-131748016D01*
X144954913Y-131738446D01*
X145093533Y-131664351D01*
X145150147Y-131647178D01*
X145263373Y-131612831D01*
X145329557Y-131606313D01*
X145395740Y-131599794D01*
X145484260Y-131599794D01*
X145550443Y-131606313D01*
X145550443Y-131606313D01*
G37*
G36*
X137930443Y-131606313D02*
X137996627Y-131612831D01*
X138109853Y-131647178D01*
X138166467Y-131664351D01*
X138305087Y-131738446D01*
X138322991Y-131748016D01*
X138332602Y-131755904D01*
X138460186Y-131860608D01*
X138543448Y-131962065D01*
X138572778Y-131997803D01*
X138572779Y-131997805D01*
X138656443Y-132154327D01*
X138656443Y-132154328D01*
X138707963Y-132324167D01*
X138725359Y-132500794D01*
X138707963Y-132677421D01*
X138685566Y-132751253D01*
X138656443Y-132847261D01*
X138582348Y-132985881D01*
X138572778Y-133003785D01*
X138543448Y-133039523D01*
X138460186Y-133140980D01*
X138358729Y-133224242D01*
X138322991Y-133253572D01*
X138322989Y-133253573D01*
X138166467Y-133337237D01*
X138109853Y-133354410D01*
X137996627Y-133388757D01*
X137930442Y-133395276D01*
X137864260Y-133401794D01*
X137775740Y-133401794D01*
X137709558Y-133395276D01*
X137643373Y-133388757D01*
X137530147Y-133354410D01*
X137473533Y-133337237D01*
X137317011Y-133253573D01*
X137317009Y-133253572D01*
X137281271Y-133224242D01*
X137179814Y-133140980D01*
X137096552Y-133039523D01*
X137067222Y-133003785D01*
X137057652Y-132985881D01*
X136983557Y-132847261D01*
X136954434Y-132751253D01*
X136932037Y-132677421D01*
X136914641Y-132500794D01*
X136932037Y-132324167D01*
X136983557Y-132154328D01*
X136983557Y-132154327D01*
X137067221Y-131997805D01*
X137067222Y-131997803D01*
X137096552Y-131962065D01*
X137179814Y-131860608D01*
X137307398Y-131755904D01*
X137317009Y-131748016D01*
X137334913Y-131738446D01*
X137473533Y-131664351D01*
X137530147Y-131647178D01*
X137643373Y-131612831D01*
X137709557Y-131606313D01*
X137775740Y-131599794D01*
X137864260Y-131599794D01*
X137930443Y-131606313D01*
X137930443Y-131606313D01*
G37*
G36*
X135390443Y-131606313D02*
X135456627Y-131612831D01*
X135569853Y-131647178D01*
X135626467Y-131664351D01*
X135765087Y-131738446D01*
X135782991Y-131748016D01*
X135792602Y-131755904D01*
X135920186Y-131860608D01*
X136003448Y-131962065D01*
X136032778Y-131997803D01*
X136032779Y-131997805D01*
X136116443Y-132154327D01*
X136116443Y-132154328D01*
X136167963Y-132324167D01*
X136185359Y-132500794D01*
X136167963Y-132677421D01*
X136145566Y-132751253D01*
X136116443Y-132847261D01*
X136042348Y-132985881D01*
X136032778Y-133003785D01*
X136003448Y-133039523D01*
X135920186Y-133140980D01*
X135818729Y-133224242D01*
X135782991Y-133253572D01*
X135782989Y-133253573D01*
X135626467Y-133337237D01*
X135569853Y-133354410D01*
X135456627Y-133388757D01*
X135390442Y-133395276D01*
X135324260Y-133401794D01*
X135235740Y-133401794D01*
X135169558Y-133395276D01*
X135103373Y-133388757D01*
X134990147Y-133354410D01*
X134933533Y-133337237D01*
X134777011Y-133253573D01*
X134777009Y-133253572D01*
X134741271Y-133224242D01*
X134639814Y-133140980D01*
X134556552Y-133039523D01*
X134527222Y-133003785D01*
X134517652Y-132985881D01*
X134443557Y-132847261D01*
X134414434Y-132751253D01*
X134392037Y-132677421D01*
X134374641Y-132500794D01*
X134392037Y-132324167D01*
X134443557Y-132154328D01*
X134443557Y-132154327D01*
X134527221Y-131997805D01*
X134527222Y-131997803D01*
X134556552Y-131962065D01*
X134639814Y-131860608D01*
X134767398Y-131755904D01*
X134777009Y-131748016D01*
X134794913Y-131738446D01*
X134933533Y-131664351D01*
X134990147Y-131647178D01*
X135103373Y-131612831D01*
X135169557Y-131606313D01*
X135235740Y-131599794D01*
X135324260Y-131599794D01*
X135390443Y-131606313D01*
X135390443Y-131606313D01*
G37*
G36*
X130310443Y-131606313D02*
X130376627Y-131612831D01*
X130489853Y-131647178D01*
X130546467Y-131664351D01*
X130685087Y-131738446D01*
X130702991Y-131748016D01*
X130712602Y-131755904D01*
X130840186Y-131860608D01*
X130923448Y-131962065D01*
X130952778Y-131997803D01*
X130952779Y-131997805D01*
X131036443Y-132154327D01*
X131036443Y-132154328D01*
X131087963Y-132324167D01*
X131105359Y-132500794D01*
X131087963Y-132677421D01*
X131065566Y-132751253D01*
X131036443Y-132847261D01*
X130962348Y-132985881D01*
X130952778Y-133003785D01*
X130923448Y-133039523D01*
X130840186Y-133140980D01*
X130738729Y-133224242D01*
X130702991Y-133253572D01*
X130702989Y-133253573D01*
X130546467Y-133337237D01*
X130489853Y-133354410D01*
X130376627Y-133388757D01*
X130310442Y-133395276D01*
X130244260Y-133401794D01*
X130155740Y-133401794D01*
X130089558Y-133395276D01*
X130023373Y-133388757D01*
X129910147Y-133354410D01*
X129853533Y-133337237D01*
X129697011Y-133253573D01*
X129697009Y-133253572D01*
X129661271Y-133224242D01*
X129559814Y-133140980D01*
X129476552Y-133039523D01*
X129447222Y-133003785D01*
X129437652Y-132985881D01*
X129363557Y-132847261D01*
X129334434Y-132751253D01*
X129312037Y-132677421D01*
X129294641Y-132500794D01*
X129312037Y-132324167D01*
X129363557Y-132154328D01*
X129363557Y-132154327D01*
X129447221Y-131997805D01*
X129447222Y-131997803D01*
X129476552Y-131962065D01*
X129559814Y-131860608D01*
X129687398Y-131755904D01*
X129697009Y-131748016D01*
X129714913Y-131738446D01*
X129853533Y-131664351D01*
X129910147Y-131647178D01*
X130023373Y-131612831D01*
X130089557Y-131606313D01*
X130155740Y-131599794D01*
X130244260Y-131599794D01*
X130310443Y-131606313D01*
X130310443Y-131606313D01*
G37*
G36*
X127770443Y-131606313D02*
X127836627Y-131612831D01*
X127949853Y-131647178D01*
X128006467Y-131664351D01*
X128145087Y-131738446D01*
X128162991Y-131748016D01*
X128172602Y-131755904D01*
X128300186Y-131860608D01*
X128383448Y-131962065D01*
X128412778Y-131997803D01*
X128412779Y-131997805D01*
X128496443Y-132154327D01*
X128496443Y-132154328D01*
X128547963Y-132324167D01*
X128565359Y-132500794D01*
X128547963Y-132677421D01*
X128525566Y-132751253D01*
X128496443Y-132847261D01*
X128422348Y-132985881D01*
X128412778Y-133003785D01*
X128383448Y-133039523D01*
X128300186Y-133140980D01*
X128198729Y-133224242D01*
X128162991Y-133253572D01*
X128162989Y-133253573D01*
X128006467Y-133337237D01*
X127949853Y-133354410D01*
X127836627Y-133388757D01*
X127770442Y-133395276D01*
X127704260Y-133401794D01*
X127615740Y-133401794D01*
X127549558Y-133395276D01*
X127483373Y-133388757D01*
X127370147Y-133354410D01*
X127313533Y-133337237D01*
X127157011Y-133253573D01*
X127157009Y-133253572D01*
X127121271Y-133224242D01*
X127019814Y-133140980D01*
X126936552Y-133039523D01*
X126907222Y-133003785D01*
X126897652Y-132985881D01*
X126823557Y-132847261D01*
X126794434Y-132751253D01*
X126772037Y-132677421D01*
X126754641Y-132500794D01*
X126772037Y-132324167D01*
X126823557Y-132154328D01*
X126823557Y-132154327D01*
X126907221Y-131997805D01*
X126907222Y-131997803D01*
X126936552Y-131962065D01*
X127019814Y-131860608D01*
X127147398Y-131755904D01*
X127157009Y-131748016D01*
X127174913Y-131738446D01*
X127313533Y-131664351D01*
X127370147Y-131647178D01*
X127483373Y-131612831D01*
X127549557Y-131606313D01*
X127615740Y-131599794D01*
X127704260Y-131599794D01*
X127770443Y-131606313D01*
X127770443Y-131606313D01*
G37*
G36*
X125230443Y-131606313D02*
X125296627Y-131612831D01*
X125409853Y-131647178D01*
X125466467Y-131664351D01*
X125605087Y-131738446D01*
X125622991Y-131748016D01*
X125632602Y-131755904D01*
X125760186Y-131860608D01*
X125843448Y-131962065D01*
X125872778Y-131997803D01*
X125872779Y-131997805D01*
X125956443Y-132154327D01*
X125956443Y-132154328D01*
X126007963Y-132324167D01*
X126025359Y-132500794D01*
X126007963Y-132677421D01*
X125985566Y-132751253D01*
X125956443Y-132847261D01*
X125882348Y-132985881D01*
X125872778Y-133003785D01*
X125843448Y-133039523D01*
X125760186Y-133140980D01*
X125658729Y-133224242D01*
X125622991Y-133253572D01*
X125622989Y-133253573D01*
X125466467Y-133337237D01*
X125409853Y-133354410D01*
X125296627Y-133388757D01*
X125230442Y-133395276D01*
X125164260Y-133401794D01*
X125075740Y-133401794D01*
X125009558Y-133395276D01*
X124943373Y-133388757D01*
X124830147Y-133354410D01*
X124773533Y-133337237D01*
X124617011Y-133253573D01*
X124617009Y-133253572D01*
X124581271Y-133224242D01*
X124479814Y-133140980D01*
X124396552Y-133039523D01*
X124367222Y-133003785D01*
X124357652Y-132985881D01*
X124283557Y-132847261D01*
X124254434Y-132751253D01*
X124232037Y-132677421D01*
X124214641Y-132500794D01*
X124232037Y-132324167D01*
X124283557Y-132154328D01*
X124283557Y-132154327D01*
X124367221Y-131997805D01*
X124367222Y-131997803D01*
X124396552Y-131962065D01*
X124479814Y-131860608D01*
X124607398Y-131755904D01*
X124617009Y-131748016D01*
X124634913Y-131738446D01*
X124773533Y-131664351D01*
X124830147Y-131647178D01*
X124943373Y-131612831D01*
X125009557Y-131606313D01*
X125075740Y-131599794D01*
X125164260Y-131599794D01*
X125230443Y-131606313D01*
X125230443Y-131606313D01*
G37*
G36*
X122690443Y-131606313D02*
X122756627Y-131612831D01*
X122869853Y-131647178D01*
X122926467Y-131664351D01*
X123065087Y-131738446D01*
X123082991Y-131748016D01*
X123092602Y-131755904D01*
X123220186Y-131860608D01*
X123303448Y-131962065D01*
X123332778Y-131997803D01*
X123332779Y-131997805D01*
X123416443Y-132154327D01*
X123416443Y-132154328D01*
X123467963Y-132324167D01*
X123485359Y-132500794D01*
X123467963Y-132677421D01*
X123445566Y-132751253D01*
X123416443Y-132847261D01*
X123342348Y-132985881D01*
X123332778Y-133003785D01*
X123303448Y-133039523D01*
X123220186Y-133140980D01*
X123118729Y-133224242D01*
X123082991Y-133253572D01*
X123082989Y-133253573D01*
X122926467Y-133337237D01*
X122869853Y-133354410D01*
X122756627Y-133388757D01*
X122690442Y-133395276D01*
X122624260Y-133401794D01*
X122535740Y-133401794D01*
X122469558Y-133395276D01*
X122403373Y-133388757D01*
X122290147Y-133354410D01*
X122233533Y-133337237D01*
X122077011Y-133253573D01*
X122077009Y-133253572D01*
X122041271Y-133224242D01*
X121939814Y-133140980D01*
X121856552Y-133039523D01*
X121827222Y-133003785D01*
X121817652Y-132985881D01*
X121743557Y-132847261D01*
X121714434Y-132751253D01*
X121692037Y-132677421D01*
X121674641Y-132500794D01*
X121692037Y-132324167D01*
X121743557Y-132154328D01*
X121743557Y-132154327D01*
X121827221Y-131997805D01*
X121827222Y-131997803D01*
X121856552Y-131962065D01*
X121939814Y-131860608D01*
X122067398Y-131755904D01*
X122077009Y-131748016D01*
X122094913Y-131738446D01*
X122233533Y-131664351D01*
X122290147Y-131647178D01*
X122403373Y-131612831D01*
X122469557Y-131606313D01*
X122535740Y-131599794D01*
X122624260Y-131599794D01*
X122690443Y-131606313D01*
X122690443Y-131606313D01*
G37*
G36*
X120150443Y-131606313D02*
X120216627Y-131612831D01*
X120329853Y-131647178D01*
X120386467Y-131664351D01*
X120525087Y-131738446D01*
X120542991Y-131748016D01*
X120552602Y-131755904D01*
X120680186Y-131860608D01*
X120763448Y-131962065D01*
X120792778Y-131997803D01*
X120792779Y-131997805D01*
X120876443Y-132154327D01*
X120876443Y-132154328D01*
X120927963Y-132324167D01*
X120945359Y-132500794D01*
X120927963Y-132677421D01*
X120905566Y-132751253D01*
X120876443Y-132847261D01*
X120802348Y-132985881D01*
X120792778Y-133003785D01*
X120763448Y-133039523D01*
X120680186Y-133140980D01*
X120578729Y-133224242D01*
X120542991Y-133253572D01*
X120542989Y-133253573D01*
X120386467Y-133337237D01*
X120329853Y-133354410D01*
X120216627Y-133388757D01*
X120150442Y-133395276D01*
X120084260Y-133401794D01*
X119995740Y-133401794D01*
X119929558Y-133395276D01*
X119863373Y-133388757D01*
X119750147Y-133354410D01*
X119693533Y-133337237D01*
X119537011Y-133253573D01*
X119537009Y-133253572D01*
X119501271Y-133224242D01*
X119399814Y-133140980D01*
X119316552Y-133039523D01*
X119287222Y-133003785D01*
X119277652Y-132985881D01*
X119203557Y-132847261D01*
X119174434Y-132751253D01*
X119152037Y-132677421D01*
X119134641Y-132500794D01*
X119152037Y-132324167D01*
X119203557Y-132154328D01*
X119203557Y-132154327D01*
X119287221Y-131997805D01*
X119287222Y-131997803D01*
X119316552Y-131962065D01*
X119399814Y-131860608D01*
X119527398Y-131755904D01*
X119537009Y-131748016D01*
X119554913Y-131738446D01*
X119693533Y-131664351D01*
X119750147Y-131647178D01*
X119863373Y-131612831D01*
X119929557Y-131606313D01*
X119995740Y-131599794D01*
X120084260Y-131599794D01*
X120150443Y-131606313D01*
X120150443Y-131606313D01*
G37*
G36*
X132850443Y-131606313D02*
X132916627Y-131612831D01*
X133029853Y-131647178D01*
X133086467Y-131664351D01*
X133225087Y-131738446D01*
X133242991Y-131748016D01*
X133252602Y-131755904D01*
X133380186Y-131860608D01*
X133463448Y-131962065D01*
X133492778Y-131997803D01*
X133492779Y-131997805D01*
X133576443Y-132154327D01*
X133576443Y-132154328D01*
X133627963Y-132324167D01*
X133645359Y-132500794D01*
X133627963Y-132677421D01*
X133605566Y-132751253D01*
X133576443Y-132847261D01*
X133502348Y-132985881D01*
X133492778Y-133003785D01*
X133463448Y-133039523D01*
X133380186Y-133140980D01*
X133278729Y-133224242D01*
X133242991Y-133253572D01*
X133242989Y-133253573D01*
X133086467Y-133337237D01*
X133029853Y-133354410D01*
X132916627Y-133388757D01*
X132850442Y-133395276D01*
X132784260Y-133401794D01*
X132695740Y-133401794D01*
X132629558Y-133395276D01*
X132563373Y-133388757D01*
X132450147Y-133354410D01*
X132393533Y-133337237D01*
X132237011Y-133253573D01*
X132237009Y-133253572D01*
X132201271Y-133224242D01*
X132099814Y-133140980D01*
X132016552Y-133039523D01*
X131987222Y-133003785D01*
X131977652Y-132985881D01*
X131903557Y-132847261D01*
X131874434Y-132751253D01*
X131852037Y-132677421D01*
X131834641Y-132500794D01*
X131852037Y-132324167D01*
X131903557Y-132154328D01*
X131903557Y-132154327D01*
X131987221Y-131997805D01*
X131987222Y-131997803D01*
X132016552Y-131962065D01*
X132099814Y-131860608D01*
X132227398Y-131755904D01*
X132237009Y-131748016D01*
X132254913Y-131738446D01*
X132393533Y-131664351D01*
X132450147Y-131647178D01*
X132563373Y-131612831D01*
X132629557Y-131606313D01*
X132695740Y-131599794D01*
X132784260Y-131599794D01*
X132850443Y-131606313D01*
X132850443Y-131606313D01*
G37*
G36*
X117610443Y-131606313D02*
X117676627Y-131612831D01*
X117789853Y-131647178D01*
X117846467Y-131664351D01*
X117985087Y-131738446D01*
X118002991Y-131748016D01*
X118012602Y-131755904D01*
X118140186Y-131860608D01*
X118223448Y-131962065D01*
X118252778Y-131997803D01*
X118252779Y-131997805D01*
X118336443Y-132154327D01*
X118336443Y-132154328D01*
X118387963Y-132324167D01*
X118405359Y-132500794D01*
X118387963Y-132677421D01*
X118365566Y-132751253D01*
X118336443Y-132847261D01*
X118262348Y-132985881D01*
X118252778Y-133003785D01*
X118223448Y-133039523D01*
X118140186Y-133140980D01*
X118038729Y-133224242D01*
X118002991Y-133253572D01*
X118002989Y-133253573D01*
X117846467Y-133337237D01*
X117789853Y-133354410D01*
X117676627Y-133388757D01*
X117610442Y-133395276D01*
X117544260Y-133401794D01*
X117455740Y-133401794D01*
X117389558Y-133395276D01*
X117323373Y-133388757D01*
X117210147Y-133354410D01*
X117153533Y-133337237D01*
X116997011Y-133253573D01*
X116997009Y-133253572D01*
X116961271Y-133224242D01*
X116859814Y-133140980D01*
X116776552Y-133039523D01*
X116747222Y-133003785D01*
X116737652Y-132985881D01*
X116663557Y-132847261D01*
X116634434Y-132751253D01*
X116612037Y-132677421D01*
X116594641Y-132500794D01*
X116612037Y-132324167D01*
X116663557Y-132154328D01*
X116663557Y-132154327D01*
X116747221Y-131997805D01*
X116747222Y-131997803D01*
X116776552Y-131962065D01*
X116859814Y-131860608D01*
X116987398Y-131755904D01*
X116997009Y-131748016D01*
X117014913Y-131738446D01*
X117153533Y-131664351D01*
X117210147Y-131647178D01*
X117323373Y-131612831D01*
X117389557Y-131606313D01*
X117455740Y-131599794D01*
X117544260Y-131599794D01*
X117610443Y-131606313D01*
X117610443Y-131606313D01*
G37*
G36*
X140470443Y-131606313D02*
X140536627Y-131612831D01*
X140649853Y-131647178D01*
X140706467Y-131664351D01*
X140845087Y-131738446D01*
X140862991Y-131748016D01*
X140872602Y-131755904D01*
X141000186Y-131860608D01*
X141083448Y-131962065D01*
X141112778Y-131997803D01*
X141112779Y-131997805D01*
X141196443Y-132154327D01*
X141196443Y-132154328D01*
X141247963Y-132324167D01*
X141265359Y-132500794D01*
X141247963Y-132677421D01*
X141225566Y-132751253D01*
X141196443Y-132847261D01*
X141122348Y-132985881D01*
X141112778Y-133003785D01*
X141083448Y-133039523D01*
X141000186Y-133140980D01*
X140898729Y-133224242D01*
X140862991Y-133253572D01*
X140862989Y-133253573D01*
X140706467Y-133337237D01*
X140649853Y-133354410D01*
X140536627Y-133388757D01*
X140470442Y-133395276D01*
X140404260Y-133401794D01*
X140315740Y-133401794D01*
X140249558Y-133395276D01*
X140183373Y-133388757D01*
X140070147Y-133354410D01*
X140013533Y-133337237D01*
X139857011Y-133253573D01*
X139857009Y-133253572D01*
X139821271Y-133224242D01*
X139719814Y-133140980D01*
X139636552Y-133039523D01*
X139607222Y-133003785D01*
X139597652Y-132985881D01*
X139523557Y-132847261D01*
X139494434Y-132751253D01*
X139472037Y-132677421D01*
X139454641Y-132500794D01*
X139472037Y-132324167D01*
X139523557Y-132154328D01*
X139523557Y-132154327D01*
X139607221Y-131997805D01*
X139607222Y-131997803D01*
X139636552Y-131962065D01*
X139719814Y-131860608D01*
X139847398Y-131755904D01*
X139857009Y-131748016D01*
X139874913Y-131738446D01*
X140013533Y-131664351D01*
X140070147Y-131647178D01*
X140183373Y-131612831D01*
X140249557Y-131606313D01*
X140315740Y-131599794D01*
X140404260Y-131599794D01*
X140470443Y-131606313D01*
X140470443Y-131606313D01*
G37*
G36*
X155700589Y-126238876D02*
X155799893Y-126258629D01*
X155940206Y-126316748D01*
X156066484Y-126401125D01*
X156173875Y-126508516D01*
X156258252Y-126634794D01*
X156316371Y-126775107D01*
X156346000Y-126924063D01*
X156346000Y-127075937D01*
X156316371Y-127224893D01*
X156258252Y-127365206D01*
X156173875Y-127491484D01*
X156066484Y-127598875D01*
X155940206Y-127683252D01*
X155799893Y-127741371D01*
X155700589Y-127761124D01*
X155650938Y-127771000D01*
X155499062Y-127771000D01*
X155449411Y-127761124D01*
X155350107Y-127741371D01*
X155209794Y-127683252D01*
X155083516Y-127598875D01*
X154976125Y-127491484D01*
X154891748Y-127365206D01*
X154833629Y-127224893D01*
X154804000Y-127075937D01*
X154804000Y-126924063D01*
X154833629Y-126775107D01*
X154891748Y-126634794D01*
X154976125Y-126508516D01*
X155083516Y-126401125D01*
X155209794Y-126316748D01*
X155350107Y-126258629D01*
X155449411Y-126238876D01*
X155499062Y-126229000D01*
X155650938Y-126229000D01*
X155700589Y-126238876D01*
X155700589Y-126238876D01*
G37*
G36*
X158240589Y-126238876D02*
X158339893Y-126258629D01*
X158480206Y-126316748D01*
X158606484Y-126401125D01*
X158713875Y-126508516D01*
X158798252Y-126634794D01*
X158856371Y-126775107D01*
X158886000Y-126924063D01*
X158886000Y-127075937D01*
X158856371Y-127224893D01*
X158798252Y-127365206D01*
X158713875Y-127491484D01*
X158606484Y-127598875D01*
X158480206Y-127683252D01*
X158339893Y-127741371D01*
X158240589Y-127761124D01*
X158190938Y-127771000D01*
X158039062Y-127771000D01*
X157989411Y-127761124D01*
X157890107Y-127741371D01*
X157749794Y-127683252D01*
X157623516Y-127598875D01*
X157516125Y-127491484D01*
X157431748Y-127365206D01*
X157373629Y-127224893D01*
X157344000Y-127075937D01*
X157344000Y-126924063D01*
X157373629Y-126775107D01*
X157431748Y-126634794D01*
X157516125Y-126508516D01*
X157623516Y-126401125D01*
X157749794Y-126316748D01*
X157890107Y-126258629D01*
X157989411Y-126238876D01*
X158039062Y-126229000D01*
X158190938Y-126229000D01*
X158240589Y-126238876D01*
X158240589Y-126238876D01*
G37*
G36*
X160780589Y-126238876D02*
X160879893Y-126258629D01*
X161020206Y-126316748D01*
X161146484Y-126401125D01*
X161253875Y-126508516D01*
X161338252Y-126634794D01*
X161396371Y-126775107D01*
X161426000Y-126924063D01*
X161426000Y-127075937D01*
X161396371Y-127224893D01*
X161338252Y-127365206D01*
X161253875Y-127491484D01*
X161146484Y-127598875D01*
X161020206Y-127683252D01*
X160879893Y-127741371D01*
X160780589Y-127761124D01*
X160730938Y-127771000D01*
X160579062Y-127771000D01*
X160529411Y-127761124D01*
X160430107Y-127741371D01*
X160289794Y-127683252D01*
X160163516Y-127598875D01*
X160056125Y-127491484D01*
X159971748Y-127365206D01*
X159913629Y-127224893D01*
X159884000Y-127075937D01*
X159884000Y-126924063D01*
X159913629Y-126775107D01*
X159971748Y-126634794D01*
X160056125Y-126508516D01*
X160163516Y-126401125D01*
X160289794Y-126316748D01*
X160430107Y-126258629D01*
X160529411Y-126238876D01*
X160579062Y-126229000D01*
X160730938Y-126229000D01*
X160780589Y-126238876D01*
X160780589Y-126238876D01*
G37*
G36*
X104402812Y-124093624D02*
X104566784Y-124161544D01*
X104714354Y-124260147D01*
X104839853Y-124385646D01*
X104938456Y-124533216D01*
X105006376Y-124697188D01*
X105041000Y-124871259D01*
X105041000Y-125048741D01*
X105006376Y-125222812D01*
X104938456Y-125386784D01*
X104839853Y-125534354D01*
X104714354Y-125659853D01*
X104566784Y-125758456D01*
X104402812Y-125826376D01*
X104228741Y-125861000D01*
X104051259Y-125861000D01*
X103877188Y-125826376D01*
X103713216Y-125758456D01*
X103565646Y-125659853D01*
X103440147Y-125534354D01*
X103341544Y-125386784D01*
X103273624Y-125222812D01*
X103239000Y-125048741D01*
X103239000Y-124871259D01*
X103273624Y-124697188D01*
X103341544Y-124533216D01*
X103440147Y-124385646D01*
X103565646Y-124260147D01*
X103713216Y-124161544D01*
X103877188Y-124093624D01*
X104051259Y-124059000D01*
X104228741Y-124059000D01*
X104402812Y-124093624D01*
X104402812Y-124093624D01*
G37*
G36*
X113216425Y-122752760D02*
X113216428Y-122752761D01*
X113216429Y-122752761D01*
X113395693Y-122807140D01*
X113395695Y-122807141D01*
X113560905Y-122895448D01*
X113705712Y-123014288D01*
X113824552Y-123159095D01*
X113912859Y-123324305D01*
X113967240Y-123503575D01*
X113985601Y-123690000D01*
X113967240Y-123876425D01*
X113912859Y-124055695D01*
X113824552Y-124220905D01*
X113705712Y-124365712D01*
X113560905Y-124484552D01*
X113560903Y-124484553D01*
X113395693Y-124572860D01*
X113216429Y-124627239D01*
X113216428Y-124627239D01*
X113216425Y-124627240D01*
X113076718Y-124641000D01*
X112983282Y-124641000D01*
X112843575Y-124627240D01*
X112843572Y-124627239D01*
X112843571Y-124627239D01*
X112664307Y-124572860D01*
X112499097Y-124484553D01*
X112499095Y-124484552D01*
X112354288Y-124365712D01*
X112235448Y-124220905D01*
X112147141Y-124055695D01*
X112092760Y-123876425D01*
X112074399Y-123690000D01*
X112092760Y-123503575D01*
X112147141Y-123324305D01*
X112235448Y-123159095D01*
X112354288Y-123014288D01*
X112499095Y-122895448D01*
X112664305Y-122807141D01*
X112664307Y-122807140D01*
X112843571Y-122752761D01*
X112843572Y-122752761D01*
X112843575Y-122752760D01*
X112983282Y-122739000D01*
X113076718Y-122739000D01*
X113216425Y-122752760D01*
X113216425Y-122752760D01*
G37*
G36*
X115756425Y-122752760D02*
X115756428Y-122752761D01*
X115756429Y-122752761D01*
X115935693Y-122807140D01*
X115935695Y-122807141D01*
X116100905Y-122895448D01*
X116245712Y-123014288D01*
X116364552Y-123159095D01*
X116452859Y-123324305D01*
X116507240Y-123503575D01*
X116525601Y-123690000D01*
X116507240Y-123876425D01*
X116452859Y-124055695D01*
X116364552Y-124220905D01*
X116245712Y-124365712D01*
X116100905Y-124484552D01*
X116100903Y-124484553D01*
X115935693Y-124572860D01*
X115756429Y-124627239D01*
X115756428Y-124627239D01*
X115756425Y-124627240D01*
X115616718Y-124641000D01*
X115523282Y-124641000D01*
X115383575Y-124627240D01*
X115383572Y-124627239D01*
X115383571Y-124627239D01*
X115204307Y-124572860D01*
X115039097Y-124484553D01*
X115039095Y-124484552D01*
X114894288Y-124365712D01*
X114775448Y-124220905D01*
X114687141Y-124055695D01*
X114632760Y-123876425D01*
X114614399Y-123690000D01*
X114632760Y-123503575D01*
X114687141Y-123324305D01*
X114775448Y-123159095D01*
X114894288Y-123014288D01*
X115039095Y-122895448D01*
X115204305Y-122807141D01*
X115204307Y-122807140D01*
X115383571Y-122752761D01*
X115383572Y-122752761D01*
X115383575Y-122752760D01*
X115523282Y-122739000D01*
X115616718Y-122739000D01*
X115756425Y-122752760D01*
X115756425Y-122752760D01*
G37*
G36*
X111441000Y-124641000D02*
X109539000Y-124641000D01*
X109539000Y-122739000D01*
X111441000Y-122739000D01*
X111441000Y-124641000D01*
X111441000Y-124641000D01*
G37*
G36*
X105041000Y-123321000D02*
X103239000Y-123321000D01*
X103239000Y-121519000D01*
X105041000Y-121519000D01*
X105041000Y-123321000D01*
X105041000Y-123321000D01*
G37*
G36*
X104402812Y-119013624D02*
X104566784Y-119081544D01*
X104714354Y-119180147D01*
X104839853Y-119305646D01*
X104938456Y-119453216D01*
X105006376Y-119617188D01*
X105041000Y-119791259D01*
X105041000Y-119968741D01*
X105006376Y-120142812D01*
X104938456Y-120306784D01*
X104839853Y-120454354D01*
X104714354Y-120579853D01*
X104566784Y-120678456D01*
X104402812Y-120746376D01*
X104228741Y-120781000D01*
X104051259Y-120781000D01*
X103877188Y-120746376D01*
X103713216Y-120678456D01*
X103565646Y-120579853D01*
X103440147Y-120454354D01*
X103341544Y-120306784D01*
X103273624Y-120142812D01*
X103239000Y-119968741D01*
X103239000Y-119791259D01*
X103273624Y-119617188D01*
X103341544Y-119453216D01*
X103440147Y-119305646D01*
X103565646Y-119180147D01*
X103713216Y-119081544D01*
X103877188Y-119013624D01*
X104051259Y-118979000D01*
X104228741Y-118979000D01*
X104402812Y-119013624D01*
X104402812Y-119013624D01*
G37*
G36*
X115756425Y-117672760D02*
X115756428Y-117672761D01*
X115756429Y-117672761D01*
X115935693Y-117727140D01*
X115935695Y-117727141D01*
X116100905Y-117815448D01*
X116245712Y-117934288D01*
X116364552Y-118079095D01*
X116452859Y-118244305D01*
X116507240Y-118423575D01*
X116525601Y-118610000D01*
X116507240Y-118796425D01*
X116452859Y-118975695D01*
X116364552Y-119140905D01*
X116245712Y-119285712D01*
X116100905Y-119404552D01*
X116100903Y-119404553D01*
X115935693Y-119492860D01*
X115756429Y-119547239D01*
X115756428Y-119547239D01*
X115756425Y-119547240D01*
X115616718Y-119561000D01*
X115523282Y-119561000D01*
X115383575Y-119547240D01*
X115383572Y-119547239D01*
X115383571Y-119547239D01*
X115204307Y-119492860D01*
X115039097Y-119404553D01*
X115039095Y-119404552D01*
X114894288Y-119285712D01*
X114775448Y-119140905D01*
X114687141Y-118975695D01*
X114632760Y-118796425D01*
X114614399Y-118610000D01*
X114632760Y-118423575D01*
X114687141Y-118244305D01*
X114775448Y-118079095D01*
X114894288Y-117934288D01*
X115039095Y-117815448D01*
X115204305Y-117727141D01*
X115204307Y-117727140D01*
X115383571Y-117672761D01*
X115383572Y-117672761D01*
X115383575Y-117672760D01*
X115523282Y-117659000D01*
X115616718Y-117659000D01*
X115756425Y-117672760D01*
X115756425Y-117672760D01*
G37*
G36*
X113216425Y-117672760D02*
X113216428Y-117672761D01*
X113216429Y-117672761D01*
X113395693Y-117727140D01*
X113395695Y-117727141D01*
X113560905Y-117815448D01*
X113705712Y-117934288D01*
X113824552Y-118079095D01*
X113912859Y-118244305D01*
X113967240Y-118423575D01*
X113985601Y-118610000D01*
X113967240Y-118796425D01*
X113912859Y-118975695D01*
X113824552Y-119140905D01*
X113705712Y-119285712D01*
X113560905Y-119404552D01*
X113560903Y-119404553D01*
X113395693Y-119492860D01*
X113216429Y-119547239D01*
X113216428Y-119547239D01*
X113216425Y-119547240D01*
X113076718Y-119561000D01*
X112983282Y-119561000D01*
X112843575Y-119547240D01*
X112843572Y-119547239D01*
X112843571Y-119547239D01*
X112664307Y-119492860D01*
X112499097Y-119404553D01*
X112499095Y-119404552D01*
X112354288Y-119285712D01*
X112235448Y-119140905D01*
X112147141Y-118975695D01*
X112092760Y-118796425D01*
X112074399Y-118610000D01*
X112092760Y-118423575D01*
X112147141Y-118244305D01*
X112235448Y-118079095D01*
X112354288Y-117934288D01*
X112499095Y-117815448D01*
X112664305Y-117727141D01*
X112664307Y-117727140D01*
X112843571Y-117672761D01*
X112843572Y-117672761D01*
X112843575Y-117672760D01*
X112983282Y-117659000D01*
X113076718Y-117659000D01*
X113216425Y-117672760D01*
X113216425Y-117672760D01*
G37*
G36*
X111441000Y-119561000D02*
X109539000Y-119561000D01*
X109539000Y-117659000D01*
X111441000Y-117659000D01*
X111441000Y-119561000D01*
X111441000Y-119561000D01*
G37*
G36*
X105041000Y-118241000D02*
X103239000Y-118241000D01*
X103239000Y-116439000D01*
X105041000Y-116439000D01*
X105041000Y-118241000D01*
X105041000Y-118241000D01*
G37*
G36*
X104402812Y-113933624D02*
X104566784Y-114001544D01*
X104714354Y-114100147D01*
X104839853Y-114225646D01*
X104938456Y-114373216D01*
X105006376Y-114537188D01*
X105041000Y-114711259D01*
X105041000Y-114888741D01*
X105006376Y-115062812D01*
X104938456Y-115226784D01*
X104839853Y-115374354D01*
X104714354Y-115499853D01*
X104566784Y-115598456D01*
X104402812Y-115666376D01*
X104228741Y-115701000D01*
X104051259Y-115701000D01*
X103877188Y-115666376D01*
X103713216Y-115598456D01*
X103565646Y-115499853D01*
X103440147Y-115374354D01*
X103341544Y-115226784D01*
X103273624Y-115062812D01*
X103239000Y-114888741D01*
X103239000Y-114711259D01*
X103273624Y-114537188D01*
X103341544Y-114373216D01*
X103440147Y-114225646D01*
X103565646Y-114100147D01*
X103713216Y-114001544D01*
X103877188Y-113933624D01*
X104051259Y-113899000D01*
X104228741Y-113899000D01*
X104402812Y-113933624D01*
X104402812Y-113933624D01*
G37*
G36*
X190500080Y-109985910D02*
X190500083Y-109985911D01*
X190980949Y-110131780D01*
X191424117Y-110368658D01*
X191486498Y-110419853D01*
X191812557Y-110687443D01*
X192131341Y-111075882D01*
X192368219Y-111519049D01*
X192514090Y-111999920D01*
X192563343Y-112500000D01*
X192514090Y-113000080D01*
X192514089Y-113000083D01*
X192368220Y-113480949D01*
X192131342Y-113924117D01*
X191812557Y-114312557D01*
X191424117Y-114631342D01*
X190980949Y-114868220D01*
X190589594Y-114986936D01*
X190500080Y-115014090D01*
X190125324Y-115051000D01*
X189874676Y-115051000D01*
X189499920Y-115014090D01*
X189410406Y-114986936D01*
X189019051Y-114868220D01*
X188575883Y-114631342D01*
X188187443Y-114312557D01*
X187868658Y-113924117D01*
X187631780Y-113480949D01*
X187485911Y-113000083D01*
X187485910Y-113000080D01*
X187436657Y-112500000D01*
X187485910Y-111999920D01*
X187631781Y-111519049D01*
X187868659Y-111075882D01*
X188187443Y-110687443D01*
X188513502Y-110419853D01*
X188575883Y-110368658D01*
X189019051Y-110131780D01*
X189499917Y-109985911D01*
X189499920Y-109985910D01*
X189874676Y-109949000D01*
X190125324Y-109949000D01*
X190500080Y-109985910D01*
X190500080Y-109985910D01*
G37*
G36*
X128000080Y-109985910D02*
X128000083Y-109985911D01*
X128480949Y-110131780D01*
X128924117Y-110368658D01*
X128986498Y-110419853D01*
X129312557Y-110687443D01*
X129631341Y-111075882D01*
X129868219Y-111519049D01*
X130014090Y-111999920D01*
X130063343Y-112500000D01*
X130014090Y-113000080D01*
X130014089Y-113000083D01*
X129868220Y-113480949D01*
X129631342Y-113924117D01*
X129312557Y-114312557D01*
X128924117Y-114631342D01*
X128480949Y-114868220D01*
X128089594Y-114986936D01*
X128000080Y-115014090D01*
X127625324Y-115051000D01*
X127374676Y-115051000D01*
X126999920Y-115014090D01*
X126910406Y-114986936D01*
X126519051Y-114868220D01*
X126075883Y-114631342D01*
X125687443Y-114312557D01*
X125368658Y-113924117D01*
X125131780Y-113480949D01*
X124985911Y-113000083D01*
X124985910Y-113000080D01*
X124936657Y-112500000D01*
X124985910Y-111999920D01*
X125131781Y-111519049D01*
X125368659Y-111075882D01*
X125687443Y-110687443D01*
X126013502Y-110419853D01*
X126075883Y-110368658D01*
X126519051Y-110131780D01*
X126999917Y-109985911D01*
X126999920Y-109985910D01*
X127374676Y-109949000D01*
X127625324Y-109949000D01*
X128000080Y-109985910D01*
X128000080Y-109985910D01*
G37*
G36*
X113216425Y-112592760D02*
X113216428Y-112592761D01*
X113216429Y-112592761D01*
X113395693Y-112647140D01*
X113395695Y-112647141D01*
X113560905Y-112735448D01*
X113705712Y-112854288D01*
X113824552Y-112999095D01*
X113912859Y-113164305D01*
X113967240Y-113343575D01*
X113985601Y-113530000D01*
X113967240Y-113716425D01*
X113912859Y-113895695D01*
X113824552Y-114060905D01*
X113705712Y-114205712D01*
X113560905Y-114324552D01*
X113560903Y-114324553D01*
X113395693Y-114412860D01*
X113216429Y-114467239D01*
X113216428Y-114467239D01*
X113216425Y-114467240D01*
X113076718Y-114481000D01*
X112983282Y-114481000D01*
X112843575Y-114467240D01*
X112843572Y-114467239D01*
X112843571Y-114467239D01*
X112664307Y-114412860D01*
X112499097Y-114324553D01*
X112499095Y-114324552D01*
X112354288Y-114205712D01*
X112235448Y-114060905D01*
X112147141Y-113895695D01*
X112092760Y-113716425D01*
X112074399Y-113530000D01*
X112092760Y-113343575D01*
X112147141Y-113164305D01*
X112235448Y-112999095D01*
X112354288Y-112854288D01*
X112499095Y-112735448D01*
X112664305Y-112647141D01*
X112664307Y-112647140D01*
X112843571Y-112592761D01*
X112843572Y-112592761D01*
X112843575Y-112592760D01*
X112983282Y-112579000D01*
X113076718Y-112579000D01*
X113216425Y-112592760D01*
X113216425Y-112592760D01*
G37*
G36*
X111441000Y-114481000D02*
X109539000Y-114481000D01*
X109539000Y-112579000D01*
X111441000Y-112579000D01*
X111441000Y-114481000D01*
X111441000Y-114481000D01*
G37*
G36*
X115756425Y-112592760D02*
X115756428Y-112592761D01*
X115756429Y-112592761D01*
X115935693Y-112647140D01*
X115935695Y-112647141D01*
X116100905Y-112735448D01*
X116245712Y-112854288D01*
X116364552Y-112999095D01*
X116452859Y-113164305D01*
X116507240Y-113343575D01*
X116525601Y-113530000D01*
X116507240Y-113716425D01*
X116452859Y-113895695D01*
X116364552Y-114060905D01*
X116245712Y-114205712D01*
X116100905Y-114324552D01*
X116100903Y-114324553D01*
X115935693Y-114412860D01*
X115756429Y-114467239D01*
X115756428Y-114467239D01*
X115756425Y-114467240D01*
X115616718Y-114481000D01*
X115523282Y-114481000D01*
X115383575Y-114467240D01*
X115383572Y-114467239D01*
X115383571Y-114467239D01*
X115204307Y-114412860D01*
X115039097Y-114324553D01*
X115039095Y-114324552D01*
X114894288Y-114205712D01*
X114775448Y-114060905D01*
X114687141Y-113895695D01*
X114632760Y-113716425D01*
X114614399Y-113530000D01*
X114632760Y-113343575D01*
X114687141Y-113164305D01*
X114775448Y-112999095D01*
X114894288Y-112854288D01*
X115039095Y-112735448D01*
X115204305Y-112647141D01*
X115204307Y-112647140D01*
X115383571Y-112592761D01*
X115383572Y-112592761D01*
X115383575Y-112592760D01*
X115523282Y-112579000D01*
X115616718Y-112579000D01*
X115756425Y-112592760D01*
X115756425Y-112592760D01*
G37*
G36*
X105041000Y-113161000D02*
X103239000Y-113161000D01*
X103239000Y-111359000D01*
X105041000Y-111359000D01*
X105041000Y-113161000D01*
X105041000Y-113161000D01*
G37*
G36*
X104402812Y-108853624D02*
X104566784Y-108921544D01*
X104714354Y-109020147D01*
X104839853Y-109145646D01*
X104938456Y-109293216D01*
X105006376Y-109457188D01*
X105041000Y-109631259D01*
X105041000Y-109808741D01*
X105006376Y-109982812D01*
X104938456Y-110146784D01*
X104839853Y-110294354D01*
X104714354Y-110419853D01*
X104566784Y-110518456D01*
X104402812Y-110586376D01*
X104228741Y-110621000D01*
X104051259Y-110621000D01*
X103877188Y-110586376D01*
X103713216Y-110518456D01*
X103565646Y-110419853D01*
X103440147Y-110294354D01*
X103341544Y-110146784D01*
X103273624Y-109982812D01*
X103239000Y-109808741D01*
X103239000Y-109631259D01*
X103273624Y-109457188D01*
X103341544Y-109293216D01*
X103440147Y-109145646D01*
X103565646Y-109020147D01*
X103713216Y-108921544D01*
X103877188Y-108853624D01*
X104051259Y-108819000D01*
X104228741Y-108819000D01*
X104402812Y-108853624D01*
X104402812Y-108853624D01*
G37*
G36*
X111441000Y-109401000D02*
X109539000Y-109401000D01*
X109539000Y-107499000D01*
X111441000Y-107499000D01*
X111441000Y-109401000D01*
X111441000Y-109401000D01*
G37*
G36*
X115756425Y-107512760D02*
X115756428Y-107512761D01*
X115756429Y-107512761D01*
X115935693Y-107567140D01*
X115935695Y-107567141D01*
X116100905Y-107655448D01*
X116245712Y-107774288D01*
X116364552Y-107919095D01*
X116452859Y-108084305D01*
X116507240Y-108263575D01*
X116525601Y-108450000D01*
X116507240Y-108636425D01*
X116452859Y-108815695D01*
X116364552Y-108980905D01*
X116245712Y-109125712D01*
X116100905Y-109244552D01*
X116100903Y-109244553D01*
X115935693Y-109332860D01*
X115756429Y-109387239D01*
X115756428Y-109387239D01*
X115756425Y-109387240D01*
X115616718Y-109401000D01*
X115523282Y-109401000D01*
X115383575Y-109387240D01*
X115383572Y-109387239D01*
X115383571Y-109387239D01*
X115204307Y-109332860D01*
X115039097Y-109244553D01*
X115039095Y-109244552D01*
X114894288Y-109125712D01*
X114775448Y-108980905D01*
X114687141Y-108815695D01*
X114632760Y-108636425D01*
X114614399Y-108450000D01*
X114632760Y-108263575D01*
X114687141Y-108084305D01*
X114775448Y-107919095D01*
X114894288Y-107774288D01*
X115039095Y-107655448D01*
X115204305Y-107567141D01*
X115204307Y-107567140D01*
X115383571Y-107512761D01*
X115383572Y-107512761D01*
X115383575Y-107512760D01*
X115523282Y-107499000D01*
X115616718Y-107499000D01*
X115756425Y-107512760D01*
X115756425Y-107512760D01*
G37*
G36*
X113216425Y-107512760D02*
X113216428Y-107512761D01*
X113216429Y-107512761D01*
X113395693Y-107567140D01*
X113395695Y-107567141D01*
X113560905Y-107655448D01*
X113705712Y-107774288D01*
X113824552Y-107919095D01*
X113912859Y-108084305D01*
X113967240Y-108263575D01*
X113985601Y-108450000D01*
X113967240Y-108636425D01*
X113912859Y-108815695D01*
X113824552Y-108980905D01*
X113705712Y-109125712D01*
X113560905Y-109244552D01*
X113560903Y-109244553D01*
X113395693Y-109332860D01*
X113216429Y-109387239D01*
X113216428Y-109387239D01*
X113216425Y-109387240D01*
X113076718Y-109401000D01*
X112983282Y-109401000D01*
X112843575Y-109387240D01*
X112843572Y-109387239D01*
X112843571Y-109387239D01*
X112664307Y-109332860D01*
X112499097Y-109244553D01*
X112499095Y-109244552D01*
X112354288Y-109125712D01*
X112235448Y-108980905D01*
X112147141Y-108815695D01*
X112092760Y-108636425D01*
X112074399Y-108450000D01*
X112092760Y-108263575D01*
X112147141Y-108084305D01*
X112235448Y-107919095D01*
X112354288Y-107774288D01*
X112499095Y-107655448D01*
X112664305Y-107567141D01*
X112664307Y-107567140D01*
X112843571Y-107512761D01*
X112843572Y-107512761D01*
X112843575Y-107512760D01*
X112983282Y-107499000D01*
X113076718Y-107499000D01*
X113216425Y-107512760D01*
X113216425Y-107512760D01*
G37*
G36*
X105041000Y-108081000D02*
X103239000Y-108081000D01*
X103239000Y-106279000D01*
X105041000Y-106279000D01*
X105041000Y-108081000D01*
X105041000Y-108081000D01*
G37*
G36*
X104402812Y-103773624D02*
X104566784Y-103841544D01*
X104714354Y-103940147D01*
X104839853Y-104065646D01*
X104938456Y-104213216D01*
X105006376Y-104377188D01*
X105041000Y-104551259D01*
X105041000Y-104728741D01*
X105006376Y-104902812D01*
X104938456Y-105066784D01*
X104839853Y-105214354D01*
X104714354Y-105339853D01*
X104566784Y-105438456D01*
X104402812Y-105506376D01*
X104228741Y-105541000D01*
X104051259Y-105541000D01*
X103877188Y-105506376D01*
X103713216Y-105438456D01*
X103565646Y-105339853D01*
X103440147Y-105214354D01*
X103341544Y-105066784D01*
X103273624Y-104902812D01*
X103239000Y-104728741D01*
X103239000Y-104551259D01*
X103273624Y-104377188D01*
X103341544Y-104213216D01*
X103440147Y-104065646D01*
X103565646Y-103940147D01*
X103713216Y-103841544D01*
X103877188Y-103773624D01*
X104051259Y-103739000D01*
X104228741Y-103739000D01*
X104402812Y-103773624D01*
X104402812Y-103773624D01*
G37*
G36*
X115756425Y-102432760D02*
X115756428Y-102432761D01*
X115756429Y-102432761D01*
X115935693Y-102487140D01*
X115935695Y-102487141D01*
X116100905Y-102575448D01*
X116245712Y-102694288D01*
X116364552Y-102839095D01*
X116452859Y-103004305D01*
X116507240Y-103183575D01*
X116525601Y-103370000D01*
X116507240Y-103556425D01*
X116452859Y-103735695D01*
X116364552Y-103900905D01*
X116245712Y-104045712D01*
X116100905Y-104164552D01*
X116100903Y-104164553D01*
X115935693Y-104252860D01*
X115756429Y-104307239D01*
X115756428Y-104307239D01*
X115756425Y-104307240D01*
X115616718Y-104321000D01*
X115523282Y-104321000D01*
X115383575Y-104307240D01*
X115383572Y-104307239D01*
X115383571Y-104307239D01*
X115204307Y-104252860D01*
X115039097Y-104164553D01*
X115039095Y-104164552D01*
X114894288Y-104045712D01*
X114775448Y-103900905D01*
X114687141Y-103735695D01*
X114632760Y-103556425D01*
X114614399Y-103370000D01*
X114632760Y-103183575D01*
X114687141Y-103004305D01*
X114775448Y-102839095D01*
X114894288Y-102694288D01*
X115039095Y-102575448D01*
X115204305Y-102487141D01*
X115204307Y-102487140D01*
X115383571Y-102432761D01*
X115383572Y-102432761D01*
X115383575Y-102432760D01*
X115523282Y-102419000D01*
X115616718Y-102419000D01*
X115756425Y-102432760D01*
X115756425Y-102432760D01*
G37*
G36*
X113216425Y-102432760D02*
X113216428Y-102432761D01*
X113216429Y-102432761D01*
X113395693Y-102487140D01*
X113395695Y-102487141D01*
X113560905Y-102575448D01*
X113705712Y-102694288D01*
X113824552Y-102839095D01*
X113912859Y-103004305D01*
X113967240Y-103183575D01*
X113985601Y-103370000D01*
X113967240Y-103556425D01*
X113912859Y-103735695D01*
X113824552Y-103900905D01*
X113705712Y-104045712D01*
X113560905Y-104164552D01*
X113560903Y-104164553D01*
X113395693Y-104252860D01*
X113216429Y-104307239D01*
X113216428Y-104307239D01*
X113216425Y-104307240D01*
X113076718Y-104321000D01*
X112983282Y-104321000D01*
X112843575Y-104307240D01*
X112843572Y-104307239D01*
X112843571Y-104307239D01*
X112664307Y-104252860D01*
X112499097Y-104164553D01*
X112499095Y-104164552D01*
X112354288Y-104045712D01*
X112235448Y-103900905D01*
X112147141Y-103735695D01*
X112092760Y-103556425D01*
X112074399Y-103370000D01*
X112092760Y-103183575D01*
X112147141Y-103004305D01*
X112235448Y-102839095D01*
X112354288Y-102694288D01*
X112499095Y-102575448D01*
X112664305Y-102487141D01*
X112664307Y-102487140D01*
X112843571Y-102432761D01*
X112843572Y-102432761D01*
X112843575Y-102432760D01*
X112983282Y-102419000D01*
X113076718Y-102419000D01*
X113216425Y-102432760D01*
X113216425Y-102432760D01*
G37*
G36*
X111441000Y-104321000D02*
X109539000Y-104321000D01*
X109539000Y-102419000D01*
X111441000Y-102419000D01*
X111441000Y-104321000D01*
X111441000Y-104321000D01*
G37*
G36*
X105041000Y-103001000D02*
X103239000Y-103001000D01*
X103239000Y-101199000D01*
X105041000Y-101199000D01*
X105041000Y-103001000D01*
X105041000Y-103001000D01*
G37*
G36*
X128000080Y-97485910D02*
X128000083Y-97485911D01*
X128480949Y-97631780D01*
X128924117Y-97868658D01*
X129312557Y-98187443D01*
X129631342Y-98575883D01*
X129868220Y-99019051D01*
X129941266Y-99259853D01*
X130014090Y-99499920D01*
X130063343Y-100000000D01*
X130014090Y-100500080D01*
X130014089Y-100500083D01*
X129868220Y-100980949D01*
X129631342Y-101424117D01*
X129312557Y-101812557D01*
X128924117Y-102131342D01*
X128480949Y-102368220D01*
X128089594Y-102486936D01*
X128000080Y-102514090D01*
X127625324Y-102551000D01*
X127374676Y-102551000D01*
X126999920Y-102514090D01*
X126910406Y-102486936D01*
X126519051Y-102368220D01*
X126075883Y-102131342D01*
X125687443Y-101812557D01*
X125368658Y-101424117D01*
X125131780Y-100980949D01*
X124985911Y-100500083D01*
X124985910Y-100500080D01*
X124936657Y-100000000D01*
X124985910Y-99499920D01*
X125058734Y-99259853D01*
X125131780Y-99019051D01*
X125368658Y-98575883D01*
X125687443Y-98187443D01*
X126075883Y-97868658D01*
X126519051Y-97631780D01*
X126999917Y-97485911D01*
X126999920Y-97485910D01*
X127374676Y-97449000D01*
X127625324Y-97449000D01*
X128000080Y-97485910D01*
X128000080Y-97485910D01*
G37*
G36*
X190500080Y-97485910D02*
X190500083Y-97485911D01*
X190980949Y-97631780D01*
X191424117Y-97868658D01*
X191812557Y-98187443D01*
X192131342Y-98575883D01*
X192368220Y-99019051D01*
X192441266Y-99259853D01*
X192514090Y-99499920D01*
X192563343Y-100000000D01*
X192514090Y-100500080D01*
X192514089Y-100500083D01*
X192368220Y-100980949D01*
X192131342Y-101424117D01*
X191812557Y-101812557D01*
X191424117Y-102131342D01*
X190980949Y-102368220D01*
X190589594Y-102486936D01*
X190500080Y-102514090D01*
X190125324Y-102551000D01*
X189874676Y-102551000D01*
X189499920Y-102514090D01*
X189410406Y-102486936D01*
X189019051Y-102368220D01*
X188575883Y-102131342D01*
X188187443Y-101812557D01*
X187868658Y-101424117D01*
X187631780Y-100980949D01*
X187485911Y-100500083D01*
X187485910Y-100500080D01*
X187436657Y-100000000D01*
X187485910Y-99499920D01*
X187558734Y-99259853D01*
X187631780Y-99019051D01*
X187868658Y-98575883D01*
X188187443Y-98187443D01*
X188575883Y-97868658D01*
X189019051Y-97631780D01*
X189499917Y-97485911D01*
X189499920Y-97485910D01*
X189874676Y-97449000D01*
X190125324Y-97449000D01*
X190500080Y-97485910D01*
X190500080Y-97485910D01*
G37*
G36*
X104402812Y-97693624D02*
X104566784Y-97761544D01*
X104714354Y-97860147D01*
X104839853Y-97985646D01*
X104938456Y-98133216D01*
X105006376Y-98297188D01*
X105041000Y-98471259D01*
X105041000Y-98648741D01*
X105006376Y-98822812D01*
X104938456Y-98986784D01*
X104839853Y-99134354D01*
X104714354Y-99259853D01*
X104566784Y-99358456D01*
X104402812Y-99426376D01*
X104228741Y-99461000D01*
X104051259Y-99461000D01*
X103877188Y-99426376D01*
X103713216Y-99358456D01*
X103565646Y-99259853D01*
X103440147Y-99134354D01*
X103341544Y-98986784D01*
X103273624Y-98822812D01*
X103239000Y-98648741D01*
X103239000Y-98471259D01*
X103273624Y-98297188D01*
X103341544Y-98133216D01*
X103440147Y-97985646D01*
X103565646Y-97860147D01*
X103713216Y-97761544D01*
X103877188Y-97693624D01*
X104051259Y-97659000D01*
X104228741Y-97659000D01*
X104402812Y-97693624D01*
X104402812Y-97693624D01*
G37*
G36*
X111441000Y-98241000D02*
X109539000Y-98241000D01*
X109539000Y-96339000D01*
X111441000Y-96339000D01*
X111441000Y-98241000D01*
X111441000Y-98241000D01*
G37*
G36*
X113216425Y-96352760D02*
X113216428Y-96352761D01*
X113216429Y-96352761D01*
X113395693Y-96407140D01*
X113395695Y-96407141D01*
X113560905Y-96495448D01*
X113705712Y-96614288D01*
X113824552Y-96759095D01*
X113912859Y-96924305D01*
X113967240Y-97103575D01*
X113985601Y-97290000D01*
X113967240Y-97476425D01*
X113967239Y-97476428D01*
X113967239Y-97476429D01*
X113920114Y-97631781D01*
X113912859Y-97655695D01*
X113824552Y-97820905D01*
X113705712Y-97965712D01*
X113560905Y-98084552D01*
X113560903Y-98084553D01*
X113395693Y-98172860D01*
X113216429Y-98227239D01*
X113216428Y-98227239D01*
X113216425Y-98227240D01*
X113076718Y-98241000D01*
X112983282Y-98241000D01*
X112843575Y-98227240D01*
X112843572Y-98227239D01*
X112843571Y-98227239D01*
X112664307Y-98172860D01*
X112499097Y-98084553D01*
X112499095Y-98084552D01*
X112354288Y-97965712D01*
X112235448Y-97820905D01*
X112147141Y-97655695D01*
X112139887Y-97631781D01*
X112092761Y-97476429D01*
X112092761Y-97476428D01*
X112092760Y-97476425D01*
X112074399Y-97290000D01*
X112092760Y-97103575D01*
X112147141Y-96924305D01*
X112235448Y-96759095D01*
X112354288Y-96614288D01*
X112499095Y-96495448D01*
X112664305Y-96407141D01*
X112664307Y-96407140D01*
X112843571Y-96352761D01*
X112843572Y-96352761D01*
X112843575Y-96352760D01*
X112983282Y-96339000D01*
X113076718Y-96339000D01*
X113216425Y-96352760D01*
X113216425Y-96352760D01*
G37*
G36*
X115756425Y-96352760D02*
X115756428Y-96352761D01*
X115756429Y-96352761D01*
X115935693Y-96407140D01*
X115935695Y-96407141D01*
X116100905Y-96495448D01*
X116245712Y-96614288D01*
X116364552Y-96759095D01*
X116452859Y-96924305D01*
X116507240Y-97103575D01*
X116525601Y-97290000D01*
X116507240Y-97476425D01*
X116507239Y-97476428D01*
X116507239Y-97476429D01*
X116460114Y-97631781D01*
X116452859Y-97655695D01*
X116364552Y-97820905D01*
X116245712Y-97965712D01*
X116100905Y-98084552D01*
X116100903Y-98084553D01*
X115935693Y-98172860D01*
X115756429Y-98227239D01*
X115756428Y-98227239D01*
X115756425Y-98227240D01*
X115616718Y-98241000D01*
X115523282Y-98241000D01*
X115383575Y-98227240D01*
X115383572Y-98227239D01*
X115383571Y-98227239D01*
X115204307Y-98172860D01*
X115039097Y-98084553D01*
X115039095Y-98084552D01*
X114894288Y-97965712D01*
X114775448Y-97820905D01*
X114687141Y-97655695D01*
X114679887Y-97631781D01*
X114632761Y-97476429D01*
X114632761Y-97476428D01*
X114632760Y-97476425D01*
X114614399Y-97290000D01*
X114632760Y-97103575D01*
X114687141Y-96924305D01*
X114775448Y-96759095D01*
X114894288Y-96614288D01*
X115039095Y-96495448D01*
X115204305Y-96407141D01*
X115204307Y-96407140D01*
X115383571Y-96352761D01*
X115383572Y-96352761D01*
X115383575Y-96352760D01*
X115523282Y-96339000D01*
X115616718Y-96339000D01*
X115756425Y-96352760D01*
X115756425Y-96352760D01*
G37*
G36*
X105041000Y-96921000D02*
X103239000Y-96921000D01*
X103239000Y-95119000D01*
X105041000Y-95119000D01*
X105041000Y-96921000D01*
X105041000Y-96921000D01*
G37*
G36*
X104402812Y-92613624D02*
X104566784Y-92681544D01*
X104714354Y-92780147D01*
X104839853Y-92905646D01*
X104938456Y-93053216D01*
X105006376Y-93217188D01*
X105041000Y-93391259D01*
X105041000Y-93568741D01*
X105006376Y-93742812D01*
X104938456Y-93906784D01*
X104839853Y-94054354D01*
X104714354Y-94179853D01*
X104566784Y-94278456D01*
X104402812Y-94346376D01*
X104228741Y-94381000D01*
X104051259Y-94381000D01*
X103877188Y-94346376D01*
X103713216Y-94278456D01*
X103565646Y-94179853D01*
X103440147Y-94054354D01*
X103341544Y-93906784D01*
X103273624Y-93742812D01*
X103239000Y-93568741D01*
X103239000Y-93391259D01*
X103273624Y-93217188D01*
X103341544Y-93053216D01*
X103440147Y-92905646D01*
X103565646Y-92780147D01*
X103713216Y-92681544D01*
X103877188Y-92613624D01*
X104051259Y-92579000D01*
X104228741Y-92579000D01*
X104402812Y-92613624D01*
X104402812Y-92613624D01*
G37*
G36*
X113216425Y-91272760D02*
X113216428Y-91272761D01*
X113216429Y-91272761D01*
X113395693Y-91327140D01*
X113395695Y-91327141D01*
X113560905Y-91415448D01*
X113705712Y-91534288D01*
X113824552Y-91679095D01*
X113912859Y-91844305D01*
X113967240Y-92023575D01*
X113985601Y-92210000D01*
X113967240Y-92396425D01*
X113912859Y-92575695D01*
X113824552Y-92740905D01*
X113705712Y-92885712D01*
X113560905Y-93004552D01*
X113560903Y-93004553D01*
X113395693Y-93092860D01*
X113216429Y-93147239D01*
X113216428Y-93147239D01*
X113216425Y-93147240D01*
X113076718Y-93161000D01*
X112983282Y-93161000D01*
X112843575Y-93147240D01*
X112843572Y-93147239D01*
X112843571Y-93147239D01*
X112664307Y-93092860D01*
X112499097Y-93004553D01*
X112499095Y-93004552D01*
X112354288Y-92885712D01*
X112235448Y-92740905D01*
X112147141Y-92575695D01*
X112092760Y-92396425D01*
X112074399Y-92210000D01*
X112092760Y-92023575D01*
X112147141Y-91844305D01*
X112235448Y-91679095D01*
X112354288Y-91534288D01*
X112499095Y-91415448D01*
X112664305Y-91327141D01*
X112664307Y-91327140D01*
X112843571Y-91272761D01*
X112843572Y-91272761D01*
X112843575Y-91272760D01*
X112983282Y-91259000D01*
X113076718Y-91259000D01*
X113216425Y-91272760D01*
X113216425Y-91272760D01*
G37*
G36*
X111441000Y-93161000D02*
X109539000Y-93161000D01*
X109539000Y-91259000D01*
X111441000Y-91259000D01*
X111441000Y-93161000D01*
X111441000Y-93161000D01*
G37*
G36*
X115756425Y-91272760D02*
X115756428Y-91272761D01*
X115756429Y-91272761D01*
X115935693Y-91327140D01*
X115935695Y-91327141D01*
X116100905Y-91415448D01*
X116245712Y-91534288D01*
X116364552Y-91679095D01*
X116452859Y-91844305D01*
X116507240Y-92023575D01*
X116525601Y-92210000D01*
X116507240Y-92396425D01*
X116452859Y-92575695D01*
X116364552Y-92740905D01*
X116245712Y-92885712D01*
X116100905Y-93004552D01*
X116100903Y-93004553D01*
X115935693Y-93092860D01*
X115756429Y-93147239D01*
X115756428Y-93147239D01*
X115756425Y-93147240D01*
X115616718Y-93161000D01*
X115523282Y-93161000D01*
X115383575Y-93147240D01*
X115383572Y-93147239D01*
X115383571Y-93147239D01*
X115204307Y-93092860D01*
X115039097Y-93004553D01*
X115039095Y-93004552D01*
X114894288Y-92885712D01*
X114775448Y-92740905D01*
X114687141Y-92575695D01*
X114632760Y-92396425D01*
X114614399Y-92210000D01*
X114632760Y-92023575D01*
X114687141Y-91844305D01*
X114775448Y-91679095D01*
X114894288Y-91534288D01*
X115039095Y-91415448D01*
X115204305Y-91327141D01*
X115204307Y-91327140D01*
X115383571Y-91272761D01*
X115383572Y-91272761D01*
X115383575Y-91272760D01*
X115523282Y-91259000D01*
X115616718Y-91259000D01*
X115756425Y-91272760D01*
X115756425Y-91272760D01*
G37*
G36*
X105041000Y-91841000D02*
X103239000Y-91841000D01*
X103239000Y-90039000D01*
X105041000Y-90039000D01*
X105041000Y-91841000D01*
X105041000Y-91841000D01*
G37*
G36*
X128000080Y-84985910D02*
X128000083Y-84985911D01*
X128480949Y-85131780D01*
X128924117Y-85368658D01*
X129312557Y-85687443D01*
X129631342Y-86075883D01*
X129868220Y-86519051D01*
X129986936Y-86910406D01*
X130014090Y-86999920D01*
X130063343Y-87500000D01*
X130014090Y-88000080D01*
X130010213Y-88012860D01*
X129868220Y-88480949D01*
X129631342Y-88924117D01*
X129312557Y-89312557D01*
X128924117Y-89631342D01*
X128480949Y-89868220D01*
X128089594Y-89986936D01*
X128000080Y-90014090D01*
X127625324Y-90051000D01*
X127374676Y-90051000D01*
X126999920Y-90014090D01*
X126910406Y-89986936D01*
X126519051Y-89868220D01*
X126075883Y-89631342D01*
X125687443Y-89312557D01*
X125368658Y-88924117D01*
X125131780Y-88480949D01*
X124989787Y-88012860D01*
X124985910Y-88000080D01*
X124936657Y-87500000D01*
X124985910Y-86999920D01*
X125013064Y-86910406D01*
X125131780Y-86519051D01*
X125368658Y-86075883D01*
X125687443Y-85687443D01*
X126075883Y-85368658D01*
X126519051Y-85131780D01*
X126999917Y-84985911D01*
X126999920Y-84985910D01*
X127374676Y-84949000D01*
X127625324Y-84949000D01*
X128000080Y-84985910D01*
X128000080Y-84985910D01*
G37*
G36*
X190500080Y-84985910D02*
X190500083Y-84985911D01*
X190980949Y-85131780D01*
X191424117Y-85368658D01*
X191812557Y-85687443D01*
X192131342Y-86075883D01*
X192368220Y-86519051D01*
X192486936Y-86910406D01*
X192514090Y-86999920D01*
X192563343Y-87500000D01*
X192514090Y-88000080D01*
X192510213Y-88012860D01*
X192368220Y-88480949D01*
X192131342Y-88924117D01*
X191812557Y-89312557D01*
X191424117Y-89631342D01*
X190980949Y-89868220D01*
X190589594Y-89986936D01*
X190500080Y-90014090D01*
X190125324Y-90051000D01*
X189874676Y-90051000D01*
X189499920Y-90014090D01*
X189410406Y-89986936D01*
X189019051Y-89868220D01*
X188575883Y-89631342D01*
X188187443Y-89312557D01*
X187868658Y-88924117D01*
X187631780Y-88480949D01*
X187489787Y-88012860D01*
X187485910Y-88000080D01*
X187436657Y-87500000D01*
X187485910Y-86999920D01*
X187513064Y-86910406D01*
X187631780Y-86519051D01*
X187868658Y-86075883D01*
X188187443Y-85687443D01*
X188575883Y-85368658D01*
X189019051Y-85131780D01*
X189499917Y-84985911D01*
X189499920Y-84985910D01*
X189874676Y-84949000D01*
X190125324Y-84949000D01*
X190500080Y-84985910D01*
X190500080Y-84985910D01*
G37*
G36*
X104402812Y-87533624D02*
X104566784Y-87601544D01*
X104714354Y-87700147D01*
X104839853Y-87825646D01*
X104938456Y-87973216D01*
X105006376Y-88137188D01*
X105041000Y-88311259D01*
X105041000Y-88488741D01*
X105006376Y-88662812D01*
X104938456Y-88826784D01*
X104839853Y-88974354D01*
X104714354Y-89099853D01*
X104566784Y-89198456D01*
X104402812Y-89266376D01*
X104228741Y-89301000D01*
X104051259Y-89301000D01*
X103877188Y-89266376D01*
X103713216Y-89198456D01*
X103565646Y-89099853D01*
X103440147Y-88974354D01*
X103341544Y-88826784D01*
X103273624Y-88662812D01*
X103239000Y-88488741D01*
X103239000Y-88311259D01*
X103273624Y-88137188D01*
X103341544Y-87973216D01*
X103440147Y-87825646D01*
X103565646Y-87700147D01*
X103713216Y-87601544D01*
X103877188Y-87533624D01*
X104051259Y-87499000D01*
X104228741Y-87499000D01*
X104402812Y-87533624D01*
X104402812Y-87533624D01*
G37*
G36*
X115756425Y-86192760D02*
X115756428Y-86192761D01*
X115756429Y-86192761D01*
X115935693Y-86247140D01*
X115935695Y-86247141D01*
X116100905Y-86335448D01*
X116245712Y-86454288D01*
X116364552Y-86599095D01*
X116452859Y-86764305D01*
X116507240Y-86943575D01*
X116525601Y-87130000D01*
X116507240Y-87316425D01*
X116452859Y-87495695D01*
X116364552Y-87660905D01*
X116245712Y-87805712D01*
X116100905Y-87924552D01*
X116100903Y-87924553D01*
X115935693Y-88012860D01*
X115756429Y-88067239D01*
X115756428Y-88067239D01*
X115756425Y-88067240D01*
X115616718Y-88081000D01*
X115523282Y-88081000D01*
X115383575Y-88067240D01*
X115383572Y-88067239D01*
X115383571Y-88067239D01*
X115204307Y-88012860D01*
X115039097Y-87924553D01*
X115039095Y-87924552D01*
X114894288Y-87805712D01*
X114775448Y-87660905D01*
X114687141Y-87495695D01*
X114632760Y-87316425D01*
X114614399Y-87130000D01*
X114632760Y-86943575D01*
X114687141Y-86764305D01*
X114775448Y-86599095D01*
X114894288Y-86454288D01*
X115039095Y-86335448D01*
X115204305Y-86247141D01*
X115204307Y-86247140D01*
X115383571Y-86192761D01*
X115383572Y-86192761D01*
X115383575Y-86192760D01*
X115523282Y-86179000D01*
X115616718Y-86179000D01*
X115756425Y-86192760D01*
X115756425Y-86192760D01*
G37*
G36*
X113216425Y-86192760D02*
X113216428Y-86192761D01*
X113216429Y-86192761D01*
X113395693Y-86247140D01*
X113395695Y-86247141D01*
X113560905Y-86335448D01*
X113705712Y-86454288D01*
X113824552Y-86599095D01*
X113912859Y-86764305D01*
X113967240Y-86943575D01*
X113985601Y-87130000D01*
X113967240Y-87316425D01*
X113912859Y-87495695D01*
X113824552Y-87660905D01*
X113705712Y-87805712D01*
X113560905Y-87924552D01*
X113560903Y-87924553D01*
X113395693Y-88012860D01*
X113216429Y-88067239D01*
X113216428Y-88067239D01*
X113216425Y-88067240D01*
X113076718Y-88081000D01*
X112983282Y-88081000D01*
X112843575Y-88067240D01*
X112843572Y-88067239D01*
X112843571Y-88067239D01*
X112664307Y-88012860D01*
X112499097Y-87924553D01*
X112499095Y-87924552D01*
X112354288Y-87805712D01*
X112235448Y-87660905D01*
X112147141Y-87495695D01*
X112092760Y-87316425D01*
X112074399Y-87130000D01*
X112092760Y-86943575D01*
X112147141Y-86764305D01*
X112235448Y-86599095D01*
X112354288Y-86454288D01*
X112499095Y-86335448D01*
X112664305Y-86247141D01*
X112664307Y-86247140D01*
X112843571Y-86192761D01*
X112843572Y-86192761D01*
X112843575Y-86192760D01*
X112983282Y-86179000D01*
X113076718Y-86179000D01*
X113216425Y-86192760D01*
X113216425Y-86192760D01*
G37*
G36*
X111441000Y-88081000D02*
X109539000Y-88081000D01*
X109539000Y-86179000D01*
X111441000Y-86179000D01*
X111441000Y-88081000D01*
X111441000Y-88081000D01*
G37*
G36*
X105041000Y-86761000D02*
X103239000Y-86761000D01*
X103239000Y-84959000D01*
X105041000Y-84959000D01*
X105041000Y-86761000D01*
X105041000Y-86761000D01*
G37*
G36*
X104402812Y-82453624D02*
X104566784Y-82521544D01*
X104714354Y-82620147D01*
X104839853Y-82745646D01*
X104938456Y-82893216D01*
X105006376Y-83057188D01*
X105041000Y-83231259D01*
X105041000Y-83408741D01*
X105006376Y-83582812D01*
X104938456Y-83746784D01*
X104839853Y-83894354D01*
X104714354Y-84019853D01*
X104566784Y-84118456D01*
X104402812Y-84186376D01*
X104228741Y-84221000D01*
X104051259Y-84221000D01*
X103877188Y-84186376D01*
X103713216Y-84118456D01*
X103565646Y-84019853D01*
X103440147Y-83894354D01*
X103341544Y-83746784D01*
X103273624Y-83582812D01*
X103239000Y-83408741D01*
X103239000Y-83231259D01*
X103273624Y-83057188D01*
X103341544Y-82893216D01*
X103440147Y-82745646D01*
X103565646Y-82620147D01*
X103713216Y-82521544D01*
X103877188Y-82453624D01*
X104051259Y-82419000D01*
X104228741Y-82419000D01*
X104402812Y-82453624D01*
X104402812Y-82453624D01*
G37*
G36*
X111441000Y-83001000D02*
X109539000Y-83001000D01*
X109539000Y-81099000D01*
X111441000Y-81099000D01*
X111441000Y-83001000D01*
X111441000Y-83001000D01*
G37*
G36*
X115756425Y-81112760D02*
X115756428Y-81112761D01*
X115756429Y-81112761D01*
X115935693Y-81167140D01*
X115935695Y-81167141D01*
X116100905Y-81255448D01*
X116245712Y-81374288D01*
X116364552Y-81519095D01*
X116452859Y-81684305D01*
X116507240Y-81863575D01*
X116525601Y-82050000D01*
X116507240Y-82236425D01*
X116452859Y-82415695D01*
X116364552Y-82580905D01*
X116245712Y-82725712D01*
X116100905Y-82844552D01*
X116100903Y-82844553D01*
X115935693Y-82932860D01*
X115756429Y-82987239D01*
X115756428Y-82987239D01*
X115756425Y-82987240D01*
X115616718Y-83001000D01*
X115523282Y-83001000D01*
X115383575Y-82987240D01*
X115383572Y-82987239D01*
X115383571Y-82987239D01*
X115204307Y-82932860D01*
X115039097Y-82844553D01*
X115039095Y-82844552D01*
X114894288Y-82725712D01*
X114775448Y-82580905D01*
X114687141Y-82415695D01*
X114632760Y-82236425D01*
X114614399Y-82050000D01*
X114632760Y-81863575D01*
X114687141Y-81684305D01*
X114775448Y-81519095D01*
X114894288Y-81374288D01*
X115039095Y-81255448D01*
X115204305Y-81167141D01*
X115204307Y-81167140D01*
X115383571Y-81112761D01*
X115383572Y-81112761D01*
X115383575Y-81112760D01*
X115523282Y-81099000D01*
X115616718Y-81099000D01*
X115756425Y-81112760D01*
X115756425Y-81112760D01*
G37*
G36*
X113216425Y-81112760D02*
X113216428Y-81112761D01*
X113216429Y-81112761D01*
X113395693Y-81167140D01*
X113395695Y-81167141D01*
X113560905Y-81255448D01*
X113705712Y-81374288D01*
X113824552Y-81519095D01*
X113912859Y-81684305D01*
X113967240Y-81863575D01*
X113985601Y-82050000D01*
X113967240Y-82236425D01*
X113912859Y-82415695D01*
X113824552Y-82580905D01*
X113705712Y-82725712D01*
X113560905Y-82844552D01*
X113560903Y-82844553D01*
X113395693Y-82932860D01*
X113216429Y-82987239D01*
X113216428Y-82987239D01*
X113216425Y-82987240D01*
X113076718Y-83001000D01*
X112983282Y-83001000D01*
X112843575Y-82987240D01*
X112843572Y-82987239D01*
X112843571Y-82987239D01*
X112664307Y-82932860D01*
X112499097Y-82844553D01*
X112499095Y-82844552D01*
X112354288Y-82725712D01*
X112235448Y-82580905D01*
X112147141Y-82415695D01*
X112092760Y-82236425D01*
X112074399Y-82050000D01*
X112092760Y-81863575D01*
X112147141Y-81684305D01*
X112235448Y-81519095D01*
X112354288Y-81374288D01*
X112499095Y-81255448D01*
X112664305Y-81167141D01*
X112664307Y-81167140D01*
X112843571Y-81112761D01*
X112843572Y-81112761D01*
X112843575Y-81112760D01*
X112983282Y-81099000D01*
X113076718Y-81099000D01*
X113216425Y-81112760D01*
X113216425Y-81112760D01*
G37*
G36*
X105041000Y-81681000D02*
X103239000Y-81681000D01*
X103239000Y-79879000D01*
X105041000Y-79879000D01*
X105041000Y-81681000D01*
X105041000Y-81681000D01*
G37*
G36*
X104402812Y-77373624D02*
X104566784Y-77441544D01*
X104714354Y-77540147D01*
X104839853Y-77665646D01*
X104938456Y-77813216D01*
X105006376Y-77977188D01*
X105041000Y-78151259D01*
X105041000Y-78328741D01*
X105006376Y-78502812D01*
X104938456Y-78666784D01*
X104839853Y-78814354D01*
X104714354Y-78939853D01*
X104566784Y-79038456D01*
X104402812Y-79106376D01*
X104228741Y-79141000D01*
X104051259Y-79141000D01*
X103877188Y-79106376D01*
X103713216Y-79038456D01*
X103565646Y-78939853D01*
X103440147Y-78814354D01*
X103341544Y-78666784D01*
X103273624Y-78502812D01*
X103239000Y-78328741D01*
X103239000Y-78151259D01*
X103273624Y-77977188D01*
X103341544Y-77813216D01*
X103440147Y-77665646D01*
X103565646Y-77540147D01*
X103713216Y-77441544D01*
X103877188Y-77373624D01*
X104051259Y-77339000D01*
X104228741Y-77339000D01*
X104402812Y-77373624D01*
X104402812Y-77373624D01*
G37*
G36*
X115756425Y-76032760D02*
X115756428Y-76032761D01*
X115756429Y-76032761D01*
X115935693Y-76087140D01*
X115935695Y-76087141D01*
X116100905Y-76175448D01*
X116245712Y-76294288D01*
X116364552Y-76439095D01*
X116452859Y-76604305D01*
X116507240Y-76783575D01*
X116525601Y-76970000D01*
X116507240Y-77156425D01*
X116452859Y-77335695D01*
X116364552Y-77500905D01*
X116245712Y-77645712D01*
X116100905Y-77764552D01*
X116100903Y-77764553D01*
X115935693Y-77852860D01*
X115756429Y-77907239D01*
X115756428Y-77907239D01*
X115756425Y-77907240D01*
X115616718Y-77921000D01*
X115523282Y-77921000D01*
X115383575Y-77907240D01*
X115383572Y-77907239D01*
X115383571Y-77907239D01*
X115204307Y-77852860D01*
X115039097Y-77764553D01*
X115039095Y-77764552D01*
X114894288Y-77645712D01*
X114775448Y-77500905D01*
X114687141Y-77335695D01*
X114632760Y-77156425D01*
X114614399Y-76970000D01*
X114632760Y-76783575D01*
X114687141Y-76604305D01*
X114775448Y-76439095D01*
X114894288Y-76294288D01*
X115039095Y-76175448D01*
X115204305Y-76087141D01*
X115204307Y-76087140D01*
X115383571Y-76032761D01*
X115383572Y-76032761D01*
X115383575Y-76032760D01*
X115523282Y-76019000D01*
X115616718Y-76019000D01*
X115756425Y-76032760D01*
X115756425Y-76032760D01*
G37*
G36*
X111441000Y-77921000D02*
X109539000Y-77921000D01*
X109539000Y-76019000D01*
X111441000Y-76019000D01*
X111441000Y-77921000D01*
X111441000Y-77921000D01*
G37*
G36*
X113216425Y-76032760D02*
X113216428Y-76032761D01*
X113216429Y-76032761D01*
X113395693Y-76087140D01*
X113395695Y-76087141D01*
X113560905Y-76175448D01*
X113705712Y-76294288D01*
X113824552Y-76439095D01*
X113912859Y-76604305D01*
X113967240Y-76783575D01*
X113985601Y-76970000D01*
X113967240Y-77156425D01*
X113912859Y-77335695D01*
X113824552Y-77500905D01*
X113705712Y-77645712D01*
X113560905Y-77764552D01*
X113560903Y-77764553D01*
X113395693Y-77852860D01*
X113216429Y-77907239D01*
X113216428Y-77907239D01*
X113216425Y-77907240D01*
X113076718Y-77921000D01*
X112983282Y-77921000D01*
X112843575Y-77907240D01*
X112843572Y-77907239D01*
X112843571Y-77907239D01*
X112664307Y-77852860D01*
X112499097Y-77764553D01*
X112499095Y-77764552D01*
X112354288Y-77645712D01*
X112235448Y-77500905D01*
X112147141Y-77335695D01*
X112092760Y-77156425D01*
X112074399Y-76970000D01*
X112092760Y-76783575D01*
X112147141Y-76604305D01*
X112235448Y-76439095D01*
X112354288Y-76294288D01*
X112499095Y-76175448D01*
X112664305Y-76087141D01*
X112664307Y-76087140D01*
X112843571Y-76032761D01*
X112843572Y-76032761D01*
X112843575Y-76032760D01*
X112983282Y-76019000D01*
X113076718Y-76019000D01*
X113216425Y-76032760D01*
X113216425Y-76032760D01*
G37*
G36*
X105041000Y-76601000D02*
X103239000Y-76601000D01*
X103239000Y-74799000D01*
X105041000Y-74799000D01*
X105041000Y-76601000D01*
X105041000Y-76601000D01*
G37*
G36*
X194744096Y-65047033D02*
X194744098Y-65047034D01*
X194744099Y-65047034D01*
X195208352Y-65239333D01*
X195624284Y-65517250D01*
X195626171Y-65518511D01*
X195981489Y-65873829D01*
X195981491Y-65873832D01*
X196260667Y-66291648D01*
X196452966Y-66755901D01*
X196551000Y-67248748D01*
X196551000Y-67751252D01*
X196452966Y-68244099D01*
X196260667Y-68708352D01*
X195982750Y-69124284D01*
X195981489Y-69126171D01*
X195626171Y-69481489D01*
X195626168Y-69481491D01*
X195208352Y-69760667D01*
X194744099Y-69952966D01*
X194744098Y-69952966D01*
X194744096Y-69952967D01*
X194251253Y-70051000D01*
X193748747Y-70051000D01*
X193255904Y-69952967D01*
X193255902Y-69952966D01*
X193255901Y-69952966D01*
X192791648Y-69760667D01*
X192373832Y-69481491D01*
X192373829Y-69481489D01*
X192018511Y-69126171D01*
X192017250Y-69124284D01*
X191739333Y-68708352D01*
X191547034Y-68244099D01*
X191449000Y-67751252D01*
X191449000Y-67248748D01*
X191547034Y-66755901D01*
X191739333Y-66291648D01*
X192018509Y-65873832D01*
X192018511Y-65873829D01*
X192373829Y-65518511D01*
X192375716Y-65517250D01*
X192791648Y-65239333D01*
X193255901Y-65047034D01*
X193255902Y-65047034D01*
X193255904Y-65047033D01*
X193748747Y-64949000D01*
X194251253Y-64949000D01*
X194744096Y-65047033D01*
X194744096Y-65047033D01*
G37*
G36*
X106744096Y-65047033D02*
X106744098Y-65047034D01*
X106744099Y-65047034D01*
X107208352Y-65239333D01*
X107624284Y-65517250D01*
X107626171Y-65518511D01*
X107981489Y-65873829D01*
X107981491Y-65873832D01*
X108260667Y-66291648D01*
X108452966Y-66755901D01*
X108551000Y-67248748D01*
X108551000Y-67751252D01*
X108452966Y-68244099D01*
X108260667Y-68708352D01*
X107982750Y-69124284D01*
X107981489Y-69126171D01*
X107626171Y-69481489D01*
X107626168Y-69481491D01*
X107208352Y-69760667D01*
X106744099Y-69952966D01*
X106744098Y-69952966D01*
X106744096Y-69952967D01*
X106251253Y-70051000D01*
X105748747Y-70051000D01*
X105255904Y-69952967D01*
X105255902Y-69952966D01*
X105255901Y-69952966D01*
X104791648Y-69760667D01*
X104373832Y-69481491D01*
X104373829Y-69481489D01*
X104018511Y-69126171D01*
X104017250Y-69124284D01*
X103739333Y-68708352D01*
X103547034Y-68244099D01*
X103449000Y-67751252D01*
X103449000Y-67248748D01*
X103547034Y-66755901D01*
X103739333Y-66291648D01*
X104018509Y-65873832D01*
X104018511Y-65873829D01*
X104373829Y-65518511D01*
X104375716Y-65517250D01*
X104791648Y-65239333D01*
X105255901Y-65047034D01*
X105255902Y-65047034D01*
X105255904Y-65047033D01*
X105748747Y-64949000D01*
X106251253Y-64949000D01*
X106744096Y-65047033D01*
X106744096Y-65047033D01*
G37*
G36*
X136806565Y-63909389D02*
X136997834Y-63988615D01*
X137169976Y-64103637D01*
X137316363Y-64250024D01*
X137431385Y-64422166D01*
X137510611Y-64613435D01*
X137551000Y-64816484D01*
X137551000Y-65023516D01*
X137510611Y-65226565D01*
X137431385Y-65417834D01*
X137316363Y-65589976D01*
X137169976Y-65736363D01*
X136997834Y-65851385D01*
X136806565Y-65930611D01*
X136603516Y-65971000D01*
X136396484Y-65971000D01*
X136193435Y-65930611D01*
X136002166Y-65851385D01*
X135830024Y-65736363D01*
X135683637Y-65589976D01*
X135568615Y-65417834D01*
X135489389Y-65226565D01*
X135449000Y-65023516D01*
X135449000Y-64816484D01*
X135489389Y-64613435D01*
X135568615Y-64422166D01*
X135683637Y-64250024D01*
X135830024Y-64103637D01*
X136002166Y-63988615D01*
X136193435Y-63909389D01*
X136396484Y-63869000D01*
X136603516Y-63869000D01*
X136806565Y-63909389D01*
X136806565Y-63909389D01*
G37*
G36*
X117806565Y-63909389D02*
X117997834Y-63988615D01*
X118169976Y-64103637D01*
X118316363Y-64250024D01*
X118431385Y-64422166D01*
X118510611Y-64613435D01*
X118551000Y-64816484D01*
X118551000Y-65023516D01*
X118510611Y-65226565D01*
X118431385Y-65417834D01*
X118316363Y-65589976D01*
X118169976Y-65736363D01*
X117997834Y-65851385D01*
X117806565Y-65930611D01*
X117603516Y-65971000D01*
X117396484Y-65971000D01*
X117193435Y-65930611D01*
X117002166Y-65851385D01*
X116830024Y-65736363D01*
X116683637Y-65589976D01*
X116568615Y-65417834D01*
X116489389Y-65226565D01*
X116449000Y-65023516D01*
X116449000Y-64816484D01*
X116489389Y-64613435D01*
X116568615Y-64422166D01*
X116683637Y-64250024D01*
X116830024Y-64103637D01*
X117002166Y-63988615D01*
X117193435Y-63909389D01*
X117396484Y-63869000D01*
X117603516Y-63869000D01*
X117806565Y-63909389D01*
X117806565Y-63909389D01*
G37*
G36*
X136806565Y-61409389D02*
X136997834Y-61488615D01*
X137169976Y-61603637D01*
X137316363Y-61750024D01*
X137431385Y-61922166D01*
X137510611Y-62113435D01*
X137551000Y-62316484D01*
X137551000Y-62523516D01*
X137510611Y-62726565D01*
X137431385Y-62917834D01*
X137316363Y-63089976D01*
X137169976Y-63236363D01*
X136997834Y-63351385D01*
X136806565Y-63430611D01*
X136603516Y-63471000D01*
X136396484Y-63471000D01*
X136193435Y-63430611D01*
X136002166Y-63351385D01*
X135830024Y-63236363D01*
X135683637Y-63089976D01*
X135568615Y-62917834D01*
X135489389Y-62726565D01*
X135449000Y-62523516D01*
X135449000Y-62316484D01*
X135489389Y-62113435D01*
X135568615Y-61922166D01*
X135683637Y-61750024D01*
X135830024Y-61603637D01*
X136002166Y-61488615D01*
X136193435Y-61409389D01*
X136396484Y-61369000D01*
X136603516Y-61369000D01*
X136806565Y-61409389D01*
X136806565Y-61409389D01*
G37*
G36*
X117806565Y-61409389D02*
X117997834Y-61488615D01*
X118169976Y-61603637D01*
X118316363Y-61750024D01*
X118431385Y-61922166D01*
X118510611Y-62113435D01*
X118551000Y-62316484D01*
X118551000Y-62523516D01*
X118510611Y-62726565D01*
X118431385Y-62917834D01*
X118316363Y-63089976D01*
X118169976Y-63236363D01*
X117997834Y-63351385D01*
X117806565Y-63430611D01*
X117603516Y-63471000D01*
X117396484Y-63471000D01*
X117193435Y-63430611D01*
X117002166Y-63351385D01*
X116830024Y-63236363D01*
X116683637Y-63089976D01*
X116568615Y-62917834D01*
X116489389Y-62726565D01*
X116449000Y-62523516D01*
X116449000Y-62316484D01*
X116489389Y-62113435D01*
X116568615Y-61922166D01*
X116683637Y-61750024D01*
X116830024Y-61603637D01*
X117002166Y-61488615D01*
X117193435Y-61409389D01*
X117396484Y-61369000D01*
X117603516Y-61369000D01*
X117806565Y-61409389D01*
X117806565Y-61409389D01*
G37*
G36*
X192671000Y-63131000D02*
X190869000Y-63131000D01*
X190869000Y-61329000D01*
X192671000Y-61329000D01*
X192671000Y-63131000D01*
X192671000Y-63131000D01*
G37*
G36*
X196481000Y-63131000D02*
X194679000Y-63131000D01*
X194679000Y-61329000D01*
X196481000Y-61329000D01*
X196481000Y-63131000D01*
X196481000Y-63131000D01*
G37*
G36*
X195690442Y-58795518D02*
X195756627Y-58802037D01*
X195869853Y-58836384D01*
X195926467Y-58853557D01*
X196065087Y-58927652D01*
X196082991Y-58937222D01*
X196118729Y-58966552D01*
X196220186Y-59049814D01*
X196303448Y-59151271D01*
X196332778Y-59187009D01*
X196332779Y-59187011D01*
X196416443Y-59343533D01*
X196416443Y-59343534D01*
X196467963Y-59513373D01*
X196485359Y-59690000D01*
X196467963Y-59866627D01*
X196433616Y-59979853D01*
X196416443Y-60036467D01*
X196342348Y-60175087D01*
X196332778Y-60192991D01*
X196303448Y-60228729D01*
X196220186Y-60330186D01*
X196118729Y-60413448D01*
X196082991Y-60442778D01*
X196082989Y-60442779D01*
X195926467Y-60526443D01*
X195869853Y-60543616D01*
X195756627Y-60577963D01*
X195690443Y-60584481D01*
X195624260Y-60591000D01*
X195535740Y-60591000D01*
X195469557Y-60584481D01*
X195403373Y-60577963D01*
X195290147Y-60543616D01*
X195233533Y-60526443D01*
X195077011Y-60442779D01*
X195077009Y-60442778D01*
X195041271Y-60413448D01*
X194939814Y-60330186D01*
X194856552Y-60228729D01*
X194827222Y-60192991D01*
X194817652Y-60175087D01*
X194743557Y-60036467D01*
X194726384Y-59979853D01*
X194692037Y-59866627D01*
X194674641Y-59690000D01*
X194692037Y-59513373D01*
X194743557Y-59343534D01*
X194743557Y-59343533D01*
X194827221Y-59187011D01*
X194827222Y-59187009D01*
X194856552Y-59151271D01*
X194939814Y-59049814D01*
X195041271Y-58966552D01*
X195077009Y-58937222D01*
X195094913Y-58927652D01*
X195233533Y-58853557D01*
X195290147Y-58836384D01*
X195403373Y-58802037D01*
X195469558Y-58795518D01*
X195535740Y-58789000D01*
X195624260Y-58789000D01*
X195690442Y-58795518D01*
X195690442Y-58795518D01*
G37*
G36*
X191880442Y-58795518D02*
X191946627Y-58802037D01*
X192059853Y-58836384D01*
X192116467Y-58853557D01*
X192255087Y-58927652D01*
X192272991Y-58937222D01*
X192308729Y-58966552D01*
X192410186Y-59049814D01*
X192493448Y-59151271D01*
X192522778Y-59187009D01*
X192522779Y-59187011D01*
X192606443Y-59343533D01*
X192606443Y-59343534D01*
X192657963Y-59513373D01*
X192675359Y-59690000D01*
X192657963Y-59866627D01*
X192623616Y-59979853D01*
X192606443Y-60036467D01*
X192532348Y-60175087D01*
X192522778Y-60192991D01*
X192493448Y-60228729D01*
X192410186Y-60330186D01*
X192308729Y-60413448D01*
X192272991Y-60442778D01*
X192272989Y-60442779D01*
X192116467Y-60526443D01*
X192059853Y-60543616D01*
X191946627Y-60577963D01*
X191880443Y-60584481D01*
X191814260Y-60591000D01*
X191725740Y-60591000D01*
X191659557Y-60584481D01*
X191593373Y-60577963D01*
X191480147Y-60543616D01*
X191423533Y-60526443D01*
X191267011Y-60442779D01*
X191267009Y-60442778D01*
X191231271Y-60413448D01*
X191129814Y-60330186D01*
X191046552Y-60228729D01*
X191017222Y-60192991D01*
X191007652Y-60175087D01*
X190933557Y-60036467D01*
X190916384Y-59979853D01*
X190882037Y-59866627D01*
X190864641Y-59690000D01*
X190882037Y-59513373D01*
X190933557Y-59343534D01*
X190933557Y-59343533D01*
X191017221Y-59187011D01*
X191017222Y-59187009D01*
X191046552Y-59151271D01*
X191129814Y-59049814D01*
X191231271Y-58966552D01*
X191267009Y-58937222D01*
X191284913Y-58927652D01*
X191423533Y-58853557D01*
X191480147Y-58836384D01*
X191593373Y-58802037D01*
X191659558Y-58795518D01*
X191725740Y-58789000D01*
X191814260Y-58789000D01*
X191880442Y-58795518D01*
X191880442Y-58795518D01*
G37*
G36*
X191880443Y-56255519D02*
X191946627Y-56262037D01*
X192059853Y-56296384D01*
X192116467Y-56313557D01*
X192255087Y-56387652D01*
X192272991Y-56397222D01*
X192308729Y-56426552D01*
X192410186Y-56509814D01*
X192493448Y-56611271D01*
X192522778Y-56647009D01*
X192522779Y-56647011D01*
X192606443Y-56803533D01*
X192606443Y-56803534D01*
X192657963Y-56973373D01*
X192675359Y-57150000D01*
X192657963Y-57326627D01*
X192623616Y-57439853D01*
X192606443Y-57496467D01*
X192532348Y-57635087D01*
X192522778Y-57652991D01*
X192493448Y-57688729D01*
X192410186Y-57790186D01*
X192308729Y-57873448D01*
X192272991Y-57902778D01*
X192272989Y-57902779D01*
X192116467Y-57986443D01*
X192059853Y-58003616D01*
X191946627Y-58037963D01*
X191880442Y-58044482D01*
X191814260Y-58051000D01*
X191725740Y-58051000D01*
X191659558Y-58044482D01*
X191593373Y-58037963D01*
X191480147Y-58003616D01*
X191423533Y-57986443D01*
X191267011Y-57902779D01*
X191267009Y-57902778D01*
X191231271Y-57873448D01*
X191129814Y-57790186D01*
X191046552Y-57688729D01*
X191017222Y-57652991D01*
X191007652Y-57635087D01*
X190933557Y-57496467D01*
X190916384Y-57439853D01*
X190882037Y-57326627D01*
X190864641Y-57150000D01*
X190882037Y-56973373D01*
X190933557Y-56803534D01*
X190933557Y-56803533D01*
X191017221Y-56647011D01*
X191017222Y-56647009D01*
X191046552Y-56611271D01*
X191129814Y-56509814D01*
X191231271Y-56426552D01*
X191267009Y-56397222D01*
X191284913Y-56387652D01*
X191423533Y-56313557D01*
X191480147Y-56296384D01*
X191593373Y-56262037D01*
X191659557Y-56255519D01*
X191725740Y-56249000D01*
X191814260Y-56249000D01*
X191880443Y-56255519D01*
X191880443Y-56255519D01*
G37*
G36*
X195690443Y-56255519D02*
X195756627Y-56262037D01*
X195869853Y-56296384D01*
X195926467Y-56313557D01*
X196065087Y-56387652D01*
X196082991Y-56397222D01*
X196118729Y-56426552D01*
X196220186Y-56509814D01*
X196303448Y-56611271D01*
X196332778Y-56647009D01*
X196332779Y-56647011D01*
X196416443Y-56803533D01*
X196416443Y-56803534D01*
X196467963Y-56973373D01*
X196485359Y-57150000D01*
X196467963Y-57326627D01*
X196433616Y-57439853D01*
X196416443Y-57496467D01*
X196342348Y-57635087D01*
X196332778Y-57652991D01*
X196303448Y-57688729D01*
X196220186Y-57790186D01*
X196118729Y-57873448D01*
X196082991Y-57902778D01*
X196082989Y-57902779D01*
X195926467Y-57986443D01*
X195869853Y-58003616D01*
X195756627Y-58037963D01*
X195690442Y-58044482D01*
X195624260Y-58051000D01*
X195535740Y-58051000D01*
X195469558Y-58044482D01*
X195403373Y-58037963D01*
X195290147Y-58003616D01*
X195233533Y-57986443D01*
X195077011Y-57902779D01*
X195077009Y-57902778D01*
X195041271Y-57873448D01*
X194939814Y-57790186D01*
X194856552Y-57688729D01*
X194827222Y-57652991D01*
X194817652Y-57635087D01*
X194743557Y-57496467D01*
X194726384Y-57439853D01*
X194692037Y-57326627D01*
X194674641Y-57150000D01*
X194692037Y-56973373D01*
X194743557Y-56803534D01*
X194743557Y-56803533D01*
X194827221Y-56647011D01*
X194827222Y-56647009D01*
X194856552Y-56611271D01*
X194939814Y-56509814D01*
X195041271Y-56426552D01*
X195077009Y-56397222D01*
X195094913Y-56387652D01*
X195233533Y-56313557D01*
X195290147Y-56296384D01*
X195403373Y-56262037D01*
X195469557Y-56255519D01*
X195535740Y-56249000D01*
X195624260Y-56249000D01*
X195690443Y-56255519D01*
X195690443Y-56255519D01*
G37*
G36*
X104885442Y-53715518D02*
X104951627Y-53722037D01*
X105064853Y-53756384D01*
X105121467Y-53773557D01*
X105251363Y-53842989D01*
X105277991Y-53857222D01*
X105313729Y-53886552D01*
X105415186Y-53969814D01*
X105498448Y-54071271D01*
X105527778Y-54107009D01*
X105527779Y-54107011D01*
X105611443Y-54263533D01*
X105611443Y-54263534D01*
X105662963Y-54433373D01*
X105680359Y-54610000D01*
X105662963Y-54786627D01*
X105628616Y-54899853D01*
X105611443Y-54956467D01*
X105540081Y-55089973D01*
X105527778Y-55112991D01*
X105498448Y-55148729D01*
X105415186Y-55250186D01*
X105313729Y-55333448D01*
X105277991Y-55362778D01*
X105277989Y-55362779D01*
X105121467Y-55446443D01*
X105064853Y-55463616D01*
X104951627Y-55497963D01*
X104885442Y-55504482D01*
X104819260Y-55511000D01*
X104730740Y-55511000D01*
X104664558Y-55504482D01*
X104598373Y-55497963D01*
X104485147Y-55463616D01*
X104428533Y-55446443D01*
X104272011Y-55362779D01*
X104272009Y-55362778D01*
X104236271Y-55333448D01*
X104134814Y-55250186D01*
X104051552Y-55148729D01*
X104022222Y-55112991D01*
X104009919Y-55089973D01*
X103938557Y-54956467D01*
X103921384Y-54899853D01*
X103887037Y-54786627D01*
X103869641Y-54610000D01*
X103887037Y-54433373D01*
X103938557Y-54263534D01*
X103938557Y-54263533D01*
X104022221Y-54107011D01*
X104022222Y-54107009D01*
X104051552Y-54071271D01*
X104134814Y-53969814D01*
X104236271Y-53886552D01*
X104272009Y-53857222D01*
X104298637Y-53842989D01*
X104428533Y-53773557D01*
X104485147Y-53756384D01*
X104598373Y-53722037D01*
X104664558Y-53715518D01*
X104730740Y-53709000D01*
X104819260Y-53709000D01*
X104885442Y-53715518D01*
X104885442Y-53715518D01*
G37*
G36*
X112505442Y-53715518D02*
X112571627Y-53722037D01*
X112684853Y-53756384D01*
X112741467Y-53773557D01*
X112871363Y-53842989D01*
X112897991Y-53857222D01*
X112933729Y-53886552D01*
X113035186Y-53969814D01*
X113118448Y-54071271D01*
X113147778Y-54107009D01*
X113147779Y-54107011D01*
X113231443Y-54263533D01*
X113231443Y-54263534D01*
X113282963Y-54433373D01*
X113300359Y-54610000D01*
X113282963Y-54786627D01*
X113248616Y-54899853D01*
X113231443Y-54956467D01*
X113160081Y-55089973D01*
X113147778Y-55112991D01*
X113118448Y-55148729D01*
X113035186Y-55250186D01*
X112933729Y-55333448D01*
X112897991Y-55362778D01*
X112897989Y-55362779D01*
X112741467Y-55446443D01*
X112684853Y-55463616D01*
X112571627Y-55497963D01*
X112505442Y-55504482D01*
X112439260Y-55511000D01*
X112350740Y-55511000D01*
X112284558Y-55504482D01*
X112218373Y-55497963D01*
X112105147Y-55463616D01*
X112048533Y-55446443D01*
X111892011Y-55362779D01*
X111892009Y-55362778D01*
X111856271Y-55333448D01*
X111754814Y-55250186D01*
X111671552Y-55148729D01*
X111642222Y-55112991D01*
X111629919Y-55089973D01*
X111558557Y-54956467D01*
X111541384Y-54899853D01*
X111507037Y-54786627D01*
X111489641Y-54610000D01*
X111507037Y-54433373D01*
X111558557Y-54263534D01*
X111558557Y-54263533D01*
X111642221Y-54107011D01*
X111642222Y-54107009D01*
X111671552Y-54071271D01*
X111754814Y-53969814D01*
X111856271Y-53886552D01*
X111892009Y-53857222D01*
X111918637Y-53842989D01*
X112048533Y-53773557D01*
X112105147Y-53756384D01*
X112218373Y-53722037D01*
X112284558Y-53715518D01*
X112350740Y-53709000D01*
X112439260Y-53709000D01*
X112505442Y-53715518D01*
X112505442Y-53715518D01*
G37*
G36*
X107425442Y-53715518D02*
X107491627Y-53722037D01*
X107604853Y-53756384D01*
X107661467Y-53773557D01*
X107791363Y-53842989D01*
X107817991Y-53857222D01*
X107853729Y-53886552D01*
X107955186Y-53969814D01*
X108038448Y-54071271D01*
X108067778Y-54107009D01*
X108067779Y-54107011D01*
X108151443Y-54263533D01*
X108151443Y-54263534D01*
X108202963Y-54433373D01*
X108220359Y-54610000D01*
X108202963Y-54786627D01*
X108168616Y-54899853D01*
X108151443Y-54956467D01*
X108080081Y-55089973D01*
X108067778Y-55112991D01*
X108038448Y-55148729D01*
X107955186Y-55250186D01*
X107853729Y-55333448D01*
X107817991Y-55362778D01*
X107817989Y-55362779D01*
X107661467Y-55446443D01*
X107604853Y-55463616D01*
X107491627Y-55497963D01*
X107425442Y-55504482D01*
X107359260Y-55511000D01*
X107270740Y-55511000D01*
X107204558Y-55504482D01*
X107138373Y-55497963D01*
X107025147Y-55463616D01*
X106968533Y-55446443D01*
X106812011Y-55362779D01*
X106812009Y-55362778D01*
X106776271Y-55333448D01*
X106674814Y-55250186D01*
X106591552Y-55148729D01*
X106562222Y-55112991D01*
X106549919Y-55089973D01*
X106478557Y-54956467D01*
X106461384Y-54899853D01*
X106427037Y-54786627D01*
X106409641Y-54610000D01*
X106427037Y-54433373D01*
X106478557Y-54263534D01*
X106478557Y-54263533D01*
X106562221Y-54107011D01*
X106562222Y-54107009D01*
X106591552Y-54071271D01*
X106674814Y-53969814D01*
X106776271Y-53886552D01*
X106812009Y-53857222D01*
X106838637Y-53842989D01*
X106968533Y-53773557D01*
X107025147Y-53756384D01*
X107138373Y-53722037D01*
X107204558Y-53715518D01*
X107270740Y-53709000D01*
X107359260Y-53709000D01*
X107425442Y-53715518D01*
X107425442Y-53715518D01*
G37*
G36*
X109965442Y-53715518D02*
X110031627Y-53722037D01*
X110144853Y-53756384D01*
X110201467Y-53773557D01*
X110331363Y-53842989D01*
X110357991Y-53857222D01*
X110393729Y-53886552D01*
X110495186Y-53969814D01*
X110578448Y-54071271D01*
X110607778Y-54107009D01*
X110607779Y-54107011D01*
X110691443Y-54263533D01*
X110691443Y-54263534D01*
X110742963Y-54433373D01*
X110760359Y-54610000D01*
X110742963Y-54786627D01*
X110708616Y-54899853D01*
X110691443Y-54956467D01*
X110620081Y-55089973D01*
X110607778Y-55112991D01*
X110578448Y-55148729D01*
X110495186Y-55250186D01*
X110393729Y-55333448D01*
X110357991Y-55362778D01*
X110357989Y-55362779D01*
X110201467Y-55446443D01*
X110144853Y-55463616D01*
X110031627Y-55497963D01*
X109965442Y-55504482D01*
X109899260Y-55511000D01*
X109810740Y-55511000D01*
X109744558Y-55504482D01*
X109678373Y-55497963D01*
X109565147Y-55463616D01*
X109508533Y-55446443D01*
X109352011Y-55362779D01*
X109352009Y-55362778D01*
X109316271Y-55333448D01*
X109214814Y-55250186D01*
X109131552Y-55148729D01*
X109102222Y-55112991D01*
X109089919Y-55089973D01*
X109018557Y-54956467D01*
X109001384Y-54899853D01*
X108967037Y-54786627D01*
X108949641Y-54610000D01*
X108967037Y-54433373D01*
X109018557Y-54263534D01*
X109018557Y-54263533D01*
X109102221Y-54107011D01*
X109102222Y-54107009D01*
X109131552Y-54071271D01*
X109214814Y-53969814D01*
X109316271Y-53886552D01*
X109352009Y-53857222D01*
X109378637Y-53842989D01*
X109508533Y-53773557D01*
X109565147Y-53756384D01*
X109678373Y-53722037D01*
X109744558Y-53715518D01*
X109810740Y-53709000D01*
X109899260Y-53709000D01*
X109965442Y-53715518D01*
X109965442Y-53715518D01*
G37*
G36*
X102345442Y-53715518D02*
X102411627Y-53722037D01*
X102524853Y-53756384D01*
X102581467Y-53773557D01*
X102711363Y-53842989D01*
X102737991Y-53857222D01*
X102773729Y-53886552D01*
X102875186Y-53969814D01*
X102958448Y-54071271D01*
X102987778Y-54107009D01*
X102987779Y-54107011D01*
X103071443Y-54263533D01*
X103071443Y-54263534D01*
X103122963Y-54433373D01*
X103140359Y-54610000D01*
X103122963Y-54786627D01*
X103088616Y-54899853D01*
X103071443Y-54956467D01*
X103000081Y-55089973D01*
X102987778Y-55112991D01*
X102958448Y-55148729D01*
X102875186Y-55250186D01*
X102773729Y-55333448D01*
X102737991Y-55362778D01*
X102737989Y-55362779D01*
X102581467Y-55446443D01*
X102524853Y-55463616D01*
X102411627Y-55497963D01*
X102345442Y-55504482D01*
X102279260Y-55511000D01*
X102190740Y-55511000D01*
X102124558Y-55504482D01*
X102058373Y-55497963D01*
X101945147Y-55463616D01*
X101888533Y-55446443D01*
X101732011Y-55362779D01*
X101732009Y-55362778D01*
X101696271Y-55333448D01*
X101594814Y-55250186D01*
X101511552Y-55148729D01*
X101482222Y-55112991D01*
X101469919Y-55089973D01*
X101398557Y-54956467D01*
X101381384Y-54899853D01*
X101347037Y-54786627D01*
X101329641Y-54610000D01*
X101347037Y-54433373D01*
X101398557Y-54263534D01*
X101398557Y-54263533D01*
X101482221Y-54107011D01*
X101482222Y-54107009D01*
X101511552Y-54071271D01*
X101594814Y-53969814D01*
X101696271Y-53886552D01*
X101732009Y-53857222D01*
X101758637Y-53842989D01*
X101888533Y-53773557D01*
X101945147Y-53756384D01*
X102058373Y-53722037D01*
X102124558Y-53715518D01*
X102190740Y-53709000D01*
X102279260Y-53709000D01*
X102345442Y-53715518D01*
X102345442Y-53715518D01*
G37*
G36*
X117806565Y-53409389D02*
X117997834Y-53488615D01*
X118169976Y-53603637D01*
X118316363Y-53750024D01*
X118431385Y-53922166D01*
X118510611Y-54113435D01*
X118551000Y-54316484D01*
X118551000Y-54523516D01*
X118510611Y-54726565D01*
X118431385Y-54917834D01*
X118316363Y-55089976D01*
X118169976Y-55236363D01*
X117997834Y-55351385D01*
X117806565Y-55430611D01*
X117603516Y-55471000D01*
X117396484Y-55471000D01*
X117193435Y-55430611D01*
X117002166Y-55351385D01*
X116830024Y-55236363D01*
X116683637Y-55089976D01*
X116568615Y-54917834D01*
X116489389Y-54726565D01*
X116449000Y-54523516D01*
X116449000Y-54316484D01*
X116489389Y-54113435D01*
X116568615Y-53922166D01*
X116683637Y-53750024D01*
X116830024Y-53603637D01*
X117002166Y-53488615D01*
X117193435Y-53409389D01*
X117396484Y-53369000D01*
X117603516Y-53369000D01*
X117806565Y-53409389D01*
X117806565Y-53409389D01*
G37*
G36*
X136806565Y-53409389D02*
X136997834Y-53488615D01*
X137169976Y-53603637D01*
X137316363Y-53750024D01*
X137431385Y-53922166D01*
X137510611Y-54113435D01*
X137551000Y-54316484D01*
X137551000Y-54523516D01*
X137510611Y-54726565D01*
X137431385Y-54917834D01*
X137316363Y-55089976D01*
X137169976Y-55236363D01*
X136997834Y-55351385D01*
X136806565Y-55430611D01*
X136603516Y-55471000D01*
X136396484Y-55471000D01*
X136193435Y-55430611D01*
X136002166Y-55351385D01*
X135830024Y-55236363D01*
X135683637Y-55089976D01*
X135568615Y-54917834D01*
X135489389Y-54726565D01*
X135449000Y-54523516D01*
X135449000Y-54316484D01*
X135489389Y-54113435D01*
X135568615Y-53922166D01*
X135683637Y-53750024D01*
X135830024Y-53603637D01*
X136002166Y-53488615D01*
X136193435Y-53409389D01*
X136396484Y-53369000D01*
X136603516Y-53369000D01*
X136806565Y-53409389D01*
X136806565Y-53409389D01*
G37*
G36*
X188070443Y-52445519D02*
X188136627Y-52452037D01*
X188249853Y-52486384D01*
X188306467Y-52503557D01*
X188436363Y-52572989D01*
X188462991Y-52587222D01*
X188498729Y-52616552D01*
X188600186Y-52699814D01*
X188683448Y-52801271D01*
X188712778Y-52837009D01*
X188712779Y-52837011D01*
X188796443Y-52993533D01*
X188796443Y-52993534D01*
X188847963Y-53163373D01*
X188865359Y-53340000D01*
X188847963Y-53516627D01*
X188821569Y-53603635D01*
X188796443Y-53686467D01*
X188762469Y-53750027D01*
X188712778Y-53842991D01*
X188683448Y-53878729D01*
X188600186Y-53980186D01*
X188498729Y-54063448D01*
X188462991Y-54092778D01*
X188462989Y-54092779D01*
X188306467Y-54176443D01*
X188249853Y-54193616D01*
X188136627Y-54227963D01*
X188070442Y-54234482D01*
X188004260Y-54241000D01*
X187915740Y-54241000D01*
X187849558Y-54234482D01*
X187783373Y-54227963D01*
X187670147Y-54193616D01*
X187613533Y-54176443D01*
X187457011Y-54092779D01*
X187457009Y-54092778D01*
X187421271Y-54063448D01*
X187319814Y-53980186D01*
X187236552Y-53878729D01*
X187207222Y-53842991D01*
X187157531Y-53750027D01*
X187123557Y-53686467D01*
X187098431Y-53603635D01*
X187072037Y-53516627D01*
X187054641Y-53340000D01*
X187072037Y-53163373D01*
X187123557Y-52993534D01*
X187123557Y-52993533D01*
X187207221Y-52837011D01*
X187207222Y-52837009D01*
X187236552Y-52801271D01*
X187319814Y-52699814D01*
X187421271Y-52616552D01*
X187457009Y-52587222D01*
X187483637Y-52572989D01*
X187613533Y-52503557D01*
X187670147Y-52486384D01*
X187783373Y-52452037D01*
X187849558Y-52445518D01*
X187915740Y-52439000D01*
X188004260Y-52439000D01*
X188070443Y-52445519D01*
X188070443Y-52445519D01*
G37*
G36*
X185530443Y-52445519D02*
X185596627Y-52452037D01*
X185709853Y-52486384D01*
X185766467Y-52503557D01*
X185896363Y-52572989D01*
X185922991Y-52587222D01*
X185958729Y-52616552D01*
X186060186Y-52699814D01*
X186143448Y-52801271D01*
X186172778Y-52837009D01*
X186172779Y-52837011D01*
X186256443Y-52993533D01*
X186256443Y-52993534D01*
X186307963Y-53163373D01*
X186325359Y-53340000D01*
X186307963Y-53516627D01*
X186281569Y-53603635D01*
X186256443Y-53686467D01*
X186222469Y-53750027D01*
X186172778Y-53842991D01*
X186143448Y-53878729D01*
X186060186Y-53980186D01*
X185958729Y-54063448D01*
X185922991Y-54092778D01*
X185922989Y-54092779D01*
X185766467Y-54176443D01*
X185709853Y-54193616D01*
X185596627Y-54227963D01*
X185530442Y-54234482D01*
X185464260Y-54241000D01*
X185375740Y-54241000D01*
X185309558Y-54234482D01*
X185243373Y-54227963D01*
X185130147Y-54193616D01*
X185073533Y-54176443D01*
X184917011Y-54092779D01*
X184917009Y-54092778D01*
X184881271Y-54063448D01*
X184779814Y-53980186D01*
X184696552Y-53878729D01*
X184667222Y-53842991D01*
X184617531Y-53750027D01*
X184583557Y-53686467D01*
X184558431Y-53603635D01*
X184532037Y-53516627D01*
X184514641Y-53340000D01*
X184532037Y-53163373D01*
X184583557Y-52993534D01*
X184583557Y-52993533D01*
X184667221Y-52837011D01*
X184667222Y-52837009D01*
X184696552Y-52801271D01*
X184779814Y-52699814D01*
X184881271Y-52616552D01*
X184917009Y-52587222D01*
X184943637Y-52572989D01*
X185073533Y-52503557D01*
X185130147Y-52486384D01*
X185243373Y-52452037D01*
X185309558Y-52445518D01*
X185375740Y-52439000D01*
X185464260Y-52439000D01*
X185530443Y-52445519D01*
X185530443Y-52445519D01*
G37*
G36*
X183781000Y-54241000D02*
X181979000Y-54241000D01*
X181979000Y-52439000D01*
X183781000Y-52439000D01*
X183781000Y-54241000D01*
X183781000Y-54241000D01*
G37*
G36*
X193150443Y-52445519D02*
X193216627Y-52452037D01*
X193329853Y-52486384D01*
X193386467Y-52503557D01*
X193516363Y-52572989D01*
X193542991Y-52587222D01*
X193578729Y-52616552D01*
X193680186Y-52699814D01*
X193763448Y-52801271D01*
X193792778Y-52837009D01*
X193792779Y-52837011D01*
X193876443Y-52993533D01*
X193876443Y-52993534D01*
X193927963Y-53163373D01*
X193945359Y-53340000D01*
X193927963Y-53516627D01*
X193901569Y-53603635D01*
X193876443Y-53686467D01*
X193842469Y-53750027D01*
X193792778Y-53842991D01*
X193763448Y-53878729D01*
X193680186Y-53980186D01*
X193578729Y-54063448D01*
X193542991Y-54092778D01*
X193542989Y-54092779D01*
X193386467Y-54176443D01*
X193329853Y-54193616D01*
X193216627Y-54227963D01*
X193150442Y-54234482D01*
X193084260Y-54241000D01*
X192995740Y-54241000D01*
X192929558Y-54234482D01*
X192863373Y-54227963D01*
X192750147Y-54193616D01*
X192693533Y-54176443D01*
X192537011Y-54092779D01*
X192537009Y-54092778D01*
X192501271Y-54063448D01*
X192399814Y-53980186D01*
X192316552Y-53878729D01*
X192287222Y-53842991D01*
X192237531Y-53750027D01*
X192203557Y-53686467D01*
X192178431Y-53603635D01*
X192152037Y-53516627D01*
X192134641Y-53340000D01*
X192152037Y-53163373D01*
X192203557Y-52993534D01*
X192203557Y-52993533D01*
X192287221Y-52837011D01*
X192287222Y-52837009D01*
X192316552Y-52801271D01*
X192399814Y-52699814D01*
X192501271Y-52616552D01*
X192537009Y-52587222D01*
X192563637Y-52572989D01*
X192693533Y-52503557D01*
X192750147Y-52486384D01*
X192863373Y-52452037D01*
X192929558Y-52445518D01*
X192995740Y-52439000D01*
X193084260Y-52439000D01*
X193150443Y-52445519D01*
X193150443Y-52445519D01*
G37*
G36*
X195690443Y-52445519D02*
X195756627Y-52452037D01*
X195869853Y-52486384D01*
X195926467Y-52503557D01*
X196056363Y-52572989D01*
X196082991Y-52587222D01*
X196118729Y-52616552D01*
X196220186Y-52699814D01*
X196303448Y-52801271D01*
X196332778Y-52837009D01*
X196332779Y-52837011D01*
X196416443Y-52993533D01*
X196416443Y-52993534D01*
X196467963Y-53163373D01*
X196485359Y-53340000D01*
X196467963Y-53516627D01*
X196441569Y-53603635D01*
X196416443Y-53686467D01*
X196382469Y-53750027D01*
X196332778Y-53842991D01*
X196303448Y-53878729D01*
X196220186Y-53980186D01*
X196118729Y-54063448D01*
X196082991Y-54092778D01*
X196082989Y-54092779D01*
X195926467Y-54176443D01*
X195869853Y-54193616D01*
X195756627Y-54227963D01*
X195690442Y-54234482D01*
X195624260Y-54241000D01*
X195535740Y-54241000D01*
X195469558Y-54234482D01*
X195403373Y-54227963D01*
X195290147Y-54193616D01*
X195233533Y-54176443D01*
X195077011Y-54092779D01*
X195077009Y-54092778D01*
X195041271Y-54063448D01*
X194939814Y-53980186D01*
X194856552Y-53878729D01*
X194827222Y-53842991D01*
X194777531Y-53750027D01*
X194743557Y-53686467D01*
X194718431Y-53603635D01*
X194692037Y-53516627D01*
X194674641Y-53340000D01*
X194692037Y-53163373D01*
X194743557Y-52993534D01*
X194743557Y-52993533D01*
X194827221Y-52837011D01*
X194827222Y-52837009D01*
X194856552Y-52801271D01*
X194939814Y-52699814D01*
X195041271Y-52616552D01*
X195077009Y-52587222D01*
X195103637Y-52572989D01*
X195233533Y-52503557D01*
X195290147Y-52486384D01*
X195403373Y-52452037D01*
X195469558Y-52445518D01*
X195535740Y-52439000D01*
X195624260Y-52439000D01*
X195690443Y-52445519D01*
X195690443Y-52445519D01*
G37*
G36*
X190610443Y-52445519D02*
X190676627Y-52452037D01*
X190789853Y-52486384D01*
X190846467Y-52503557D01*
X190976363Y-52572989D01*
X191002991Y-52587222D01*
X191038729Y-52616552D01*
X191140186Y-52699814D01*
X191223448Y-52801271D01*
X191252778Y-52837009D01*
X191252779Y-52837011D01*
X191336443Y-52993533D01*
X191336443Y-52993534D01*
X191387963Y-53163373D01*
X191405359Y-53340000D01*
X191387963Y-53516627D01*
X191361569Y-53603635D01*
X191336443Y-53686467D01*
X191302469Y-53750027D01*
X191252778Y-53842991D01*
X191223448Y-53878729D01*
X191140186Y-53980186D01*
X191038729Y-54063448D01*
X191002991Y-54092778D01*
X191002989Y-54092779D01*
X190846467Y-54176443D01*
X190789853Y-54193616D01*
X190676627Y-54227963D01*
X190610442Y-54234482D01*
X190544260Y-54241000D01*
X190455740Y-54241000D01*
X190389558Y-54234482D01*
X190323373Y-54227963D01*
X190210147Y-54193616D01*
X190153533Y-54176443D01*
X189997011Y-54092779D01*
X189997009Y-54092778D01*
X189961271Y-54063448D01*
X189859814Y-53980186D01*
X189776552Y-53878729D01*
X189747222Y-53842991D01*
X189697531Y-53750027D01*
X189663557Y-53686467D01*
X189638431Y-53603635D01*
X189612037Y-53516627D01*
X189594641Y-53340000D01*
X189612037Y-53163373D01*
X189663557Y-52993534D01*
X189663557Y-52993533D01*
X189747221Y-52837011D01*
X189747222Y-52837009D01*
X189776552Y-52801271D01*
X189859814Y-52699814D01*
X189961271Y-52616552D01*
X189997009Y-52587222D01*
X190023637Y-52572989D01*
X190153533Y-52503557D01*
X190210147Y-52486384D01*
X190323373Y-52452037D01*
X190389558Y-52445518D01*
X190455740Y-52439000D01*
X190544260Y-52439000D01*
X190610443Y-52445519D01*
X190610443Y-52445519D01*
G37*
G36*
X136806565Y-50909389D02*
X136997834Y-50988615D01*
X137169976Y-51103637D01*
X137316363Y-51250024D01*
X137431385Y-51422166D01*
X137510611Y-51613435D01*
X137551000Y-51816484D01*
X137551000Y-52023516D01*
X137510611Y-52226565D01*
X137431385Y-52417834D01*
X137316363Y-52589976D01*
X137169976Y-52736363D01*
X136997834Y-52851385D01*
X136806565Y-52930611D01*
X136603516Y-52971000D01*
X136396484Y-52971000D01*
X136193435Y-52930611D01*
X136002166Y-52851385D01*
X135830024Y-52736363D01*
X135683637Y-52589976D01*
X135568615Y-52417834D01*
X135489389Y-52226565D01*
X135449000Y-52023516D01*
X135449000Y-51816484D01*
X135489389Y-51613435D01*
X135568615Y-51422166D01*
X135683637Y-51250024D01*
X135830024Y-51103637D01*
X136002166Y-50988615D01*
X136193435Y-50909389D01*
X136396484Y-50869000D01*
X136603516Y-50869000D01*
X136806565Y-50909389D01*
X136806565Y-50909389D01*
G37*
G36*
X113296000Y-52971000D02*
X111494000Y-52971000D01*
X111494000Y-51169000D01*
X113296000Y-51169000D01*
X113296000Y-52971000D01*
X113296000Y-52971000D01*
G37*
G36*
X109965443Y-51175519D02*
X110031627Y-51182037D01*
X110144853Y-51216384D01*
X110201467Y-51233557D01*
X110340087Y-51307652D01*
X110357991Y-51317222D01*
X110393729Y-51346552D01*
X110495186Y-51429814D01*
X110578448Y-51531271D01*
X110607778Y-51567009D01*
X110607779Y-51567011D01*
X110691443Y-51723533D01*
X110691443Y-51723534D01*
X110742963Y-51893373D01*
X110760359Y-52070000D01*
X110742963Y-52246627D01*
X110708616Y-52359853D01*
X110691443Y-52416467D01*
X110672430Y-52452037D01*
X110607778Y-52572991D01*
X110578448Y-52608729D01*
X110495186Y-52710186D01*
X110393729Y-52793448D01*
X110357991Y-52822778D01*
X110357989Y-52822779D01*
X110201467Y-52906443D01*
X110144853Y-52923616D01*
X110031627Y-52957963D01*
X109965442Y-52964482D01*
X109899260Y-52971000D01*
X109810740Y-52971000D01*
X109744558Y-52964482D01*
X109678373Y-52957963D01*
X109565147Y-52923616D01*
X109508533Y-52906443D01*
X109352011Y-52822779D01*
X109352009Y-52822778D01*
X109316271Y-52793448D01*
X109214814Y-52710186D01*
X109131552Y-52608729D01*
X109102222Y-52572991D01*
X109037570Y-52452037D01*
X109018557Y-52416467D01*
X109001384Y-52359853D01*
X108967037Y-52246627D01*
X108949641Y-52070000D01*
X108967037Y-51893373D01*
X109018557Y-51723534D01*
X109018557Y-51723533D01*
X109102221Y-51567011D01*
X109102222Y-51567009D01*
X109131552Y-51531271D01*
X109214814Y-51429814D01*
X109316271Y-51346552D01*
X109352009Y-51317222D01*
X109369913Y-51307652D01*
X109508533Y-51233557D01*
X109565147Y-51216384D01*
X109678373Y-51182037D01*
X109744557Y-51175519D01*
X109810740Y-51169000D01*
X109899260Y-51169000D01*
X109965443Y-51175519D01*
X109965443Y-51175519D01*
G37*
G36*
X107425443Y-51175519D02*
X107491627Y-51182037D01*
X107604853Y-51216384D01*
X107661467Y-51233557D01*
X107800087Y-51307652D01*
X107817991Y-51317222D01*
X107853729Y-51346552D01*
X107955186Y-51429814D01*
X108038448Y-51531271D01*
X108067778Y-51567009D01*
X108067779Y-51567011D01*
X108151443Y-51723533D01*
X108151443Y-51723534D01*
X108202963Y-51893373D01*
X108220359Y-52070000D01*
X108202963Y-52246627D01*
X108168616Y-52359853D01*
X108151443Y-52416467D01*
X108132430Y-52452037D01*
X108067778Y-52572991D01*
X108038448Y-52608729D01*
X107955186Y-52710186D01*
X107853729Y-52793448D01*
X107817991Y-52822778D01*
X107817989Y-52822779D01*
X107661467Y-52906443D01*
X107604853Y-52923616D01*
X107491627Y-52957963D01*
X107425442Y-52964482D01*
X107359260Y-52971000D01*
X107270740Y-52971000D01*
X107204558Y-52964482D01*
X107138373Y-52957963D01*
X107025147Y-52923616D01*
X106968533Y-52906443D01*
X106812011Y-52822779D01*
X106812009Y-52822778D01*
X106776271Y-52793448D01*
X106674814Y-52710186D01*
X106591552Y-52608729D01*
X106562222Y-52572991D01*
X106497570Y-52452037D01*
X106478557Y-52416467D01*
X106461384Y-52359853D01*
X106427037Y-52246627D01*
X106409641Y-52070000D01*
X106427037Y-51893373D01*
X106478557Y-51723534D01*
X106478557Y-51723533D01*
X106562221Y-51567011D01*
X106562222Y-51567009D01*
X106591552Y-51531271D01*
X106674814Y-51429814D01*
X106776271Y-51346552D01*
X106812009Y-51317222D01*
X106829913Y-51307652D01*
X106968533Y-51233557D01*
X107025147Y-51216384D01*
X107138373Y-51182037D01*
X107204557Y-51175519D01*
X107270740Y-51169000D01*
X107359260Y-51169000D01*
X107425443Y-51175519D01*
X107425443Y-51175519D01*
G37*
G36*
X117806565Y-50909389D02*
X117997834Y-50988615D01*
X118169976Y-51103637D01*
X118316363Y-51250024D01*
X118431385Y-51422166D01*
X118510611Y-51613435D01*
X118551000Y-51816484D01*
X118551000Y-52023516D01*
X118510611Y-52226565D01*
X118431385Y-52417834D01*
X118316363Y-52589976D01*
X118169976Y-52736363D01*
X117997834Y-52851385D01*
X117806565Y-52930611D01*
X117603516Y-52971000D01*
X117396484Y-52971000D01*
X117193435Y-52930611D01*
X117002166Y-52851385D01*
X116830024Y-52736363D01*
X116683637Y-52589976D01*
X116568615Y-52417834D01*
X116489389Y-52226565D01*
X116449000Y-52023516D01*
X116449000Y-51816484D01*
X116489389Y-51613435D01*
X116568615Y-51422166D01*
X116683637Y-51250024D01*
X116830024Y-51103637D01*
X117002166Y-50988615D01*
X117193435Y-50909389D01*
X117396484Y-50869000D01*
X117603516Y-50869000D01*
X117806565Y-50909389D01*
X117806565Y-50909389D01*
G37*
G36*
X104885443Y-51175519D02*
X104951627Y-51182037D01*
X105064853Y-51216384D01*
X105121467Y-51233557D01*
X105260087Y-51307652D01*
X105277991Y-51317222D01*
X105313729Y-51346552D01*
X105415186Y-51429814D01*
X105498448Y-51531271D01*
X105527778Y-51567009D01*
X105527779Y-51567011D01*
X105611443Y-51723533D01*
X105611443Y-51723534D01*
X105662963Y-51893373D01*
X105680359Y-52070000D01*
X105662963Y-52246627D01*
X105628616Y-52359853D01*
X105611443Y-52416467D01*
X105592430Y-52452037D01*
X105527778Y-52572991D01*
X105498448Y-52608729D01*
X105415186Y-52710186D01*
X105313729Y-52793448D01*
X105277991Y-52822778D01*
X105277989Y-52822779D01*
X105121467Y-52906443D01*
X105064853Y-52923616D01*
X104951627Y-52957963D01*
X104885442Y-52964482D01*
X104819260Y-52971000D01*
X104730740Y-52971000D01*
X104664558Y-52964482D01*
X104598373Y-52957963D01*
X104485147Y-52923616D01*
X104428533Y-52906443D01*
X104272011Y-52822779D01*
X104272009Y-52822778D01*
X104236271Y-52793448D01*
X104134814Y-52710186D01*
X104051552Y-52608729D01*
X104022222Y-52572991D01*
X103957570Y-52452037D01*
X103938557Y-52416467D01*
X103921384Y-52359853D01*
X103887037Y-52246627D01*
X103869641Y-52070000D01*
X103887037Y-51893373D01*
X103938557Y-51723534D01*
X103938557Y-51723533D01*
X104022221Y-51567011D01*
X104022222Y-51567009D01*
X104051552Y-51531271D01*
X104134814Y-51429814D01*
X104236271Y-51346552D01*
X104272009Y-51317222D01*
X104289913Y-51307652D01*
X104428533Y-51233557D01*
X104485147Y-51216384D01*
X104598373Y-51182037D01*
X104664557Y-51175519D01*
X104730740Y-51169000D01*
X104819260Y-51169000D01*
X104885443Y-51175519D01*
X104885443Y-51175519D01*
G37*
G36*
X102345443Y-51175519D02*
X102411627Y-51182037D01*
X102524853Y-51216384D01*
X102581467Y-51233557D01*
X102720087Y-51307652D01*
X102737991Y-51317222D01*
X102773729Y-51346552D01*
X102875186Y-51429814D01*
X102958448Y-51531271D01*
X102987778Y-51567009D01*
X102987779Y-51567011D01*
X103071443Y-51723533D01*
X103071443Y-51723534D01*
X103122963Y-51893373D01*
X103140359Y-52070000D01*
X103122963Y-52246627D01*
X103088616Y-52359853D01*
X103071443Y-52416467D01*
X103052430Y-52452037D01*
X102987778Y-52572991D01*
X102958448Y-52608729D01*
X102875186Y-52710186D01*
X102773729Y-52793448D01*
X102737991Y-52822778D01*
X102737989Y-52822779D01*
X102581467Y-52906443D01*
X102524853Y-52923616D01*
X102411627Y-52957963D01*
X102345442Y-52964482D01*
X102279260Y-52971000D01*
X102190740Y-52971000D01*
X102124558Y-52964482D01*
X102058373Y-52957963D01*
X101945147Y-52923616D01*
X101888533Y-52906443D01*
X101732011Y-52822779D01*
X101732009Y-52822778D01*
X101696271Y-52793448D01*
X101594814Y-52710186D01*
X101511552Y-52608729D01*
X101482222Y-52572991D01*
X101417570Y-52452037D01*
X101398557Y-52416467D01*
X101381384Y-52359853D01*
X101347037Y-52246627D01*
X101329641Y-52070000D01*
X101347037Y-51893373D01*
X101398557Y-51723534D01*
X101398557Y-51723533D01*
X101482221Y-51567011D01*
X101482222Y-51567009D01*
X101511552Y-51531271D01*
X101594814Y-51429814D01*
X101696271Y-51346552D01*
X101732009Y-51317222D01*
X101749913Y-51307652D01*
X101888533Y-51233557D01*
X101945147Y-51216384D01*
X102058373Y-51182037D01*
X102124557Y-51175519D01*
X102190740Y-51169000D01*
X102279260Y-51169000D01*
X102345443Y-51175519D01*
X102345443Y-51175519D01*
G37*
M02*
