G04 #@! TF.GenerationSoftware,KiCad,Pcbnew,6.0.0-rc1-unknown-59b0f55~66~ubuntu18.04.1*
G04 #@! TF.CreationDate,2018-12-02T19:59:02+01:00
G04 #@! TF.ProjectId,RoomUnit,526f6f6d-556e-4697-942e-6b696361645f,rev?*
G04 #@! TF.SameCoordinates,Original*
G04 #@! TF.FileFunction,Copper,L1,Top*
G04 #@! TF.FilePolarity,Positive*
%FSLAX46Y46*%
G04 Gerber Fmt 4.6, Leading zero omitted, Abs format (unit mm)*
G04 Created by KiCad (PCBNEW 6.0.0-rc1-unknown-59b0f55~66~ubuntu18.04.1) date So 02 Dez 2018 19:59:02 CET*
%MOMM*%
%LPD*%
G01*
G04 APERTURE LIST*
G04 #@! TA.AperFunction,SMDPad,CuDef*
%ADD10R,0.500000X0.900000*%
G04 #@! TD*
G04 #@! TA.AperFunction,ComponentPad*
%ADD11R,1.700000X1.700000*%
G04 #@! TD*
G04 #@! TA.AperFunction,ComponentPad*
%ADD12O,1.700000X1.700000*%
G04 #@! TD*
G04 #@! TA.AperFunction,SMDPad,CuDef*
%ADD13R,0.800000X0.750000*%
G04 #@! TD*
G04 #@! TA.AperFunction,WasherPad*
%ADD14C,3.500000*%
G04 #@! TD*
G04 #@! TA.AperFunction,ComponentPad*
%ADD15C,2.000000*%
G04 #@! TD*
G04 #@! TA.AperFunction,SMDPad,CuDef*
%ADD16R,0.350000X0.500000*%
G04 #@! TD*
G04 #@! TA.AperFunction,SMDPad,CuDef*
%ADD17R,0.400000X0.550000*%
G04 #@! TD*
G04 #@! TA.AperFunction,SMDPad,CuDef*
%ADD18R,0.650000X0.300000*%
G04 #@! TD*
G04 #@! TA.AperFunction,ComponentPad*
%ADD19C,1.800000*%
G04 #@! TD*
G04 #@! TA.AperFunction,WasherPad*
%ADD20C,4.000000*%
G04 #@! TD*
G04 #@! TA.AperFunction,SMDPad,CuDef*
%ADD21R,0.900000X0.500000*%
G04 #@! TD*
G04 #@! TA.AperFunction,SMDPad,CuDef*
%ADD22R,0.900000X0.800000*%
G04 #@! TD*
G04 #@! TA.AperFunction,ComponentPad*
%ADD23C,1.700000*%
G04 #@! TD*
G04 #@! TA.AperFunction,SMDPad,CuDef*
%ADD24R,0.750000X0.800000*%
G04 #@! TD*
G04 #@! TA.AperFunction,ComponentPad*
%ADD25R,2.000000X2.000000*%
G04 #@! TD*
G04 #@! TA.AperFunction,ViaPad*
%ADD26C,0.800000*%
G04 #@! TD*
G04 #@! TA.AperFunction,Conductor*
%ADD27C,0.250000*%
G04 #@! TD*
G04 #@! TA.AperFunction,Conductor*
%ADD28C,0.254000*%
G04 #@! TD*
G04 APERTURE END LIST*
D10*
G04 #@! TO.P,R16,1*
G04 #@! TO.N,/RxD*
X144450000Y-84000000D03*
G04 #@! TO.P,R16,2*
G04 #@! TO.N,Net-(J4-Pad1)*
X145950000Y-84000000D03*
G04 #@! TD*
G04 #@! TO.P,R15,1*
G04 #@! TO.N,/TxD*
X144450000Y-82000000D03*
G04 #@! TO.P,R15,2*
G04 #@! TO.N,Net-(J4-Pad2)*
X145950000Y-82000000D03*
G04 #@! TD*
D11*
G04 #@! TO.P,J4,1*
G04 #@! TO.N,Net-(J4-Pad1)*
X134500000Y-105000000D03*
D12*
G04 #@! TO.P,J4,2*
G04 #@! TO.N,Net-(J4-Pad2)*
X134500000Y-102460000D03*
G04 #@! TO.P,J4,3*
G04 #@! TO.N,GND*
X134500000Y-99920000D03*
G04 #@! TD*
D10*
G04 #@! TO.P,R14,1*
G04 #@! TO.N,+3V3*
X146000000Y-86000000D03*
G04 #@! TO.P,R14,2*
G04 #@! TO.N,/SCL*
X144500000Y-86000000D03*
G04 #@! TD*
G04 #@! TO.P,R13,1*
G04 #@! TO.N,/SDA*
X144500000Y-88000000D03*
G04 #@! TO.P,R13,2*
G04 #@! TO.N,+3V3*
X146000000Y-88000000D03*
G04 #@! TD*
D13*
G04 #@! TO.P,C11,2*
G04 #@! TO.N,GND*
X155500000Y-107500000D03*
G04 #@! TO.P,C11,1*
G04 #@! TO.N,Net-(C11-Pad1)*
X157000000Y-107500000D03*
G04 #@! TD*
D14*
G04 #@! TO.P,U4,*
G04 #@! TO.N,*
X161650000Y-101750000D03*
X138350000Y-101750000D03*
D15*
G04 #@! TO.P,U4,4*
G04 #@! TO.N,/SDA*
X146190000Y-102250000D03*
G04 #@! TO.P,U4,3*
G04 #@! TO.N,/SCL*
X148730000Y-102250000D03*
G04 #@! TO.P,U4,2*
G04 #@! TO.N,+3V3*
X151270000Y-102250000D03*
G04 #@! TO.P,U4,1*
G04 #@! TO.N,GND*
X153810000Y-102250000D03*
G04 #@! TD*
D16*
G04 #@! TO.P,U7,4*
G04 #@! TO.N,/SCL*
X154475000Y-120975000D03*
G04 #@! TO.P,U7,3*
G04 #@! TO.N,/SDA*
X153825000Y-120975000D03*
G04 #@! TO.P,U7,2*
G04 #@! TO.N,+3V3*
X153175000Y-120975000D03*
G04 #@! TO.P,U7,1*
G04 #@! TO.N,GND*
X152525000Y-120975000D03*
G04 #@! TO.P,U7,8*
G04 #@! TO.N,+3V3*
X152525000Y-123025000D03*
G04 #@! TO.P,U7,7*
G04 #@! TO.N,GND*
X153175000Y-123025000D03*
G04 #@! TO.P,U7,6*
G04 #@! TO.N,+3V3*
X153825000Y-123025000D03*
G04 #@! TO.P,U7,5*
G04 #@! TO.N,GND*
X154475000Y-123025000D03*
G04 #@! TD*
D17*
G04 #@! TO.P,U6,8*
G04 #@! TO.N,+3V3*
X146800000Y-123150000D03*
G04 #@! TO.P,U6,7*
G04 #@! TO.N,GND*
X147600000Y-123150000D03*
G04 #@! TO.P,U6,6*
G04 #@! TO.N,+3V3*
X148400000Y-123150000D03*
G04 #@! TO.P,U6,5*
X149200000Y-123150000D03*
G04 #@! TO.P,U6,4*
G04 #@! TO.N,/SCL*
X149200000Y-120850000D03*
G04 #@! TO.P,U6,3*
G04 #@! TO.N,/SDA*
X148400000Y-120850000D03*
G04 #@! TO.P,U6,2*
G04 #@! TO.N,+3V3*
X147600000Y-120850000D03*
G04 #@! TO.P,U6,1*
G04 #@! TO.N,GND*
X146800000Y-120850000D03*
G04 #@! TD*
D18*
G04 #@! TO.P,U5,1*
G04 #@! TO.N,+3V3*
X131350000Y-110600000D03*
G04 #@! TO.P,U5,2*
G04 #@! TO.N,N/C*
X131350000Y-111250000D03*
G04 #@! TO.P,U5,3*
G04 #@! TO.N,GND*
X131350000Y-111900000D03*
G04 #@! TO.P,U5,4*
G04 #@! TO.N,/SCL*
X133150000Y-111900000D03*
G04 #@! TO.P,U5,5*
G04 #@! TO.N,N/C*
X133150000Y-111250000D03*
G04 #@! TO.P,U5,6*
G04 #@! TO.N,/SDA*
X133150000Y-110600000D03*
G04 #@! TD*
D19*
G04 #@! TO.P,RV1,3*
G04 #@! TO.N,Net-(R1-Pad1)*
X160500000Y-108150000D03*
G04 #@! TO.P,RV1,2*
G04 #@! TO.N,/ADC*
X160500000Y-110650000D03*
G04 #@! TO.P,RV1,1*
G04 #@! TO.N,GND*
X160500000Y-113150000D03*
D20*
G04 #@! TO.P,RV1,0*
G04 #@! TO.N,*
X167500000Y-106250000D03*
X167500000Y-115050000D03*
G04 #@! TD*
D21*
G04 #@! TO.P,R12,1*
G04 #@! TO.N,Net-(C11-Pad1)*
X157750000Y-109000000D03*
G04 #@! TO.P,R12,2*
G04 #@! TO.N,/BUZZ*
X157750000Y-110500000D03*
G04 #@! TD*
D10*
G04 #@! TO.P,R9,1*
G04 #@! TO.N,/GPIO2*
X144550000Y-92000000D03*
G04 #@! TO.P,R9,2*
G04 #@! TO.N,Net-(J2-Pad2)*
X146050000Y-92000000D03*
G04 #@! TD*
G04 #@! TO.P,R8,1*
G04 #@! TO.N,/GPIO0*
X144550000Y-90000000D03*
G04 #@! TO.P,R8,2*
G04 #@! TO.N,Net-(J1-Pad2)*
X146050000Y-90000000D03*
G04 #@! TD*
G04 #@! TO.P,R7,1*
G04 #@! TO.N,/CH_PD*
X155250000Y-86000000D03*
G04 #@! TO.P,R7,2*
G04 #@! TO.N,+3V3*
X153750000Y-86000000D03*
G04 #@! TD*
G04 #@! TO.P,R6,1*
G04 #@! TO.N,/GPIO15*
X144550000Y-94000000D03*
G04 #@! TO.P,R6,2*
G04 #@! TO.N,+3V3*
X146050000Y-94000000D03*
G04 #@! TD*
G04 #@! TO.P,R5,1*
G04 #@! TO.N,/RST*
X155250000Y-82000000D03*
G04 #@! TO.P,R5,2*
G04 #@! TO.N,+3V3*
X153750000Y-82000000D03*
G04 #@! TD*
G04 #@! TO.P,R3,1*
G04 #@! TO.N,+3V3*
X153750000Y-92000000D03*
G04 #@! TO.P,R3,2*
G04 #@! TO.N,/OW_DATA_33*
X155250000Y-92000000D03*
G04 #@! TD*
D22*
G04 #@! TO.P,Q1,1*
G04 #@! TO.N,Net-(C11-Pad1)*
X155500000Y-111700000D03*
G04 #@! TO.P,Q1,2*
G04 #@! TO.N,GND*
X155500000Y-109800000D03*
G04 #@! TO.P,Q1,3*
G04 #@! TO.N,Net-(BZ1-Pad2)*
X153500000Y-110750000D03*
G04 #@! TD*
D23*
G04 #@! TO.P,J3,3*
G04 #@! TO.N,+5V*
X167540000Y-82500000D03*
G04 #@! TO.P,J3,2*
G04 #@! TO.N,/OW_DATA*
X165000000Y-82500000D03*
D11*
G04 #@! TO.P,J3,1*
G04 #@! TO.N,GND*
X162460000Y-82500000D03*
G04 #@! TD*
G04 #@! TO.P,J2,1*
G04 #@! TO.N,GND*
X138152840Y-109475547D03*
D12*
G04 #@! TO.P,J2,2*
G04 #@! TO.N,Net-(J2-Pad2)*
X140692840Y-109475547D03*
G04 #@! TO.P,J2,3*
G04 #@! TO.N,+3V3*
X143232840Y-109475547D03*
G04 #@! TD*
D11*
G04 #@! TO.P,J1,1*
G04 #@! TO.N,GND*
X138152840Y-106935547D03*
D12*
G04 #@! TO.P,J1,2*
G04 #@! TO.N,Net-(J1-Pad2)*
X140692840Y-106935547D03*
G04 #@! TO.P,J1,3*
G04 #@! TO.N,+3V3*
X143232840Y-106935547D03*
G04 #@! TD*
D24*
G04 #@! TO.P,C10,2*
G04 #@! TO.N,GND*
X151250000Y-121250000D03*
G04 #@! TO.P,C10,1*
G04 #@! TO.N,+3V3*
X151250000Y-122750000D03*
G04 #@! TD*
G04 #@! TO.P,C9,2*
G04 #@! TO.N,GND*
X145500000Y-121250000D03*
G04 #@! TO.P,C9,1*
G04 #@! TO.N,+3V3*
X145500000Y-122750000D03*
G04 #@! TD*
G04 #@! TO.P,C8,2*
G04 #@! TO.N,GND*
X129250000Y-112000000D03*
G04 #@! TO.P,C8,1*
G04 #@! TO.N,+3V3*
X129250000Y-110500000D03*
G04 #@! TD*
D13*
G04 #@! TO.P,C2,2*
G04 #@! TO.N,/RST*
X155000000Y-83750000D03*
G04 #@! TO.P,C2,1*
G04 #@! TO.N,GND*
X153500000Y-83750000D03*
G04 #@! TD*
D25*
G04 #@! TO.P,BZ1,1*
G04 #@! TO.N,+5V*
X153250000Y-107000000D03*
D15*
G04 #@! TO.P,BZ1,2*
G04 #@! TO.N,Net-(BZ1-Pad2)*
X153250000Y-114600000D03*
G04 #@! TD*
D26*
G04 #@! TO.N,+5V*
X170800000Y-103700000D03*
G04 #@! TO.N,GND*
X144125000Y-122000000D03*
X166400000Y-102900000D03*
X150044348Y-122064751D03*
X159825010Y-103926327D03*
X150600000Y-109400000D03*
X170000000Y-110000000D03*
X130000000Y-105000000D03*
X154000000Y-122000000D03*
G04 #@! TO.N,/RST*
X155900000Y-82000000D03*
G04 #@! TO.N,+3V3*
X169700000Y-92155000D03*
X152700000Y-81400000D03*
X153700000Y-93600000D03*
X151400000Y-104600000D03*
X163978071Y-104550011D03*
X164029842Y-106500000D03*
X130600000Y-87400000D03*
X133900000Y-87400000D03*
G04 #@! TO.N,Net-(J1-Pad2)*
X140400000Y-89100000D03*
X146900000Y-89700000D03*
G04 #@! TO.N,Net-(J2-Pad2)*
X140818335Y-91000001D03*
X147000000Y-91400000D03*
G04 #@! TO.N,/OW_DATA_33*
X156000000Y-92000000D03*
X168000000Y-92000000D03*
G04 #@! TO.N,/GPIO15*
X143900000Y-94000000D03*
G04 #@! TO.N,/CH_PD*
X155900000Y-86000000D03*
G04 #@! TO.N,/GPIO0*
X143900000Y-90000000D03*
G04 #@! TO.N,/GPIO2*
X143900000Y-92000000D03*
G04 #@! TO.N,/BUZZ*
X158099978Y-107700000D03*
G04 #@! TO.N,/SDA*
X143900000Y-88000000D03*
X146100000Y-104600000D03*
G04 #@! TO.N,/SCL*
X143900000Y-86000000D03*
X148700000Y-111600000D03*
X134200000Y-112200000D03*
X138500000Y-112200000D03*
G04 #@! TO.N,/RxD*
X143900000Y-83950009D03*
G04 #@! TO.N,/TxD*
X143900000Y-82000000D03*
G04 #@! TD*
D27*
G04 #@! TO.N,+5V*
X165901086Y-103700000D02*
X170800000Y-103700000D01*
X164326073Y-105275013D02*
X165901086Y-103700000D01*
X156224987Y-105275013D02*
X164326073Y-105275013D01*
X154500000Y-107000000D02*
X156224987Y-105275013D01*
X153250000Y-107000000D02*
X154500000Y-107000000D01*
G04 #@! TO.N,Net-(BZ1-Pad2)*
X153500000Y-114350000D02*
X153250000Y-114600000D01*
X153500000Y-110750000D02*
X153500000Y-114350000D01*
G04 #@! TO.N,GND*
X131250000Y-112000000D02*
X131350000Y-111900000D01*
X129250000Y-112000000D02*
X131250000Y-112000000D01*
X146400000Y-121250000D02*
X146800000Y-120850000D01*
X145500000Y-121250000D02*
X146400000Y-121250000D01*
X152250000Y-121250000D02*
X152525000Y-120975000D01*
X151250000Y-121250000D02*
X152250000Y-121250000D01*
X153175000Y-122525000D02*
X153175000Y-123025000D01*
X153250001Y-122449999D02*
X153175000Y-122525000D01*
X154475000Y-122525000D02*
X154399999Y-122449999D01*
X154475000Y-123025000D02*
X154475000Y-122525000D01*
X146800000Y-121926408D02*
X146800000Y-120850000D01*
X147600000Y-123150000D02*
X147600000Y-122726408D01*
X147600000Y-122726408D02*
X146800000Y-121926408D01*
X138152840Y-109475547D02*
X138152840Y-106935547D01*
X155385001Y-103825001D02*
X164074999Y-103825001D01*
X153810000Y-102250000D02*
X155385001Y-103825001D01*
X164074999Y-103825001D02*
X165000000Y-102900000D01*
X165000000Y-102900000D02*
X166400000Y-102900000D01*
X150460249Y-122064751D02*
X150044348Y-122064751D01*
X151250000Y-121275000D02*
X150460249Y-122064751D01*
X151250000Y-121250000D02*
X151250000Y-121275000D01*
X128200000Y-109475547D02*
X138152840Y-109475547D01*
X145500000Y-121250000D02*
X145500000Y-121275000D01*
X128000000Y-109675547D02*
X128200000Y-109475547D01*
X145500000Y-121275000D02*
X140524968Y-126250032D01*
X129250000Y-112000000D02*
X128000000Y-112000000D01*
X128000000Y-112000000D02*
X128000000Y-109675547D01*
X137482220Y-126250028D02*
X136600000Y-125367808D01*
X137600000Y-126250030D02*
X137482220Y-126250028D01*
X137600000Y-126250032D02*
X137600000Y-126250030D01*
X136600000Y-125367808D02*
X136600000Y-114800000D01*
X136600000Y-114800000D02*
X135600000Y-113800000D01*
X129200000Y-113800000D02*
X128000000Y-112600000D01*
X135600000Y-113800000D02*
X129200000Y-113800000D01*
X128000000Y-112600000D02*
X128000000Y-112000000D01*
X140524968Y-126250032D02*
X137600000Y-126250032D01*
X155500000Y-108600000D02*
X151400000Y-108600000D01*
X155500000Y-107500000D02*
X155500000Y-108600000D01*
X155500000Y-108600000D02*
X155500000Y-109800000D01*
X151400000Y-108600000D02*
X150600000Y-109400000D01*
X154000000Y-122449999D02*
X154000000Y-122000000D01*
X154399999Y-122449999D02*
X154000000Y-122449999D01*
X154000000Y-122449999D02*
X153250001Y-122449999D01*
G04 #@! TO.N,/RST*
X155900000Y-82000000D02*
X155250000Y-82000000D01*
X155000000Y-82250000D02*
X155250000Y-82000000D01*
X155000000Y-83750000D02*
X155000000Y-82250000D01*
G04 #@! TO.N,+3V3*
X131250000Y-110500000D02*
X131350000Y-110600000D01*
X129250000Y-110500000D02*
X131250000Y-110500000D01*
X136517290Y-110124999D02*
X137392291Y-111000000D01*
X131350000Y-110600000D02*
X131525000Y-110600000D01*
X132000001Y-110124999D02*
X136517290Y-110124999D01*
X131525000Y-110600000D02*
X132000001Y-110124999D01*
X141708387Y-111000000D02*
X143232840Y-109475547D01*
X137392291Y-111000000D02*
X141708387Y-111000000D01*
X153825000Y-123525000D02*
X153350000Y-124000000D01*
X153825000Y-123025000D02*
X153825000Y-123525000D01*
X153000000Y-124000000D02*
X152525000Y-123525000D01*
X152525000Y-123525000D02*
X152525000Y-123025000D01*
X153350000Y-124000000D02*
X153000000Y-124000000D01*
X151525000Y-123025000D02*
X151250000Y-122750000D01*
X152525000Y-123025000D02*
X151525000Y-123025000D01*
X149200000Y-123150000D02*
X148400000Y-123150000D01*
X148324999Y-123750001D02*
X146875001Y-123750001D01*
X146800000Y-123675000D02*
X146800000Y-123150000D01*
X148400000Y-123675000D02*
X148324999Y-123750001D01*
X146875001Y-123750001D02*
X146800000Y-123675000D01*
X148400000Y-123150000D02*
X148400000Y-123675000D01*
X145900000Y-123150000D02*
X145500000Y-122750000D01*
X146800000Y-123150000D02*
X145900000Y-123150000D01*
X153175000Y-121335002D02*
X153175000Y-120975000D01*
X152525000Y-121985002D02*
X153175000Y-121335002D01*
X152525000Y-123025000D02*
X152525000Y-121985002D01*
X148400000Y-122889998D02*
X148400000Y-123150000D01*
X147600000Y-122089998D02*
X148400000Y-122889998D01*
X147600000Y-120850000D02*
X147600000Y-122089998D01*
X154225001Y-83175001D02*
X153750000Y-82700000D01*
X153750000Y-82700000D02*
X153750000Y-82000000D01*
X154225001Y-84824999D02*
X154225001Y-83175001D01*
X153750000Y-85300000D02*
X154225001Y-84824999D01*
X153750000Y-86000000D02*
X153750000Y-85300000D01*
X146000000Y-86000000D02*
X146000000Y-88000000D01*
X146000000Y-86000000D02*
X153750000Y-86000000D01*
X146000000Y-85800000D02*
X146000000Y-86000000D01*
X153750000Y-88699998D02*
X153750000Y-86000000D01*
X151274999Y-91174999D02*
X153750000Y-88699998D01*
X168719999Y-91174999D02*
X169700000Y-92155000D01*
X151270000Y-91179998D02*
X151274999Y-91174999D01*
X146050000Y-94000000D02*
X151270000Y-94000000D01*
X151270000Y-102250000D02*
X151270000Y-94000000D01*
X151270000Y-94000000D02*
X151270000Y-91179998D01*
X153150000Y-81400000D02*
X153750000Y-82000000D01*
X152700000Y-81400000D02*
X153150000Y-81400000D01*
X153750000Y-91224999D02*
X153700000Y-91174999D01*
X153750000Y-92000000D02*
X153750000Y-91224999D01*
X151274999Y-91174999D02*
X153700000Y-91174999D01*
X153700000Y-91174999D02*
X168719999Y-91174999D01*
X153700000Y-92050000D02*
X153750000Y-92000000D01*
X153700000Y-93600000D02*
X153700000Y-92050000D01*
X151250000Y-122750000D02*
X150625000Y-122750000D01*
X150625000Y-122750000D02*
X150225000Y-123150000D01*
X150225000Y-123150000D02*
X149200000Y-123150000D01*
X162144978Y-125350010D02*
X162600000Y-124894988D01*
X153825000Y-123525000D02*
X155650010Y-125350010D01*
X155650010Y-125350010D02*
X162144978Y-125350010D01*
X162600000Y-107929842D02*
X164029842Y-106500000D01*
X162600000Y-124894988D02*
X162600000Y-107929842D01*
X151965685Y-104600000D02*
X152017013Y-104651328D01*
X163311069Y-104651328D02*
X163412386Y-104550011D01*
X152017013Y-104651328D02*
X163311069Y-104651328D01*
X163412386Y-104550011D02*
X163978071Y-104550011D01*
X151400000Y-104600000D02*
X151965685Y-104600000D01*
X134000000Y-87400000D02*
X133900000Y-87400000D01*
X130600000Y-87400000D02*
X133900000Y-87400000D01*
G04 #@! TO.N,Net-(J1-Pad2)*
X146334315Y-89700000D02*
X146300000Y-89734315D01*
X146900000Y-89700000D02*
X146334315Y-89700000D01*
X146300000Y-89750000D02*
X146050000Y-90000000D01*
X146300000Y-89734315D02*
X146300000Y-89750000D01*
X140692840Y-105733466D02*
X140875012Y-105551294D01*
X140692840Y-106935547D02*
X140692840Y-105733466D01*
X140875012Y-105551294D02*
X140875012Y-100038601D01*
X140875012Y-100038601D02*
X140000001Y-99163591D01*
X140000001Y-99163591D02*
X140000001Y-89499999D01*
X140000001Y-89499999D02*
X140400000Y-89100000D01*
G04 #@! TO.N,Net-(J2-Pad2)*
X147000000Y-91400000D02*
X146400000Y-92000000D01*
X146400000Y-92000000D02*
X146050000Y-92000000D01*
X141325023Y-91506689D02*
X140818335Y-91000001D01*
X141325023Y-100052201D02*
X141325023Y-91506689D01*
X141867841Y-100595019D02*
X141325023Y-100052201D01*
X141867841Y-108300546D02*
X141867841Y-100595019D01*
X140692840Y-109475547D02*
X141867841Y-108300546D01*
G04 #@! TO.N,/OW_DATA_33*
X156000000Y-92000000D02*
X155250000Y-92000000D01*
X156000000Y-92000000D02*
X168000000Y-92000000D01*
G04 #@! TO.N,/GPIO15*
X143900000Y-94000000D02*
X144550000Y-94000000D01*
G04 #@! TO.N,/CH_PD*
X155250000Y-86000000D02*
X155900000Y-86000000D01*
G04 #@! TO.N,/GPIO0*
X144550000Y-90000000D02*
X143900000Y-90000000D01*
G04 #@! TO.N,/GPIO2*
X143900000Y-92000000D02*
X144550000Y-92000000D01*
G04 #@! TO.N,/BUZZ*
X158525001Y-108125023D02*
X158099978Y-107700000D01*
X158525001Y-109924999D02*
X158525001Y-108125023D01*
X158525001Y-109924999D02*
X157750000Y-110500000D01*
X157950000Y-110500000D02*
X158525001Y-109924999D01*
X157750000Y-110500000D02*
X157950000Y-110500000D01*
G04 #@! TO.N,/SDA*
X144500000Y-88000000D02*
X143900000Y-88000000D01*
X133725000Y-110600000D02*
X134625000Y-111500000D01*
X133150000Y-110600000D02*
X133725000Y-110600000D01*
X146190000Y-102250000D02*
X145190001Y-101250001D01*
X145190001Y-89290001D02*
X144299999Y-88399999D01*
X145190001Y-101250001D02*
X145190001Y-89290001D01*
X144299999Y-88399999D02*
X143900000Y-88000000D01*
X134625000Y-111500000D02*
X137700000Y-111500000D01*
X148400000Y-120325000D02*
X148324999Y-120249999D01*
X148324999Y-120249999D02*
X142050001Y-120249999D01*
X137668622Y-125800021D02*
X137199979Y-125331378D01*
X140800021Y-121499979D02*
X140800021Y-125331378D01*
X142050001Y-120249999D02*
X140800021Y-121499979D01*
X137700000Y-111500000D02*
X137725002Y-111474998D01*
X137199979Y-125331378D02*
X137199979Y-112000021D01*
X148400000Y-120850000D02*
X148400000Y-120325000D01*
X140331378Y-125800021D02*
X137668622Y-125800021D01*
X137725002Y-111474998D02*
X144225002Y-111474998D01*
X146100000Y-109600000D02*
X146100000Y-104600000D01*
X144225002Y-111474998D02*
X146100000Y-109600000D01*
X137199979Y-112000021D02*
X137700000Y-111500000D01*
X140800021Y-125331378D02*
X140331378Y-125800021D01*
X148400000Y-121375000D02*
X148400000Y-120850000D01*
X149660001Y-121450001D02*
X148475001Y-121450001D01*
X153610001Y-120399999D02*
X150710003Y-120399999D01*
X148475001Y-121450001D02*
X148400000Y-121375000D01*
X150710003Y-120399999D02*
X149660001Y-121450001D01*
X153825000Y-120975000D02*
X153825000Y-120614998D01*
X153825000Y-120614998D02*
X153610001Y-120399999D01*
G04 #@! TO.N,/SCL*
X143900000Y-86000000D02*
X144500000Y-86000000D01*
X142050011Y-87849989D02*
X143900000Y-86000000D01*
X145553999Y-103575001D02*
X142050011Y-100071013D01*
X147404999Y-103575001D02*
X145553999Y-103575001D01*
X148730000Y-102250000D02*
X147404999Y-103575001D01*
X142050011Y-100071013D02*
X142050011Y-87849989D01*
X148730000Y-102250000D02*
X148730000Y-111570000D01*
X148730000Y-111570000D02*
X148700000Y-111600000D01*
X133450000Y-112200000D02*
X133150000Y-111900000D01*
X134200000Y-112200000D02*
X133450000Y-112200000D01*
X137649990Y-113050010D02*
X138500000Y-112200000D01*
X137649990Y-125144978D02*
X137649990Y-113050010D01*
X137855022Y-125350010D02*
X137649990Y-125144978D01*
X140144978Y-125350010D02*
X137855022Y-125350010D01*
X140350010Y-125144978D02*
X140144978Y-125350010D01*
X149200000Y-120850000D02*
X149200000Y-120325000D01*
X149200000Y-120325000D02*
X148900000Y-120025000D01*
X148900000Y-120025000D02*
X148225010Y-119350010D01*
X140350010Y-121200000D02*
X142200000Y-119350010D01*
X148225010Y-119350010D02*
X142200000Y-119350010D01*
X140350010Y-121200000D02*
X140350010Y-125144978D01*
X154475000Y-120975000D02*
X154475000Y-120475000D01*
X148975012Y-119949988D02*
X148900000Y-120025000D01*
X154475000Y-120475000D02*
X153949988Y-119949988D01*
X153949988Y-119949988D02*
X148975012Y-119949988D01*
G04 #@! TO.N,Net-(C11-Pad1)*
X157000000Y-108250000D02*
X157750000Y-109000000D01*
X157000000Y-107500000D02*
X157000000Y-108250000D01*
X157600000Y-109000000D02*
X157750000Y-109000000D01*
X156275001Y-110324999D02*
X157600000Y-109000000D01*
X155550000Y-111700000D02*
X156275001Y-110974999D01*
X156275001Y-110974999D02*
X156275001Y-110324999D01*
X155500000Y-111700000D02*
X155550000Y-111700000D01*
G04 #@! TO.N,/RxD*
X143949991Y-84000000D02*
X143900000Y-83950009D01*
X144450000Y-84000000D02*
X143949991Y-84000000D01*
G04 #@! TO.N,/TxD*
X144450000Y-82000000D02*
X143900000Y-82000000D01*
G04 #@! TO.N,Net-(J4-Pad1)*
X138000000Y-97800000D02*
X138000000Y-87400000D01*
X138000000Y-87400000D02*
X140500000Y-84900000D01*
X145950000Y-84200000D02*
X145950000Y-84000000D01*
X145250000Y-84900000D02*
X145950000Y-84200000D01*
X140500000Y-84900000D02*
X145250000Y-84900000D01*
X134500000Y-105000000D02*
X138171002Y-105000000D01*
X140425001Y-102746001D02*
X140425001Y-100225001D01*
X138171002Y-105000000D02*
X140425001Y-102746001D01*
X140425001Y-100225001D02*
X138000000Y-97800000D01*
G04 #@! TO.N,Net-(J4-Pad2)*
X145950000Y-82000000D02*
X145950000Y-82200000D01*
X145950000Y-82200000D02*
X144925001Y-83224999D01*
X144925001Y-83224999D02*
X139538590Y-83224999D01*
X137549989Y-85213600D02*
X137549989Y-97410011D01*
X139538590Y-83224999D02*
X137549989Y-85213600D01*
X134500000Y-102460000D02*
X137500000Y-99460000D01*
X137500000Y-97460000D02*
X137549989Y-97410011D01*
X137500000Y-99460000D02*
X137500000Y-97460000D01*
G04 #@! TD*
D28*
G04 #@! TO.N,GND*
G36*
X136447979Y-125257319D02*
X136433248Y-125331378D01*
X136447979Y-125405437D01*
X136447979Y-125405440D01*
X136491611Y-125624793D01*
X136657818Y-125873539D01*
X136720608Y-125915494D01*
X137084507Y-126279394D01*
X137126461Y-126342182D01*
X137375206Y-126508389D01*
X137594559Y-126552021D01*
X137594562Y-126552021D01*
X137668621Y-126566752D01*
X137742680Y-126552021D01*
X140257319Y-126552021D01*
X140331378Y-126566752D01*
X140405437Y-126552021D01*
X140405441Y-126552021D01*
X140624794Y-126508389D01*
X140873539Y-126342182D01*
X140915494Y-126279392D01*
X141279394Y-125915493D01*
X141342182Y-125873539D01*
X141508389Y-125624794D01*
X141552021Y-125405441D01*
X141552021Y-125405438D01*
X141566752Y-125331379D01*
X141552021Y-125257320D01*
X141552021Y-121811466D01*
X142361489Y-121001999D01*
X144527749Y-121001999D01*
X144648750Y-121123000D01*
X145373000Y-121123000D01*
X145373000Y-121103000D01*
X145627000Y-121103000D01*
X145627000Y-121123000D01*
X145647000Y-121123000D01*
X145647000Y-121377000D01*
X145627000Y-121377000D01*
X145627000Y-121397000D01*
X145373000Y-121397000D01*
X145373000Y-121377000D01*
X144648750Y-121377000D01*
X144490000Y-121535750D01*
X144490000Y-121776309D01*
X144586673Y-122009698D01*
X144593641Y-122016666D01*
X144534380Y-122105357D01*
X144485717Y-122350000D01*
X144485717Y-123150000D01*
X144534380Y-123394643D01*
X144672959Y-123602041D01*
X144880357Y-123740620D01*
X145125000Y-123789283D01*
X145503192Y-123789283D01*
X145606584Y-123858368D01*
X145825937Y-123902000D01*
X145825941Y-123902000D01*
X145899999Y-123916731D01*
X145974057Y-123902000D01*
X146078421Y-123902000D01*
X146091632Y-123968415D01*
X146257839Y-124217161D01*
X146302799Y-124247202D01*
X146332840Y-124292162D01*
X146581585Y-124458369D01*
X146800938Y-124502001D01*
X146800943Y-124502001D01*
X146875000Y-124516732D01*
X146949058Y-124502001D01*
X148250940Y-124502001D01*
X148324999Y-124516732D01*
X148399058Y-124502001D01*
X148399062Y-124502001D01*
X148618415Y-124458369D01*
X148867160Y-124292162D01*
X148897201Y-124247202D01*
X148942161Y-124217161D01*
X149044311Y-124064283D01*
X149400000Y-124064283D01*
X149644643Y-124015620D01*
X149814687Y-123902000D01*
X150150941Y-123902000D01*
X150225000Y-123916731D01*
X150299059Y-123902000D01*
X150299063Y-123902000D01*
X150518416Y-123858368D01*
X150679891Y-123750473D01*
X150875000Y-123789283D01*
X151512693Y-123789283D01*
X151525000Y-123791731D01*
X151537307Y-123789283D01*
X151625000Y-123789283D01*
X151686750Y-123777000D01*
X151808394Y-123777000D01*
X151816632Y-123818415D01*
X151982839Y-124067161D01*
X152045629Y-124109116D01*
X152415885Y-124479373D01*
X152457839Y-124542161D01*
X152706584Y-124708368D01*
X152925937Y-124752000D01*
X152925941Y-124752000D01*
X152999999Y-124766731D01*
X153074057Y-124752000D01*
X153275941Y-124752000D01*
X153350000Y-124766731D01*
X153424059Y-124752000D01*
X153424063Y-124752000D01*
X153643416Y-124708368D01*
X153824130Y-124587618D01*
X155065895Y-125829383D01*
X155107849Y-125892171D01*
X155356594Y-126058378D01*
X155575947Y-126102010D01*
X155575951Y-126102010D01*
X155650010Y-126116741D01*
X155724069Y-126102010D01*
X162070919Y-126102010D01*
X162144978Y-126116741D01*
X162219037Y-126102010D01*
X162219041Y-126102010D01*
X162438394Y-126058378D01*
X162687139Y-125892171D01*
X162729094Y-125829381D01*
X163079373Y-125479102D01*
X163142161Y-125437149D01*
X163308368Y-125188404D01*
X163352000Y-124969051D01*
X163352000Y-124969048D01*
X163366731Y-124894989D01*
X163352000Y-124820930D01*
X163352000Y-118127000D01*
X174873000Y-118127000D01*
X174873000Y-134240289D01*
X174740289Y-134373000D01*
X125259712Y-134373000D01*
X125127000Y-134240288D01*
X125127000Y-129165766D01*
X141126000Y-129165766D01*
X141175144Y-129597090D01*
X141175144Y-129597094D01*
X141236990Y-129805883D01*
X141430693Y-130194392D01*
X141560219Y-130369436D01*
X141875119Y-130668265D01*
X141897646Y-130683175D01*
X142056701Y-130788452D01*
X142454815Y-130961557D01*
X142456803Y-130962034D01*
X142482691Y-130972890D01*
X142524133Y-130986958D01*
X142566454Y-130998100D01*
X143364383Y-131178653D01*
X143379188Y-131181464D01*
X143393883Y-131184587D01*
X145541964Y-131563352D01*
X145585302Y-131569443D01*
X145585327Y-131569445D01*
X147754546Y-131797439D01*
X147754571Y-131797443D01*
X147795175Y-131800282D01*
X147798227Y-131800495D01*
X147798228Y-131800495D01*
X149978118Y-131876618D01*
X149993127Y-131876618D01*
X150008184Y-131876947D01*
X150823888Y-131866299D01*
X150838932Y-131865577D01*
X150853935Y-131865185D01*
X153031065Y-131732189D01*
X153031095Y-131732188D01*
X153074658Y-131727996D01*
X155237233Y-131443451D01*
X155237237Y-131443451D01*
X155246420Y-131441915D01*
X155280400Y-131436232D01*
X155280422Y-131436227D01*
X157417863Y-131001525D01*
X157460418Y-130991312D01*
X157502158Y-130978155D01*
X157542270Y-130962359D01*
X157542385Y-130962331D01*
X157542832Y-130962137D01*
X157542878Y-130962119D01*
X157542920Y-130962099D01*
X157940660Y-130789597D01*
X158122355Y-130669579D01*
X158437533Y-130371043D01*
X158490460Y-130299655D01*
X158567221Y-130196121D01*
X158761286Y-129807792D01*
X158823326Y-129599062D01*
X158872871Y-129167778D01*
X158859780Y-128950417D01*
X158859779Y-128950416D01*
X158758830Y-128528198D01*
X158758003Y-128526291D01*
X158672186Y-128328422D01*
X158432916Y-127966193D01*
X158352634Y-127881436D01*
X158283172Y-127808101D01*
X157934442Y-127549551D01*
X157934441Y-127549550D01*
X157739655Y-127452207D01*
X157323527Y-127328523D01*
X157318565Y-127327953D01*
X157107195Y-127303671D01*
X157107194Y-127303671D01*
X156673860Y-127329770D01*
X156673587Y-127329835D01*
X156672185Y-127329872D01*
X156626461Y-127334436D01*
X156587623Y-127341005D01*
X154544718Y-127752927D01*
X152499939Y-128011242D01*
X150432707Y-128119582D01*
X150009025Y-128122909D01*
X147940358Y-128047055D01*
X145891766Y-127820889D01*
X143856364Y-127443649D01*
X143430024Y-127344828D01*
X143384910Y-127336100D01*
X143339277Y-127330699D01*
X143328430Y-127330216D01*
X143326723Y-127329806D01*
X142893412Y-127303303D01*
X142893411Y-127303303D01*
X142677056Y-127327953D01*
X142260813Y-127451250D01*
X142065936Y-127548412D01*
X141716966Y-127806637D01*
X141642927Y-127884659D01*
X141567075Y-127964589D01*
X141327468Y-128326595D01*
X141327467Y-128326596D01*
X141281111Y-128433208D01*
X141242942Y-128520991D01*
X141240637Y-128526291D01*
X141139294Y-128948417D01*
X141126000Y-129165766D01*
X125127000Y-129165766D01*
X125127000Y-118127000D01*
X136447980Y-118127000D01*
X136447979Y-125257319D01*
X136447979Y-125257319D01*
G37*
X136447979Y-125257319D02*
X136433248Y-125331378D01*
X136447979Y-125405437D01*
X136447979Y-125405440D01*
X136491611Y-125624793D01*
X136657818Y-125873539D01*
X136720608Y-125915494D01*
X137084507Y-126279394D01*
X137126461Y-126342182D01*
X137375206Y-126508389D01*
X137594559Y-126552021D01*
X137594562Y-126552021D01*
X137668621Y-126566752D01*
X137742680Y-126552021D01*
X140257319Y-126552021D01*
X140331378Y-126566752D01*
X140405437Y-126552021D01*
X140405441Y-126552021D01*
X140624794Y-126508389D01*
X140873539Y-126342182D01*
X140915494Y-126279392D01*
X141279394Y-125915493D01*
X141342182Y-125873539D01*
X141508389Y-125624794D01*
X141552021Y-125405441D01*
X141552021Y-125405438D01*
X141566752Y-125331379D01*
X141552021Y-125257320D01*
X141552021Y-121811466D01*
X142361489Y-121001999D01*
X144527749Y-121001999D01*
X144648750Y-121123000D01*
X145373000Y-121123000D01*
X145373000Y-121103000D01*
X145627000Y-121103000D01*
X145627000Y-121123000D01*
X145647000Y-121123000D01*
X145647000Y-121377000D01*
X145627000Y-121377000D01*
X145627000Y-121397000D01*
X145373000Y-121397000D01*
X145373000Y-121377000D01*
X144648750Y-121377000D01*
X144490000Y-121535750D01*
X144490000Y-121776309D01*
X144586673Y-122009698D01*
X144593641Y-122016666D01*
X144534380Y-122105357D01*
X144485717Y-122350000D01*
X144485717Y-123150000D01*
X144534380Y-123394643D01*
X144672959Y-123602041D01*
X144880357Y-123740620D01*
X145125000Y-123789283D01*
X145503192Y-123789283D01*
X145606584Y-123858368D01*
X145825937Y-123902000D01*
X145825941Y-123902000D01*
X145899999Y-123916731D01*
X145974057Y-123902000D01*
X146078421Y-123902000D01*
X146091632Y-123968415D01*
X146257839Y-124217161D01*
X146302799Y-124247202D01*
X146332840Y-124292162D01*
X146581585Y-124458369D01*
X146800938Y-124502001D01*
X146800943Y-124502001D01*
X146875000Y-124516732D01*
X146949058Y-124502001D01*
X148250940Y-124502001D01*
X148324999Y-124516732D01*
X148399058Y-124502001D01*
X148399062Y-124502001D01*
X148618415Y-124458369D01*
X148867160Y-124292162D01*
X148897201Y-124247202D01*
X148942161Y-124217161D01*
X149044311Y-124064283D01*
X149400000Y-124064283D01*
X149644643Y-124015620D01*
X149814687Y-123902000D01*
X150150941Y-123902000D01*
X150225000Y-123916731D01*
X150299059Y-123902000D01*
X150299063Y-123902000D01*
X150518416Y-123858368D01*
X150679891Y-123750473D01*
X150875000Y-123789283D01*
X151512693Y-123789283D01*
X151525000Y-123791731D01*
X151537307Y-123789283D01*
X151625000Y-123789283D01*
X151686750Y-123777000D01*
X151808394Y-123777000D01*
X151816632Y-123818415D01*
X151982839Y-124067161D01*
X152045629Y-124109116D01*
X152415885Y-124479373D01*
X152457839Y-124542161D01*
X152706584Y-124708368D01*
X152925937Y-124752000D01*
X152925941Y-124752000D01*
X152999999Y-124766731D01*
X153074057Y-124752000D01*
X153275941Y-124752000D01*
X153350000Y-124766731D01*
X153424059Y-124752000D01*
X153424063Y-124752000D01*
X153643416Y-124708368D01*
X153824130Y-124587618D01*
X155065895Y-125829383D01*
X155107849Y-125892171D01*
X155356594Y-126058378D01*
X155575947Y-126102010D01*
X155575951Y-126102010D01*
X155650010Y-126116741D01*
X155724069Y-126102010D01*
X162070919Y-126102010D01*
X162144978Y-126116741D01*
X162219037Y-126102010D01*
X162219041Y-126102010D01*
X162438394Y-126058378D01*
X162687139Y-125892171D01*
X162729094Y-125829381D01*
X163079373Y-125479102D01*
X163142161Y-125437149D01*
X163308368Y-125188404D01*
X163352000Y-124969051D01*
X163352000Y-124969048D01*
X163366731Y-124894989D01*
X163352000Y-124820930D01*
X163352000Y-118127000D01*
X174873000Y-118127000D01*
X174873000Y-134240289D01*
X174740289Y-134373000D01*
X125259712Y-134373000D01*
X125127000Y-134240288D01*
X125127000Y-129165766D01*
X141126000Y-129165766D01*
X141175144Y-129597090D01*
X141175144Y-129597094D01*
X141236990Y-129805883D01*
X141430693Y-130194392D01*
X141560219Y-130369436D01*
X141875119Y-130668265D01*
X141897646Y-130683175D01*
X142056701Y-130788452D01*
X142454815Y-130961557D01*
X142456803Y-130962034D01*
X142482691Y-130972890D01*
X142524133Y-130986958D01*
X142566454Y-130998100D01*
X143364383Y-131178653D01*
X143379188Y-131181464D01*
X143393883Y-131184587D01*
X145541964Y-131563352D01*
X145585302Y-131569443D01*
X145585327Y-131569445D01*
X147754546Y-131797439D01*
X147754571Y-131797443D01*
X147795175Y-131800282D01*
X147798227Y-131800495D01*
X147798228Y-131800495D01*
X149978118Y-131876618D01*
X149993127Y-131876618D01*
X150008184Y-131876947D01*
X150823888Y-131866299D01*
X150838932Y-131865577D01*
X150853935Y-131865185D01*
X153031065Y-131732189D01*
X153031095Y-131732188D01*
X153074658Y-131727996D01*
X155237233Y-131443451D01*
X155237237Y-131443451D01*
X155246420Y-131441915D01*
X155280400Y-131436232D01*
X155280422Y-131436227D01*
X157417863Y-131001525D01*
X157460418Y-130991312D01*
X157502158Y-130978155D01*
X157542270Y-130962359D01*
X157542385Y-130962331D01*
X157542832Y-130962137D01*
X157542878Y-130962119D01*
X157542920Y-130962099D01*
X157940660Y-130789597D01*
X158122355Y-130669579D01*
X158437533Y-130371043D01*
X158490460Y-130299655D01*
X158567221Y-130196121D01*
X158761286Y-129807792D01*
X158823326Y-129599062D01*
X158872871Y-129167778D01*
X158859780Y-128950417D01*
X158859779Y-128950416D01*
X158758830Y-128528198D01*
X158758003Y-128526291D01*
X158672186Y-128328422D01*
X158432916Y-127966193D01*
X158352634Y-127881436D01*
X158283172Y-127808101D01*
X157934442Y-127549551D01*
X157934441Y-127549550D01*
X157739655Y-127452207D01*
X157323527Y-127328523D01*
X157318565Y-127327953D01*
X157107195Y-127303671D01*
X157107194Y-127303671D01*
X156673860Y-127329770D01*
X156673587Y-127329835D01*
X156672185Y-127329872D01*
X156626461Y-127334436D01*
X156587623Y-127341005D01*
X154544718Y-127752927D01*
X152499939Y-128011242D01*
X150432707Y-128119582D01*
X150009025Y-128122909D01*
X147940358Y-128047055D01*
X145891766Y-127820889D01*
X143856364Y-127443649D01*
X143430024Y-127344828D01*
X143384910Y-127336100D01*
X143339277Y-127330699D01*
X143328430Y-127330216D01*
X143326723Y-127329806D01*
X142893412Y-127303303D01*
X142893411Y-127303303D01*
X142677056Y-127327953D01*
X142260813Y-127451250D01*
X142065936Y-127548412D01*
X141716966Y-127806637D01*
X141642927Y-127884659D01*
X141567075Y-127964589D01*
X141327468Y-128326595D01*
X141327467Y-128326596D01*
X141281111Y-128433208D01*
X141242942Y-128520991D01*
X141240637Y-128526291D01*
X141139294Y-128948417D01*
X141126000Y-129165766D01*
X125127000Y-129165766D01*
X125127000Y-118127000D01*
X136447980Y-118127000D01*
X136447979Y-125257319D01*
G36*
X159373001Y-124598010D02*
X155961498Y-124598010D01*
X155093256Y-123729769D01*
X155188327Y-123634698D01*
X155285000Y-123401309D01*
X155285000Y-123308750D01*
X155126250Y-123150000D01*
X154639283Y-123150000D01*
X154639283Y-122900000D01*
X155126250Y-122900000D01*
X155285000Y-122741250D01*
X155285000Y-122648691D01*
X155188327Y-122415302D01*
X155009699Y-122236673D01*
X154776310Y-122140000D01*
X154721250Y-122140000D01*
X154562500Y-122298750D01*
X154562500Y-122488272D01*
X154452041Y-122322959D01*
X154330494Y-122241744D01*
X154228750Y-122140000D01*
X154173690Y-122140000D01*
X154124326Y-122160447D01*
X154000000Y-122135717D01*
X153650000Y-122135717D01*
X153525674Y-122160447D01*
X153476310Y-122140000D01*
X153433490Y-122140000D01*
X153654374Y-121919116D01*
X153717161Y-121877163D01*
X153725767Y-121864283D01*
X154000000Y-121864283D01*
X154150000Y-121834446D01*
X154300000Y-121864283D01*
X154650000Y-121864283D01*
X154894643Y-121815620D01*
X155102041Y-121677041D01*
X155240620Y-121469643D01*
X155289283Y-121225000D01*
X155289283Y-120725000D01*
X155240643Y-120480471D01*
X155241731Y-120474999D01*
X155227000Y-120400940D01*
X155227000Y-120400937D01*
X155183368Y-120181584D01*
X155017161Y-119932839D01*
X154954373Y-119890885D01*
X154690487Y-119627000D01*
X159373000Y-119627000D01*
X159373001Y-124598010D01*
X159373001Y-124598010D01*
G37*
X159373001Y-124598010D02*
X155961498Y-124598010D01*
X155093256Y-123729769D01*
X155188327Y-123634698D01*
X155285000Y-123401309D01*
X155285000Y-123308750D01*
X155126250Y-123150000D01*
X154639283Y-123150000D01*
X154639283Y-122900000D01*
X155126250Y-122900000D01*
X155285000Y-122741250D01*
X155285000Y-122648691D01*
X155188327Y-122415302D01*
X155009699Y-122236673D01*
X154776310Y-122140000D01*
X154721250Y-122140000D01*
X154562500Y-122298750D01*
X154562500Y-122488272D01*
X154452041Y-122322959D01*
X154330494Y-122241744D01*
X154228750Y-122140000D01*
X154173690Y-122140000D01*
X154124326Y-122160447D01*
X154000000Y-122135717D01*
X153650000Y-122135717D01*
X153525674Y-122160447D01*
X153476310Y-122140000D01*
X153433490Y-122140000D01*
X153654374Y-121919116D01*
X153717161Y-121877163D01*
X153725767Y-121864283D01*
X154000000Y-121864283D01*
X154150000Y-121834446D01*
X154300000Y-121864283D01*
X154650000Y-121864283D01*
X154894643Y-121815620D01*
X155102041Y-121677041D01*
X155240620Y-121469643D01*
X155289283Y-121225000D01*
X155289283Y-120725000D01*
X155240643Y-120480471D01*
X155241731Y-120474999D01*
X155227000Y-120400940D01*
X155227000Y-120400937D01*
X155183368Y-120181584D01*
X155017161Y-119932839D01*
X154954373Y-119890885D01*
X154690487Y-119627000D01*
X159373000Y-119627000D01*
X159373001Y-124598010D01*
G36*
X150336673Y-122009698D02*
X150343641Y-122016666D01*
X150323230Y-122047214D01*
X150082839Y-122207839D01*
X150040885Y-122270627D01*
X149913512Y-122398000D01*
X149814687Y-122398000D01*
X149644643Y-122284380D01*
X149400000Y-122235717D01*
X149000000Y-122235717D01*
X148840862Y-122267372D01*
X148775491Y-122202001D01*
X149585942Y-122202001D01*
X149660001Y-122216732D01*
X149734060Y-122202001D01*
X149734064Y-122202001D01*
X149953417Y-122158369D01*
X150202162Y-121992162D01*
X150244117Y-121929372D01*
X150286037Y-121887452D01*
X150336673Y-122009698D01*
X150336673Y-122009698D01*
G37*
X150336673Y-122009698D02*
X150343641Y-122016666D01*
X150323230Y-122047214D01*
X150082839Y-122207839D01*
X150040885Y-122270627D01*
X149913512Y-122398000D01*
X149814687Y-122398000D01*
X149644643Y-122284380D01*
X149400000Y-122235717D01*
X149000000Y-122235717D01*
X148840862Y-122267372D01*
X148775491Y-122202001D01*
X149585942Y-122202001D01*
X149660001Y-122216732D01*
X149734060Y-122202001D01*
X149734064Y-122202001D01*
X149953417Y-122158369D01*
X150202162Y-121992162D01*
X150244117Y-121929372D01*
X150286037Y-121887452D01*
X150336673Y-122009698D01*
G36*
X146760717Y-121125000D02*
X146809380Y-121369643D01*
X146848000Y-121427443D01*
X146848001Y-122015935D01*
X146833269Y-122089998D01*
X146862254Y-122235717D01*
X146600000Y-122235717D01*
X146495678Y-122256468D01*
X146465620Y-122105357D01*
X146406359Y-122016666D01*
X146413327Y-122009698D01*
X146510000Y-121776309D01*
X146510000Y-121760000D01*
X146541250Y-121760000D01*
X146700000Y-121601250D01*
X146700000Y-121001999D01*
X146760717Y-121001999D01*
X146760717Y-121125000D01*
X146760717Y-121125000D01*
G37*
X146760717Y-121125000D02*
X146809380Y-121369643D01*
X146848000Y-121427443D01*
X146848001Y-122015935D01*
X146833269Y-122089998D01*
X146862254Y-122235717D01*
X146600000Y-122235717D01*
X146495678Y-122256468D01*
X146465620Y-122105357D01*
X146406359Y-122016666D01*
X146413327Y-122009698D01*
X146510000Y-121776309D01*
X146510000Y-121760000D01*
X146541250Y-121760000D01*
X146700000Y-121601250D01*
X146700000Y-121001999D01*
X146760717Y-121001999D01*
X146760717Y-121125000D01*
G36*
X151397000Y-121377000D02*
X151377000Y-121377000D01*
X151377000Y-121397000D01*
X151123000Y-121397000D01*
X151123000Y-121377000D01*
X151103000Y-121377000D01*
X151103000Y-121151999D01*
X151397000Y-121151999D01*
X151397000Y-121377000D01*
X151397000Y-121377000D01*
G37*
X151397000Y-121377000D02*
X151377000Y-121377000D01*
X151377000Y-121397000D01*
X151123000Y-121397000D01*
X151123000Y-121377000D01*
X151103000Y-121377000D01*
X151103000Y-121151999D01*
X151397000Y-121151999D01*
X151397000Y-121377000D01*
G36*
X150348378Y-103629304D02*
X150751373Y-103796230D01*
X150529352Y-104018251D01*
X150373000Y-104395717D01*
X150373000Y-104804283D01*
X150529352Y-105181749D01*
X150818251Y-105470648D01*
X151195717Y-105627000D01*
X151604283Y-105627000D01*
X151802615Y-105544848D01*
X151797959Y-105547959D01*
X151659380Y-105755357D01*
X151610717Y-106000000D01*
X151610717Y-108000000D01*
X151659380Y-108244643D01*
X151797959Y-108452041D01*
X152005357Y-108590620D01*
X152250000Y-108639283D01*
X154250000Y-108639283D01*
X154494643Y-108590620D01*
X154702041Y-108452041D01*
X154732873Y-108405898D01*
X154740302Y-108413327D01*
X154973691Y-108510000D01*
X155214250Y-108510000D01*
X155373000Y-108351250D01*
X155373000Y-107627000D01*
X155353000Y-107627000D01*
X155353000Y-107373000D01*
X155373000Y-107373000D01*
X155373000Y-107353000D01*
X155627000Y-107353000D01*
X155627000Y-107373000D01*
X155647000Y-107373000D01*
X155647000Y-107627000D01*
X155627000Y-107627000D01*
X155627000Y-108351250D01*
X155785750Y-108510000D01*
X156026309Y-108510000D01*
X156259698Y-108413327D01*
X156264751Y-108408274D01*
X156265601Y-108412547D01*
X156291632Y-108543415D01*
X156415886Y-108729373D01*
X156457840Y-108792161D01*
X156520627Y-108834114D01*
X156611512Y-108924999D01*
X156490636Y-109045876D01*
X156488327Y-109040301D01*
X156309698Y-108861673D01*
X156076309Y-108765000D01*
X155785750Y-108765000D01*
X155627000Y-108923750D01*
X155627000Y-109673000D01*
X155647000Y-109673000D01*
X155647000Y-109911307D01*
X155636514Y-109927000D01*
X155627000Y-109927000D01*
X155627000Y-109941238D01*
X155623150Y-109947000D01*
X155373000Y-109947000D01*
X155373000Y-109927000D01*
X154573750Y-109927000D01*
X154482450Y-110018300D01*
X154402041Y-109897959D01*
X154194643Y-109759380D01*
X153950000Y-109710717D01*
X153050000Y-109710717D01*
X152805357Y-109759380D01*
X152597959Y-109897959D01*
X152459380Y-110105357D01*
X152410717Y-110350000D01*
X152410717Y-111150000D01*
X152459380Y-111394643D01*
X152597959Y-111602041D01*
X152748000Y-111702295D01*
X152748000Y-111873000D01*
X149698536Y-111873000D01*
X149727000Y-111804283D01*
X149727000Y-111395717D01*
X149570648Y-111018251D01*
X149482000Y-110929603D01*
X149482000Y-109273690D01*
X154415000Y-109273690D01*
X154415000Y-109514250D01*
X154573750Y-109673000D01*
X155373000Y-109673000D01*
X155373000Y-108923750D01*
X155214250Y-108765000D01*
X154923691Y-108765000D01*
X154690302Y-108861673D01*
X154511673Y-109040301D01*
X154415000Y-109273690D01*
X149482000Y-109273690D01*
X149482000Y-103699564D01*
X149651622Y-103629304D01*
X150000000Y-103280926D01*
X150348378Y-103629304D01*
X150348378Y-103629304D01*
G37*
X150348378Y-103629304D02*
X150751373Y-103796230D01*
X150529352Y-104018251D01*
X150373000Y-104395717D01*
X150373000Y-104804283D01*
X150529352Y-105181749D01*
X150818251Y-105470648D01*
X151195717Y-105627000D01*
X151604283Y-105627000D01*
X151802615Y-105544848D01*
X151797959Y-105547959D01*
X151659380Y-105755357D01*
X151610717Y-106000000D01*
X151610717Y-108000000D01*
X151659380Y-108244643D01*
X151797959Y-108452041D01*
X152005357Y-108590620D01*
X152250000Y-108639283D01*
X154250000Y-108639283D01*
X154494643Y-108590620D01*
X154702041Y-108452041D01*
X154732873Y-108405898D01*
X154740302Y-108413327D01*
X154973691Y-108510000D01*
X155214250Y-108510000D01*
X155373000Y-108351250D01*
X155373000Y-107627000D01*
X155353000Y-107627000D01*
X155353000Y-107373000D01*
X155373000Y-107373000D01*
X155373000Y-107353000D01*
X155627000Y-107353000D01*
X155627000Y-107373000D01*
X155647000Y-107373000D01*
X155647000Y-107627000D01*
X155627000Y-107627000D01*
X155627000Y-108351250D01*
X155785750Y-108510000D01*
X156026309Y-108510000D01*
X156259698Y-108413327D01*
X156264751Y-108408274D01*
X156265601Y-108412547D01*
X156291632Y-108543415D01*
X156415886Y-108729373D01*
X156457840Y-108792161D01*
X156520627Y-108834114D01*
X156611512Y-108924999D01*
X156490636Y-109045876D01*
X156488327Y-109040301D01*
X156309698Y-108861673D01*
X156076309Y-108765000D01*
X155785750Y-108765000D01*
X155627000Y-108923750D01*
X155627000Y-109673000D01*
X155647000Y-109673000D01*
X155647000Y-109911307D01*
X155636514Y-109927000D01*
X155627000Y-109927000D01*
X155627000Y-109941238D01*
X155623150Y-109947000D01*
X155373000Y-109947000D01*
X155373000Y-109927000D01*
X154573750Y-109927000D01*
X154482450Y-110018300D01*
X154402041Y-109897959D01*
X154194643Y-109759380D01*
X153950000Y-109710717D01*
X153050000Y-109710717D01*
X152805357Y-109759380D01*
X152597959Y-109897959D01*
X152459380Y-110105357D01*
X152410717Y-110350000D01*
X152410717Y-111150000D01*
X152459380Y-111394643D01*
X152597959Y-111602041D01*
X152748000Y-111702295D01*
X152748000Y-111873000D01*
X149698536Y-111873000D01*
X149727000Y-111804283D01*
X149727000Y-111395717D01*
X149570648Y-111018251D01*
X149482000Y-110929603D01*
X149482000Y-109273690D01*
X154415000Y-109273690D01*
X154415000Y-109514250D01*
X154573750Y-109673000D01*
X155373000Y-109673000D01*
X155373000Y-108923750D01*
X155214250Y-108765000D01*
X154923691Y-108765000D01*
X154690302Y-108861673D01*
X154511673Y-109040301D01*
X154415000Y-109273690D01*
X149482000Y-109273690D01*
X149482000Y-103699564D01*
X149651622Y-103629304D01*
X150000000Y-103280926D01*
X150348378Y-103629304D01*
G36*
X129377000Y-111873000D02*
X129123000Y-111873000D01*
X129123000Y-111853000D01*
X129377000Y-111853000D01*
X129377000Y-111873000D01*
X129377000Y-111873000D01*
G37*
X129377000Y-111873000D02*
X129123000Y-111873000D01*
X129123000Y-111853000D01*
X129377000Y-111853000D01*
X129377000Y-111873000D01*
G36*
X174873000Y-111873000D02*
X163352000Y-111873000D01*
X163352000Y-108241329D01*
X164066330Y-107527000D01*
X164234125Y-107527000D01*
X164611591Y-107370648D01*
X164900490Y-107081749D01*
X164950784Y-106960330D01*
X165272937Y-107738076D01*
X166011924Y-108477063D01*
X166977457Y-108877000D01*
X168022543Y-108877000D01*
X168988076Y-108477063D01*
X169727063Y-107738076D01*
X170127000Y-106772543D01*
X170127000Y-105727457D01*
X169727063Y-104761924D01*
X169417139Y-104452000D01*
X170099603Y-104452000D01*
X170218251Y-104570648D01*
X170595717Y-104727000D01*
X171004283Y-104727000D01*
X171381749Y-104570648D01*
X171670648Y-104281749D01*
X171827000Y-103904283D01*
X171827000Y-103495717D01*
X171670648Y-103118251D01*
X171381749Y-102829352D01*
X171004283Y-102673000D01*
X170595717Y-102673000D01*
X170218251Y-102829352D01*
X170099603Y-102948000D01*
X165975145Y-102948000D01*
X165901086Y-102933269D01*
X165827027Y-102948000D01*
X165827023Y-102948000D01*
X165607670Y-102991632D01*
X165358925Y-103157839D01*
X165316971Y-103220627D01*
X164709028Y-103828571D01*
X164559820Y-103679363D01*
X164182354Y-103523011D01*
X163773788Y-103523011D01*
X163396322Y-103679363D01*
X163262615Y-103813070D01*
X163118970Y-103841643D01*
X163032639Y-103899328D01*
X162672463Y-103899328D01*
X162996462Y-103765123D01*
X163665123Y-103096462D01*
X164027000Y-102222815D01*
X164027000Y-101277185D01*
X163665123Y-100403538D01*
X162996462Y-99734877D01*
X162374997Y-99477457D01*
X167373000Y-99477457D01*
X167373000Y-100522543D01*
X167772937Y-101488076D01*
X168511924Y-102227063D01*
X169477457Y-102627000D01*
X170522543Y-102627000D01*
X171488076Y-102227063D01*
X172227063Y-101488076D01*
X172627000Y-100522543D01*
X172627000Y-99477457D01*
X172227063Y-98511924D01*
X171488076Y-97772937D01*
X170522543Y-97373000D01*
X169477457Y-97373000D01*
X168511924Y-97772937D01*
X167772937Y-98511924D01*
X167373000Y-99477457D01*
X162374997Y-99477457D01*
X162122815Y-99373000D01*
X161177185Y-99373000D01*
X160303538Y-99734877D01*
X159634877Y-100403538D01*
X159273000Y-101277185D01*
X159273000Y-102222815D01*
X159634877Y-103096462D01*
X160303538Y-103765123D01*
X160627537Y-103899328D01*
X152270619Y-103899328D01*
X152259101Y-103891632D01*
X152115456Y-103863059D01*
X151981749Y-103729352D01*
X151965917Y-103722794D01*
X152191622Y-103629304D01*
X152418394Y-103402532D01*
X152837073Y-103402532D01*
X152935736Y-103669387D01*
X153545461Y-103895908D01*
X154195460Y-103871856D01*
X154684264Y-103669387D01*
X154782927Y-103402532D01*
X153810000Y-102429605D01*
X152837073Y-103402532D01*
X152418394Y-103402532D01*
X152614051Y-103206875D01*
X152657468Y-103222927D01*
X153630395Y-102250000D01*
X153989605Y-102250000D01*
X154962532Y-103222927D01*
X155229387Y-103124264D01*
X155455908Y-102514539D01*
X155431856Y-101864540D01*
X155229387Y-101375736D01*
X154962532Y-101277073D01*
X153989605Y-102250000D01*
X153630395Y-102250000D01*
X152657468Y-101277073D01*
X152614051Y-101293125D01*
X152418394Y-101097468D01*
X152837073Y-101097468D01*
X153810000Y-102070395D01*
X154782927Y-101097468D01*
X154684264Y-100830613D01*
X154074539Y-100604092D01*
X153424540Y-100628144D01*
X152935736Y-100830613D01*
X152837073Y-101097468D01*
X152418394Y-101097468D01*
X152191622Y-100870696D01*
X152022000Y-100800436D01*
X152022000Y-94074062D01*
X152036732Y-94000000D01*
X152022000Y-93925937D01*
X152022000Y-91926999D01*
X152860717Y-91926999D01*
X152860717Y-92450000D01*
X152909380Y-92694643D01*
X152948001Y-92752443D01*
X152948000Y-92899603D01*
X152829352Y-93018251D01*
X152673000Y-93395717D01*
X152673000Y-93804283D01*
X152829352Y-94181749D01*
X153118251Y-94470648D01*
X153495717Y-94627000D01*
X153904283Y-94627000D01*
X154281749Y-94470648D01*
X154570648Y-94181749D01*
X154727000Y-93804283D01*
X154727000Y-93395717D01*
X154570648Y-93018251D01*
X154453001Y-92900604D01*
X154500000Y-92830265D01*
X154547959Y-92902041D01*
X154755357Y-93040620D01*
X155000000Y-93089283D01*
X155500000Y-93089283D01*
X155744643Y-93040620D01*
X155776771Y-93019152D01*
X155795717Y-93027000D01*
X156204283Y-93027000D01*
X156581749Y-92870648D01*
X156700397Y-92752000D01*
X167299603Y-92752000D01*
X167418251Y-92870648D01*
X167795717Y-93027000D01*
X168204283Y-93027000D01*
X168581749Y-92870648D01*
X168796049Y-92656348D01*
X168829352Y-92736749D01*
X169118251Y-93025648D01*
X169495717Y-93182000D01*
X169904283Y-93182000D01*
X170281749Y-93025648D01*
X170570648Y-92736749D01*
X170727000Y-92359283D01*
X170727000Y-91950717D01*
X170570648Y-91573251D01*
X170281749Y-91284352D01*
X169904283Y-91128000D01*
X169736487Y-91128000D01*
X169304115Y-90695628D01*
X169262160Y-90632838D01*
X169013415Y-90466631D01*
X168794062Y-90422999D01*
X168794058Y-90422999D01*
X168719999Y-90408268D01*
X168645940Y-90422999D01*
X153774059Y-90422999D01*
X153700000Y-90408268D01*
X153625941Y-90422999D01*
X153090487Y-90422999D01*
X154229374Y-89284112D01*
X154292161Y-89242159D01*
X154458368Y-88993414D01*
X154502000Y-88774061D01*
X154502000Y-88774057D01*
X154516731Y-88699998D01*
X154502000Y-88625939D01*
X154502000Y-86833259D01*
X154547959Y-86902041D01*
X154755357Y-87040620D01*
X155000000Y-87089283D01*
X155500000Y-87089283D01*
X155744643Y-87040620D01*
X155765027Y-87027000D01*
X156104283Y-87027000D01*
X156481749Y-86870648D01*
X156770648Y-86581749D01*
X156927000Y-86204283D01*
X156927000Y-85795717D01*
X156770648Y-85418251D01*
X156481749Y-85129352D01*
X156104283Y-84973000D01*
X155765027Y-84973000D01*
X155744643Y-84959380D01*
X155500000Y-84910717D01*
X155000000Y-84910717D01*
X154973640Y-84915960D01*
X154977001Y-84899062D01*
X154977001Y-84899058D01*
X154991732Y-84824999D01*
X154979655Y-84764283D01*
X155400000Y-84764283D01*
X155644643Y-84715620D01*
X155852041Y-84577041D01*
X155990620Y-84369643D01*
X156039283Y-84125000D01*
X156039283Y-83375000D01*
X155990620Y-83130357D01*
X155921559Y-83027000D01*
X156104283Y-83027000D01*
X156481749Y-82870648D01*
X156566647Y-82785750D01*
X160975000Y-82785750D01*
X160975000Y-83476310D01*
X161071673Y-83709699D01*
X161250302Y-83888327D01*
X161483691Y-83985000D01*
X162174250Y-83985000D01*
X162333000Y-83826250D01*
X162333000Y-82627000D01*
X161133750Y-82627000D01*
X160975000Y-82785750D01*
X156566647Y-82785750D01*
X156770648Y-82581749D01*
X156927000Y-82204283D01*
X156927000Y-81795717D01*
X156814323Y-81523690D01*
X160975000Y-81523690D01*
X160975000Y-82214250D01*
X161133750Y-82373000D01*
X162333000Y-82373000D01*
X162333000Y-81173750D01*
X162587000Y-81173750D01*
X162587000Y-82373000D01*
X162607000Y-82373000D01*
X162607000Y-82627000D01*
X162587000Y-82627000D01*
X162587000Y-83826250D01*
X162745750Y-83985000D01*
X163436309Y-83985000D01*
X163669698Y-83888327D01*
X163848327Y-83709699D01*
X163928164Y-83516957D01*
X164163347Y-83752140D01*
X164706206Y-83977000D01*
X165293794Y-83977000D01*
X165836653Y-83752140D01*
X166252140Y-83336653D01*
X166270000Y-83293535D01*
X166287860Y-83336653D01*
X166703347Y-83752140D01*
X167246206Y-83977000D01*
X167833794Y-83977000D01*
X168376653Y-83752140D01*
X168792140Y-83336653D01*
X169017000Y-82793794D01*
X169017000Y-82206206D01*
X168792140Y-81663347D01*
X168376653Y-81247860D01*
X167833794Y-81023000D01*
X167246206Y-81023000D01*
X166703347Y-81247860D01*
X166287860Y-81663347D01*
X166270000Y-81706465D01*
X166252140Y-81663347D01*
X165836653Y-81247860D01*
X165293794Y-81023000D01*
X164706206Y-81023000D01*
X164163347Y-81247860D01*
X163928164Y-81483043D01*
X163848327Y-81290301D01*
X163669698Y-81111673D01*
X163436309Y-81015000D01*
X162745750Y-81015000D01*
X162587000Y-81173750D01*
X162333000Y-81173750D01*
X162174250Y-81015000D01*
X161483691Y-81015000D01*
X161250302Y-81111673D01*
X161071673Y-81290301D01*
X160975000Y-81523690D01*
X156814323Y-81523690D01*
X156770648Y-81418251D01*
X156481749Y-81129352D01*
X156104283Y-80973000D01*
X155765027Y-80973000D01*
X155744643Y-80959380D01*
X155500000Y-80910717D01*
X155000000Y-80910717D01*
X154755357Y-80959380D01*
X154547959Y-81097959D01*
X154500000Y-81169735D01*
X154452041Y-81097959D01*
X154244643Y-80959380D01*
X154000000Y-80910717D01*
X153727493Y-80910717D01*
X153692161Y-80857839D01*
X153445263Y-80692866D01*
X153281749Y-80529352D01*
X152904283Y-80373000D01*
X152495717Y-80373000D01*
X152118251Y-80529352D01*
X151829352Y-80818251D01*
X151673000Y-81195717D01*
X151673000Y-81604283D01*
X151829352Y-81981749D01*
X152118251Y-82270648D01*
X152495717Y-82427000D01*
X152860717Y-82427000D01*
X152860717Y-82450000D01*
X152909380Y-82694643D01*
X152947058Y-82751032D01*
X152740302Y-82836673D01*
X152561673Y-83015301D01*
X152465000Y-83248690D01*
X152465000Y-83464250D01*
X152623750Y-83623000D01*
X153373000Y-83623000D01*
X153373000Y-83603000D01*
X153473002Y-83603000D01*
X153473002Y-83897000D01*
X153373000Y-83897000D01*
X153373000Y-83877000D01*
X152623750Y-83877000D01*
X152465000Y-84035750D01*
X152465000Y-84251310D01*
X152561673Y-84484699D01*
X152740302Y-84663327D01*
X152973691Y-84760000D01*
X153206396Y-84760000D01*
X153165887Y-84820626D01*
X153165886Y-84820627D01*
X153041632Y-85006585D01*
X153023457Y-85097959D01*
X153013071Y-85150173D01*
X152947705Y-85248000D01*
X146802295Y-85248000D01*
X146702041Y-85097959D01*
X146530435Y-84983296D01*
X146652041Y-84902041D01*
X146790620Y-84694643D01*
X146839283Y-84450000D01*
X146839283Y-83550000D01*
X146790620Y-83305357D01*
X146652041Y-83097959D01*
X146505435Y-83000000D01*
X146652041Y-82902041D01*
X146790620Y-82694643D01*
X146839283Y-82450000D01*
X146839283Y-81550000D01*
X146790620Y-81305357D01*
X146652041Y-81097959D01*
X146444643Y-80959380D01*
X146200000Y-80910717D01*
X145700000Y-80910717D01*
X145455357Y-80959380D01*
X145247959Y-81097959D01*
X145200000Y-81169735D01*
X145152041Y-81097959D01*
X144944643Y-80959380D01*
X144700000Y-80910717D01*
X144200000Y-80910717D01*
X143955357Y-80959380D01*
X143934973Y-80973000D01*
X143695717Y-80973000D01*
X143318251Y-81129352D01*
X143029352Y-81418251D01*
X142873000Y-81795717D01*
X142873000Y-82204283D01*
X142984306Y-82472999D01*
X139612649Y-82472999D01*
X139538590Y-82458268D01*
X139464531Y-82472999D01*
X139464527Y-82472999D01*
X139245174Y-82516631D01*
X139059216Y-82640884D01*
X139059213Y-82640887D01*
X138996429Y-82682838D01*
X138954477Y-82745623D01*
X137070618Y-84629484D01*
X137007828Y-84671439D01*
X136841621Y-84920185D01*
X136797989Y-85139538D01*
X136797989Y-85139541D01*
X136783258Y-85213600D01*
X136797989Y-85287659D01*
X136797990Y-97157070D01*
X136791632Y-97166585D01*
X136733269Y-97460000D01*
X136748001Y-97534064D01*
X136748000Y-99148512D01*
X135985000Y-99911512D01*
X135985000Y-99792998D01*
X135820156Y-99792998D01*
X135941476Y-99563110D01*
X135771645Y-99153076D01*
X135381358Y-98724817D01*
X134856892Y-98478514D01*
X134627000Y-98599181D01*
X134627000Y-99793000D01*
X134647000Y-99793000D01*
X134647000Y-100047000D01*
X134627000Y-100047000D01*
X134627000Y-100067000D01*
X134373000Y-100067000D01*
X134373000Y-100047000D01*
X133179845Y-100047000D01*
X133058524Y-100276890D01*
X133228355Y-100686924D01*
X133618642Y-101115183D01*
X133756934Y-101180128D01*
X133435142Y-101395142D01*
X133108697Y-101883703D01*
X132994064Y-102460000D01*
X133108697Y-103036297D01*
X133435142Y-103524858D01*
X133468123Y-103546895D01*
X133405357Y-103559380D01*
X133197959Y-103697959D01*
X133059380Y-103905357D01*
X133010717Y-104150000D01*
X133010717Y-105850000D01*
X133059380Y-106094643D01*
X133197959Y-106302041D01*
X133405357Y-106440620D01*
X133650000Y-106489283D01*
X135350000Y-106489283D01*
X135594643Y-106440620D01*
X135802041Y-106302041D01*
X135940620Y-106094643D01*
X135989283Y-105850000D01*
X135989283Y-105752000D01*
X136753681Y-105752000D01*
X136667840Y-105959238D01*
X136667840Y-106649797D01*
X136826590Y-106808547D01*
X138025840Y-106808547D01*
X138025840Y-106788547D01*
X138279840Y-106788547D01*
X138279840Y-106808547D01*
X138299840Y-106808547D01*
X138299840Y-107062547D01*
X138279840Y-107062547D01*
X138279840Y-109348547D01*
X138299840Y-109348547D01*
X138299840Y-109602547D01*
X138279840Y-109602547D01*
X138279840Y-109622547D01*
X138025840Y-109622547D01*
X138025840Y-109602547D01*
X138005840Y-109602547D01*
X138005840Y-109348547D01*
X138025840Y-109348547D01*
X138025840Y-107062547D01*
X136826590Y-107062547D01*
X136667840Y-107221297D01*
X136667840Y-107911856D01*
X136764513Y-108145245D01*
X136824815Y-108205547D01*
X136764513Y-108265849D01*
X136667840Y-108499238D01*
X136667840Y-109189797D01*
X136826588Y-109348545D01*
X136667840Y-109348545D01*
X136667840Y-109388213D01*
X136591353Y-109372999D01*
X136591349Y-109372999D01*
X136517290Y-109358268D01*
X136443231Y-109372999D01*
X132074060Y-109372999D01*
X132000001Y-109358268D01*
X131925942Y-109372999D01*
X131925938Y-109372999D01*
X131706585Y-109416631D01*
X131457840Y-109582838D01*
X131415885Y-109645628D01*
X131315263Y-109746250D01*
X131250000Y-109733269D01*
X131175941Y-109748000D01*
X130143886Y-109748000D01*
X130077041Y-109647959D01*
X129869643Y-109509380D01*
X129625000Y-109460717D01*
X128875000Y-109460717D01*
X128630357Y-109509380D01*
X128422959Y-109647959D01*
X128284380Y-109855357D01*
X128235717Y-110100000D01*
X128235717Y-110900000D01*
X128284380Y-111144643D01*
X128343641Y-111233334D01*
X128336673Y-111240302D01*
X128240000Y-111473691D01*
X128240000Y-111714250D01*
X128398748Y-111872998D01*
X128240000Y-111872998D01*
X128240000Y-111873000D01*
X125127000Y-111873000D01*
X125127000Y-99477457D01*
X127373000Y-99477457D01*
X127373000Y-100522543D01*
X127772937Y-101488076D01*
X128511924Y-102227063D01*
X129477457Y-102627000D01*
X130522543Y-102627000D01*
X131488076Y-102227063D01*
X132227063Y-101488076D01*
X132627000Y-100522543D01*
X132627000Y-99563110D01*
X133058524Y-99563110D01*
X133179845Y-99793000D01*
X134373000Y-99793000D01*
X134373000Y-98599181D01*
X134143108Y-98478514D01*
X133618642Y-98724817D01*
X133228355Y-99153076D01*
X133058524Y-99563110D01*
X132627000Y-99563110D01*
X132627000Y-99477457D01*
X132227063Y-98511924D01*
X131488076Y-97772937D01*
X130522543Y-97373000D01*
X129477457Y-97373000D01*
X128511924Y-97772937D01*
X127772937Y-98511924D01*
X127373000Y-99477457D01*
X125127000Y-99477457D01*
X125127000Y-87195717D01*
X129573000Y-87195717D01*
X129573000Y-87604283D01*
X129729352Y-87981749D01*
X130018251Y-88270648D01*
X130395717Y-88427000D01*
X130804283Y-88427000D01*
X131181749Y-88270648D01*
X131300397Y-88152000D01*
X133199603Y-88152000D01*
X133318251Y-88270648D01*
X133695717Y-88427000D01*
X134104283Y-88427000D01*
X134481749Y-88270648D01*
X134770648Y-87981749D01*
X134927000Y-87604283D01*
X134927000Y-87195717D01*
X134770648Y-86818251D01*
X134481749Y-86529352D01*
X134104283Y-86373000D01*
X133695717Y-86373000D01*
X133318251Y-86529352D01*
X133199603Y-86648000D01*
X131300397Y-86648000D01*
X131181749Y-86529352D01*
X130804283Y-86373000D01*
X130395717Y-86373000D01*
X130018251Y-86529352D01*
X129729352Y-86818251D01*
X129573000Y-87195717D01*
X125127000Y-87195717D01*
X125127000Y-80127000D01*
X174873000Y-80127000D01*
X174873000Y-111873000D01*
X174873000Y-111873000D01*
G37*
X174873000Y-111873000D02*
X163352000Y-111873000D01*
X163352000Y-108241329D01*
X164066330Y-107527000D01*
X164234125Y-107527000D01*
X164611591Y-107370648D01*
X164900490Y-107081749D01*
X164950784Y-106960330D01*
X165272937Y-107738076D01*
X166011924Y-108477063D01*
X166977457Y-108877000D01*
X168022543Y-108877000D01*
X168988076Y-108477063D01*
X169727063Y-107738076D01*
X170127000Y-106772543D01*
X170127000Y-105727457D01*
X169727063Y-104761924D01*
X169417139Y-104452000D01*
X170099603Y-104452000D01*
X170218251Y-104570648D01*
X170595717Y-104727000D01*
X171004283Y-104727000D01*
X171381749Y-104570648D01*
X171670648Y-104281749D01*
X171827000Y-103904283D01*
X171827000Y-103495717D01*
X171670648Y-103118251D01*
X171381749Y-102829352D01*
X171004283Y-102673000D01*
X170595717Y-102673000D01*
X170218251Y-102829352D01*
X170099603Y-102948000D01*
X165975145Y-102948000D01*
X165901086Y-102933269D01*
X165827027Y-102948000D01*
X165827023Y-102948000D01*
X165607670Y-102991632D01*
X165358925Y-103157839D01*
X165316971Y-103220627D01*
X164709028Y-103828571D01*
X164559820Y-103679363D01*
X164182354Y-103523011D01*
X163773788Y-103523011D01*
X163396322Y-103679363D01*
X163262615Y-103813070D01*
X163118970Y-103841643D01*
X163032639Y-103899328D01*
X162672463Y-103899328D01*
X162996462Y-103765123D01*
X163665123Y-103096462D01*
X164027000Y-102222815D01*
X164027000Y-101277185D01*
X163665123Y-100403538D01*
X162996462Y-99734877D01*
X162374997Y-99477457D01*
X167373000Y-99477457D01*
X167373000Y-100522543D01*
X167772937Y-101488076D01*
X168511924Y-102227063D01*
X169477457Y-102627000D01*
X170522543Y-102627000D01*
X171488076Y-102227063D01*
X172227063Y-101488076D01*
X172627000Y-100522543D01*
X172627000Y-99477457D01*
X172227063Y-98511924D01*
X171488076Y-97772937D01*
X170522543Y-97373000D01*
X169477457Y-97373000D01*
X168511924Y-97772937D01*
X167772937Y-98511924D01*
X167373000Y-99477457D01*
X162374997Y-99477457D01*
X162122815Y-99373000D01*
X161177185Y-99373000D01*
X160303538Y-99734877D01*
X159634877Y-100403538D01*
X159273000Y-101277185D01*
X159273000Y-102222815D01*
X159634877Y-103096462D01*
X160303538Y-103765123D01*
X160627537Y-103899328D01*
X152270619Y-103899328D01*
X152259101Y-103891632D01*
X152115456Y-103863059D01*
X151981749Y-103729352D01*
X151965917Y-103722794D01*
X152191622Y-103629304D01*
X152418394Y-103402532D01*
X152837073Y-103402532D01*
X152935736Y-103669387D01*
X153545461Y-103895908D01*
X154195460Y-103871856D01*
X154684264Y-103669387D01*
X154782927Y-103402532D01*
X153810000Y-102429605D01*
X152837073Y-103402532D01*
X152418394Y-103402532D01*
X152614051Y-103206875D01*
X152657468Y-103222927D01*
X153630395Y-102250000D01*
X153989605Y-102250000D01*
X154962532Y-103222927D01*
X155229387Y-103124264D01*
X155455908Y-102514539D01*
X155431856Y-101864540D01*
X155229387Y-101375736D01*
X154962532Y-101277073D01*
X153989605Y-102250000D01*
X153630395Y-102250000D01*
X152657468Y-101277073D01*
X152614051Y-101293125D01*
X152418394Y-101097468D01*
X152837073Y-101097468D01*
X153810000Y-102070395D01*
X154782927Y-101097468D01*
X154684264Y-100830613D01*
X154074539Y-100604092D01*
X153424540Y-100628144D01*
X152935736Y-100830613D01*
X152837073Y-101097468D01*
X152418394Y-101097468D01*
X152191622Y-100870696D01*
X152022000Y-100800436D01*
X152022000Y-94074062D01*
X152036732Y-94000000D01*
X152022000Y-93925937D01*
X152022000Y-91926999D01*
X152860717Y-91926999D01*
X152860717Y-92450000D01*
X152909380Y-92694643D01*
X152948001Y-92752443D01*
X152948000Y-92899603D01*
X152829352Y-93018251D01*
X152673000Y-93395717D01*
X152673000Y-93804283D01*
X152829352Y-94181749D01*
X153118251Y-94470648D01*
X153495717Y-94627000D01*
X153904283Y-94627000D01*
X154281749Y-94470648D01*
X154570648Y-94181749D01*
X154727000Y-93804283D01*
X154727000Y-93395717D01*
X154570648Y-93018251D01*
X154453001Y-92900604D01*
X154500000Y-92830265D01*
X154547959Y-92902041D01*
X154755357Y-93040620D01*
X155000000Y-93089283D01*
X155500000Y-93089283D01*
X155744643Y-93040620D01*
X155776771Y-93019152D01*
X155795717Y-93027000D01*
X156204283Y-93027000D01*
X156581749Y-92870648D01*
X156700397Y-92752000D01*
X167299603Y-92752000D01*
X167418251Y-92870648D01*
X167795717Y-93027000D01*
X168204283Y-93027000D01*
X168581749Y-92870648D01*
X168796049Y-92656348D01*
X168829352Y-92736749D01*
X169118251Y-93025648D01*
X169495717Y-93182000D01*
X169904283Y-93182000D01*
X170281749Y-93025648D01*
X170570648Y-92736749D01*
X170727000Y-92359283D01*
X170727000Y-91950717D01*
X170570648Y-91573251D01*
X170281749Y-91284352D01*
X169904283Y-91128000D01*
X169736487Y-91128000D01*
X169304115Y-90695628D01*
X169262160Y-90632838D01*
X169013415Y-90466631D01*
X168794062Y-90422999D01*
X168794058Y-90422999D01*
X168719999Y-90408268D01*
X168645940Y-90422999D01*
X153774059Y-90422999D01*
X153700000Y-90408268D01*
X153625941Y-90422999D01*
X153090487Y-90422999D01*
X154229374Y-89284112D01*
X154292161Y-89242159D01*
X154458368Y-88993414D01*
X154502000Y-88774061D01*
X154502000Y-88774057D01*
X154516731Y-88699998D01*
X154502000Y-88625939D01*
X154502000Y-86833259D01*
X154547959Y-86902041D01*
X154755357Y-87040620D01*
X155000000Y-87089283D01*
X155500000Y-87089283D01*
X155744643Y-87040620D01*
X155765027Y-87027000D01*
X156104283Y-87027000D01*
X156481749Y-86870648D01*
X156770648Y-86581749D01*
X156927000Y-86204283D01*
X156927000Y-85795717D01*
X156770648Y-85418251D01*
X156481749Y-85129352D01*
X156104283Y-84973000D01*
X155765027Y-84973000D01*
X155744643Y-84959380D01*
X155500000Y-84910717D01*
X155000000Y-84910717D01*
X154973640Y-84915960D01*
X154977001Y-84899062D01*
X154977001Y-84899058D01*
X154991732Y-84824999D01*
X154979655Y-84764283D01*
X155400000Y-84764283D01*
X155644643Y-84715620D01*
X155852041Y-84577041D01*
X155990620Y-84369643D01*
X156039283Y-84125000D01*
X156039283Y-83375000D01*
X155990620Y-83130357D01*
X155921559Y-83027000D01*
X156104283Y-83027000D01*
X156481749Y-82870648D01*
X156566647Y-82785750D01*
X160975000Y-82785750D01*
X160975000Y-83476310D01*
X161071673Y-83709699D01*
X161250302Y-83888327D01*
X161483691Y-83985000D01*
X162174250Y-83985000D01*
X162333000Y-83826250D01*
X162333000Y-82627000D01*
X161133750Y-82627000D01*
X160975000Y-82785750D01*
X156566647Y-82785750D01*
X156770648Y-82581749D01*
X156927000Y-82204283D01*
X156927000Y-81795717D01*
X156814323Y-81523690D01*
X160975000Y-81523690D01*
X160975000Y-82214250D01*
X161133750Y-82373000D01*
X162333000Y-82373000D01*
X162333000Y-81173750D01*
X162587000Y-81173750D01*
X162587000Y-82373000D01*
X162607000Y-82373000D01*
X162607000Y-82627000D01*
X162587000Y-82627000D01*
X162587000Y-83826250D01*
X162745750Y-83985000D01*
X163436309Y-83985000D01*
X163669698Y-83888327D01*
X163848327Y-83709699D01*
X163928164Y-83516957D01*
X164163347Y-83752140D01*
X164706206Y-83977000D01*
X165293794Y-83977000D01*
X165836653Y-83752140D01*
X166252140Y-83336653D01*
X166270000Y-83293535D01*
X166287860Y-83336653D01*
X166703347Y-83752140D01*
X167246206Y-83977000D01*
X167833794Y-83977000D01*
X168376653Y-83752140D01*
X168792140Y-83336653D01*
X169017000Y-82793794D01*
X169017000Y-82206206D01*
X168792140Y-81663347D01*
X168376653Y-81247860D01*
X167833794Y-81023000D01*
X167246206Y-81023000D01*
X166703347Y-81247860D01*
X166287860Y-81663347D01*
X166270000Y-81706465D01*
X166252140Y-81663347D01*
X165836653Y-81247860D01*
X165293794Y-81023000D01*
X164706206Y-81023000D01*
X164163347Y-81247860D01*
X163928164Y-81483043D01*
X163848327Y-81290301D01*
X163669698Y-81111673D01*
X163436309Y-81015000D01*
X162745750Y-81015000D01*
X162587000Y-81173750D01*
X162333000Y-81173750D01*
X162174250Y-81015000D01*
X161483691Y-81015000D01*
X161250302Y-81111673D01*
X161071673Y-81290301D01*
X160975000Y-81523690D01*
X156814323Y-81523690D01*
X156770648Y-81418251D01*
X156481749Y-81129352D01*
X156104283Y-80973000D01*
X155765027Y-80973000D01*
X155744643Y-80959380D01*
X155500000Y-80910717D01*
X155000000Y-80910717D01*
X154755357Y-80959380D01*
X154547959Y-81097959D01*
X154500000Y-81169735D01*
X154452041Y-81097959D01*
X154244643Y-80959380D01*
X154000000Y-80910717D01*
X153727493Y-80910717D01*
X153692161Y-80857839D01*
X153445263Y-80692866D01*
X153281749Y-80529352D01*
X152904283Y-80373000D01*
X152495717Y-80373000D01*
X152118251Y-80529352D01*
X151829352Y-80818251D01*
X151673000Y-81195717D01*
X151673000Y-81604283D01*
X151829352Y-81981749D01*
X152118251Y-82270648D01*
X152495717Y-82427000D01*
X152860717Y-82427000D01*
X152860717Y-82450000D01*
X152909380Y-82694643D01*
X152947058Y-82751032D01*
X152740302Y-82836673D01*
X152561673Y-83015301D01*
X152465000Y-83248690D01*
X152465000Y-83464250D01*
X152623750Y-83623000D01*
X153373000Y-83623000D01*
X153373000Y-83603000D01*
X153473002Y-83603000D01*
X153473002Y-83897000D01*
X153373000Y-83897000D01*
X153373000Y-83877000D01*
X152623750Y-83877000D01*
X152465000Y-84035750D01*
X152465000Y-84251310D01*
X152561673Y-84484699D01*
X152740302Y-84663327D01*
X152973691Y-84760000D01*
X153206396Y-84760000D01*
X153165887Y-84820626D01*
X153165886Y-84820627D01*
X153041632Y-85006585D01*
X153023457Y-85097959D01*
X153013071Y-85150173D01*
X152947705Y-85248000D01*
X146802295Y-85248000D01*
X146702041Y-85097959D01*
X146530435Y-84983296D01*
X146652041Y-84902041D01*
X146790620Y-84694643D01*
X146839283Y-84450000D01*
X146839283Y-83550000D01*
X146790620Y-83305357D01*
X146652041Y-83097959D01*
X146505435Y-83000000D01*
X146652041Y-82902041D01*
X146790620Y-82694643D01*
X146839283Y-82450000D01*
X146839283Y-81550000D01*
X146790620Y-81305357D01*
X146652041Y-81097959D01*
X146444643Y-80959380D01*
X146200000Y-80910717D01*
X145700000Y-80910717D01*
X145455357Y-80959380D01*
X145247959Y-81097959D01*
X145200000Y-81169735D01*
X145152041Y-81097959D01*
X144944643Y-80959380D01*
X144700000Y-80910717D01*
X144200000Y-80910717D01*
X143955357Y-80959380D01*
X143934973Y-80973000D01*
X143695717Y-80973000D01*
X143318251Y-81129352D01*
X143029352Y-81418251D01*
X142873000Y-81795717D01*
X142873000Y-82204283D01*
X142984306Y-82472999D01*
X139612649Y-82472999D01*
X139538590Y-82458268D01*
X139464531Y-82472999D01*
X139464527Y-82472999D01*
X139245174Y-82516631D01*
X139059216Y-82640884D01*
X139059213Y-82640887D01*
X138996429Y-82682838D01*
X138954477Y-82745623D01*
X137070618Y-84629484D01*
X137007828Y-84671439D01*
X136841621Y-84920185D01*
X136797989Y-85139538D01*
X136797989Y-85139541D01*
X136783258Y-85213600D01*
X136797989Y-85287659D01*
X136797990Y-97157070D01*
X136791632Y-97166585D01*
X136733269Y-97460000D01*
X136748001Y-97534064D01*
X136748000Y-99148512D01*
X135985000Y-99911512D01*
X135985000Y-99792998D01*
X135820156Y-99792998D01*
X135941476Y-99563110D01*
X135771645Y-99153076D01*
X135381358Y-98724817D01*
X134856892Y-98478514D01*
X134627000Y-98599181D01*
X134627000Y-99793000D01*
X134647000Y-99793000D01*
X134647000Y-100047000D01*
X134627000Y-100047000D01*
X134627000Y-100067000D01*
X134373000Y-100067000D01*
X134373000Y-100047000D01*
X133179845Y-100047000D01*
X133058524Y-100276890D01*
X133228355Y-100686924D01*
X133618642Y-101115183D01*
X133756934Y-101180128D01*
X133435142Y-101395142D01*
X133108697Y-101883703D01*
X132994064Y-102460000D01*
X133108697Y-103036297D01*
X133435142Y-103524858D01*
X133468123Y-103546895D01*
X133405357Y-103559380D01*
X133197959Y-103697959D01*
X133059380Y-103905357D01*
X133010717Y-104150000D01*
X133010717Y-105850000D01*
X133059380Y-106094643D01*
X133197959Y-106302041D01*
X133405357Y-106440620D01*
X133650000Y-106489283D01*
X135350000Y-106489283D01*
X135594643Y-106440620D01*
X135802041Y-106302041D01*
X135940620Y-106094643D01*
X135989283Y-105850000D01*
X135989283Y-105752000D01*
X136753681Y-105752000D01*
X136667840Y-105959238D01*
X136667840Y-106649797D01*
X136826590Y-106808547D01*
X138025840Y-106808547D01*
X138025840Y-106788547D01*
X138279840Y-106788547D01*
X138279840Y-106808547D01*
X138299840Y-106808547D01*
X138299840Y-107062547D01*
X138279840Y-107062547D01*
X138279840Y-109348547D01*
X138299840Y-109348547D01*
X138299840Y-109602547D01*
X138279840Y-109602547D01*
X138279840Y-109622547D01*
X138025840Y-109622547D01*
X138025840Y-109602547D01*
X138005840Y-109602547D01*
X138005840Y-109348547D01*
X138025840Y-109348547D01*
X138025840Y-107062547D01*
X136826590Y-107062547D01*
X136667840Y-107221297D01*
X136667840Y-107911856D01*
X136764513Y-108145245D01*
X136824815Y-108205547D01*
X136764513Y-108265849D01*
X136667840Y-108499238D01*
X136667840Y-109189797D01*
X136826588Y-109348545D01*
X136667840Y-109348545D01*
X136667840Y-109388213D01*
X136591353Y-109372999D01*
X136591349Y-109372999D01*
X136517290Y-109358268D01*
X136443231Y-109372999D01*
X132074060Y-109372999D01*
X132000001Y-109358268D01*
X131925942Y-109372999D01*
X131925938Y-109372999D01*
X131706585Y-109416631D01*
X131457840Y-109582838D01*
X131415885Y-109645628D01*
X131315263Y-109746250D01*
X131250000Y-109733269D01*
X131175941Y-109748000D01*
X130143886Y-109748000D01*
X130077041Y-109647959D01*
X129869643Y-109509380D01*
X129625000Y-109460717D01*
X128875000Y-109460717D01*
X128630357Y-109509380D01*
X128422959Y-109647959D01*
X128284380Y-109855357D01*
X128235717Y-110100000D01*
X128235717Y-110900000D01*
X128284380Y-111144643D01*
X128343641Y-111233334D01*
X128336673Y-111240302D01*
X128240000Y-111473691D01*
X128240000Y-111714250D01*
X128398748Y-111872998D01*
X128240000Y-111872998D01*
X128240000Y-111873000D01*
X125127000Y-111873000D01*
X125127000Y-99477457D01*
X127373000Y-99477457D01*
X127373000Y-100522543D01*
X127772937Y-101488076D01*
X128511924Y-102227063D01*
X129477457Y-102627000D01*
X130522543Y-102627000D01*
X131488076Y-102227063D01*
X132227063Y-101488076D01*
X132627000Y-100522543D01*
X132627000Y-99563110D01*
X133058524Y-99563110D01*
X133179845Y-99793000D01*
X134373000Y-99793000D01*
X134373000Y-98599181D01*
X134143108Y-98478514D01*
X133618642Y-98724817D01*
X133228355Y-99153076D01*
X133058524Y-99563110D01*
X132627000Y-99563110D01*
X132627000Y-99477457D01*
X132227063Y-98511924D01*
X131488076Y-97772937D01*
X130522543Y-97373000D01*
X129477457Y-97373000D01*
X128511924Y-97772937D01*
X127772937Y-98511924D01*
X127373000Y-99477457D01*
X125127000Y-99477457D01*
X125127000Y-87195717D01*
X129573000Y-87195717D01*
X129573000Y-87604283D01*
X129729352Y-87981749D01*
X130018251Y-88270648D01*
X130395717Y-88427000D01*
X130804283Y-88427000D01*
X131181749Y-88270648D01*
X131300397Y-88152000D01*
X133199603Y-88152000D01*
X133318251Y-88270648D01*
X133695717Y-88427000D01*
X134104283Y-88427000D01*
X134481749Y-88270648D01*
X134770648Y-87981749D01*
X134927000Y-87604283D01*
X134927000Y-87195717D01*
X134770648Y-86818251D01*
X134481749Y-86529352D01*
X134104283Y-86373000D01*
X133695717Y-86373000D01*
X133318251Y-86529352D01*
X133199603Y-86648000D01*
X131300397Y-86648000D01*
X131181749Y-86529352D01*
X130804283Y-86373000D01*
X130395717Y-86373000D01*
X130018251Y-86529352D01*
X129729352Y-86818251D01*
X129573000Y-87195717D01*
X125127000Y-87195717D01*
X125127000Y-80127000D01*
X174873000Y-80127000D01*
X174873000Y-111873000D01*
G04 #@! TD*
M02*
