G04 #@! TF.GenerationSoftware,KiCad,Pcbnew,6.0.0-rc1-unknown-59b0f55~66~ubuntu18.04.1*
G04 #@! TF.CreationDate,2018-12-02T19:59:02+01:00
G04 #@! TF.ProjectId,RoomUnit,526f6f6d-556e-4697-942e-6b696361645f,rev?*
G04 #@! TF.SameCoordinates,Original*
G04 #@! TF.FileFunction,Soldermask,Bot*
G04 #@! TF.FilePolarity,Negative*
%FSLAX46Y46*%
G04 Gerber Fmt 4.6, Leading zero omitted, Abs format (unit mm)*
G04 Created by KiCad (PCBNEW 6.0.0-rc1-unknown-59b0f55~66~ubuntu18.04.1) date So 02 Dez 2018 19:59:02 CET*
%MOMM*%
%LPD*%
G01*
G04 APERTURE LIST*
%ADD10C,0.100000*%
G04 APERTURE END LIST*
D10*
G36*
X168098252Y-113077818D02*
X168098254Y-113077819D01*
X168098255Y-113077819D01*
X168471513Y-113232427D01*
X168763304Y-113427396D01*
X168807439Y-113456886D01*
X169093114Y-113742561D01*
X169093116Y-113742564D01*
X169317573Y-114078487D01*
X169327381Y-114102166D01*
X169472182Y-114451748D01*
X169551000Y-114847993D01*
X169551000Y-115252007D01*
X169518308Y-115416363D01*
X169472181Y-115648255D01*
X169317573Y-116021513D01*
X169317572Y-116021514D01*
X169093114Y-116357439D01*
X168807439Y-116643114D01*
X168807436Y-116643116D01*
X168471513Y-116867573D01*
X168098255Y-117022181D01*
X168098254Y-117022181D01*
X168098252Y-117022182D01*
X167702007Y-117101000D01*
X167297993Y-117101000D01*
X166901748Y-117022182D01*
X166901746Y-117022181D01*
X166901745Y-117022181D01*
X166528487Y-116867573D01*
X166192564Y-116643116D01*
X166192561Y-116643114D01*
X165906886Y-116357439D01*
X165682428Y-116021514D01*
X165682427Y-116021513D01*
X165527819Y-115648255D01*
X165481693Y-115416363D01*
X165449000Y-115252007D01*
X165449000Y-114847993D01*
X165527818Y-114451748D01*
X165672619Y-114102166D01*
X165682427Y-114078487D01*
X165906884Y-113742564D01*
X165906886Y-113742561D01*
X166192561Y-113456886D01*
X166236696Y-113427396D01*
X166528487Y-113232427D01*
X166901745Y-113077819D01*
X166901746Y-113077819D01*
X166901748Y-113077818D01*
X167297993Y-112999000D01*
X167702007Y-112999000D01*
X168098252Y-113077818D01*
X168098252Y-113077818D01*
G37*
G36*
X153556565Y-113589389D02*
X153747834Y-113668615D01*
X153919976Y-113783637D01*
X154066363Y-113930024D01*
X154181385Y-114102166D01*
X154260611Y-114293435D01*
X154301000Y-114496484D01*
X154301000Y-114703516D01*
X154260611Y-114906565D01*
X154181385Y-115097834D01*
X154066363Y-115269976D01*
X153919976Y-115416363D01*
X153747834Y-115531385D01*
X153556565Y-115610611D01*
X153353516Y-115651000D01*
X153146484Y-115651000D01*
X152943435Y-115610611D01*
X152752166Y-115531385D01*
X152580024Y-115416363D01*
X152433637Y-115269976D01*
X152318615Y-115097834D01*
X152239389Y-114906565D01*
X152199000Y-114703516D01*
X152199000Y-114496484D01*
X152239389Y-114293435D01*
X152318615Y-114102166D01*
X152433637Y-113930024D01*
X152580024Y-113783637D01*
X152752166Y-113668615D01*
X152943435Y-113589389D01*
X153146484Y-113549000D01*
X153353516Y-113549000D01*
X153556565Y-113589389D01*
X153556565Y-113589389D01*
G37*
G36*
X160777396Y-112235546D02*
X160950466Y-112307234D01*
X161106230Y-112411312D01*
X161238688Y-112543770D01*
X161342766Y-112699534D01*
X161414454Y-112872604D01*
X161451000Y-113056333D01*
X161451000Y-113243667D01*
X161414454Y-113427396D01*
X161342766Y-113600466D01*
X161238688Y-113756230D01*
X161106230Y-113888688D01*
X160950466Y-113992766D01*
X160777396Y-114064454D01*
X160593667Y-114101000D01*
X160406333Y-114101000D01*
X160222604Y-114064454D01*
X160049534Y-113992766D01*
X159893770Y-113888688D01*
X159761312Y-113756230D01*
X159657234Y-113600466D01*
X159585546Y-113427396D01*
X159549000Y-113243667D01*
X159549000Y-113056333D01*
X159585546Y-112872604D01*
X159657234Y-112699534D01*
X159761312Y-112543770D01*
X159893770Y-112411312D01*
X160049534Y-112307234D01*
X160222604Y-112235546D01*
X160406333Y-112199000D01*
X160593667Y-112199000D01*
X160777396Y-112235546D01*
X160777396Y-112235546D01*
G37*
G36*
X163305842Y-113950748D02*
X162453842Y-113950748D01*
X162453842Y-113048748D01*
X163305842Y-113048748D01*
X163305842Y-113950748D01*
X163305842Y-113950748D01*
G37*
G36*
X163305842Y-112450748D02*
X162453842Y-112450748D01*
X162453842Y-111548748D01*
X163305842Y-111548748D01*
X163305842Y-112450748D01*
X163305842Y-112450748D01*
G37*
G36*
X160777396Y-109735546D02*
X160950466Y-109807234D01*
X161106230Y-109911312D01*
X161238688Y-110043770D01*
X161342766Y-110199534D01*
X161414454Y-110372604D01*
X161451000Y-110556333D01*
X161451000Y-110743667D01*
X161414454Y-110927396D01*
X161342766Y-111100466D01*
X161238688Y-111256230D01*
X161106230Y-111388688D01*
X160950466Y-111492766D01*
X160777396Y-111564454D01*
X160593667Y-111601000D01*
X160406333Y-111601000D01*
X160222604Y-111564454D01*
X160049534Y-111492766D01*
X159893770Y-111388688D01*
X159761312Y-111256230D01*
X159657234Y-111100466D01*
X159585546Y-110927396D01*
X159549000Y-110743667D01*
X159549000Y-110556333D01*
X159585546Y-110372604D01*
X159657234Y-110199534D01*
X159761312Y-110043770D01*
X159893770Y-109911312D01*
X160049534Y-109807234D01*
X160222604Y-109735546D01*
X160406333Y-109699000D01*
X160593667Y-109699000D01*
X160777396Y-109735546D01*
X160777396Y-109735546D01*
G37*
G36*
X164330842Y-110650748D02*
X163728842Y-110650748D01*
X163728842Y-109648748D01*
X164330842Y-109648748D01*
X164330842Y-110650748D01*
X164330842Y-110650748D01*
G37*
G36*
X162830842Y-110650748D02*
X162228842Y-110650748D01*
X162228842Y-109648748D01*
X162830842Y-109648748D01*
X162830842Y-110650748D01*
X162830842Y-110650748D01*
G37*
G36*
X143343283Y-108581066D02*
X143409467Y-108587584D01*
X143522693Y-108621931D01*
X143579307Y-108639104D01*
X143717927Y-108713199D01*
X143735831Y-108722769D01*
X143771569Y-108752099D01*
X143873026Y-108835361D01*
X143956288Y-108936818D01*
X143985618Y-108972556D01*
X143985619Y-108972558D01*
X144069283Y-109129080D01*
X144069283Y-109129081D01*
X144120803Y-109298920D01*
X144138199Y-109475547D01*
X144120803Y-109652174D01*
X144095512Y-109735546D01*
X144069283Y-109822014D01*
X143995188Y-109960634D01*
X143985618Y-109978538D01*
X143956288Y-110014276D01*
X143873026Y-110115733D01*
X143771569Y-110198995D01*
X143735831Y-110228325D01*
X143735829Y-110228326D01*
X143579307Y-110311990D01*
X143522693Y-110329163D01*
X143409467Y-110363510D01*
X143343283Y-110370028D01*
X143277100Y-110376547D01*
X143188580Y-110376547D01*
X143122397Y-110370028D01*
X143056213Y-110363510D01*
X142942987Y-110329163D01*
X142886373Y-110311990D01*
X142729851Y-110228326D01*
X142729849Y-110228325D01*
X142694111Y-110198995D01*
X142592654Y-110115733D01*
X142509392Y-110014276D01*
X142480062Y-109978538D01*
X142470492Y-109960634D01*
X142396397Y-109822014D01*
X142370168Y-109735546D01*
X142344877Y-109652174D01*
X142327481Y-109475547D01*
X142344877Y-109298920D01*
X142396397Y-109129081D01*
X142396397Y-109129080D01*
X142480061Y-108972558D01*
X142480062Y-108972556D01*
X142509392Y-108936818D01*
X142592654Y-108835361D01*
X142694111Y-108752099D01*
X142729849Y-108722769D01*
X142747753Y-108713199D01*
X142886373Y-108639104D01*
X142942987Y-108621931D01*
X143056213Y-108587584D01*
X143122397Y-108581066D01*
X143188580Y-108574547D01*
X143277100Y-108574547D01*
X143343283Y-108581066D01*
X143343283Y-108581066D01*
G37*
G36*
X140803283Y-108581066D02*
X140869467Y-108587584D01*
X140982693Y-108621931D01*
X141039307Y-108639104D01*
X141177927Y-108713199D01*
X141195831Y-108722769D01*
X141231569Y-108752099D01*
X141333026Y-108835361D01*
X141416288Y-108936818D01*
X141445618Y-108972556D01*
X141445619Y-108972558D01*
X141529283Y-109129080D01*
X141529283Y-109129081D01*
X141580803Y-109298920D01*
X141598199Y-109475547D01*
X141580803Y-109652174D01*
X141555512Y-109735546D01*
X141529283Y-109822014D01*
X141455188Y-109960634D01*
X141445618Y-109978538D01*
X141416288Y-110014276D01*
X141333026Y-110115733D01*
X141231569Y-110198995D01*
X141195831Y-110228325D01*
X141195829Y-110228326D01*
X141039307Y-110311990D01*
X140982693Y-110329163D01*
X140869467Y-110363510D01*
X140803283Y-110370028D01*
X140737100Y-110376547D01*
X140648580Y-110376547D01*
X140582397Y-110370028D01*
X140516213Y-110363510D01*
X140402987Y-110329163D01*
X140346373Y-110311990D01*
X140189851Y-110228326D01*
X140189849Y-110228325D01*
X140154111Y-110198995D01*
X140052654Y-110115733D01*
X139969392Y-110014276D01*
X139940062Y-109978538D01*
X139930492Y-109960634D01*
X139856397Y-109822014D01*
X139830168Y-109735546D01*
X139804877Y-109652174D01*
X139787481Y-109475547D01*
X139804877Y-109298920D01*
X139856397Y-109129081D01*
X139856397Y-109129080D01*
X139940061Y-108972558D01*
X139940062Y-108972556D01*
X139969392Y-108936818D01*
X140052654Y-108835361D01*
X140154111Y-108752099D01*
X140189849Y-108722769D01*
X140207753Y-108713199D01*
X140346373Y-108639104D01*
X140402987Y-108621931D01*
X140516213Y-108587584D01*
X140582397Y-108581066D01*
X140648580Y-108574547D01*
X140737100Y-108574547D01*
X140803283Y-108581066D01*
X140803283Y-108581066D01*
G37*
G36*
X139053840Y-110376547D02*
X137251840Y-110376547D01*
X137251840Y-108574547D01*
X139053840Y-108574547D01*
X139053840Y-110376547D01*
X139053840Y-110376547D01*
G37*
G36*
X160777396Y-107235546D02*
X160950466Y-107307234D01*
X161106230Y-107411312D01*
X161238688Y-107543770D01*
X161342766Y-107699534D01*
X161414454Y-107872604D01*
X161451000Y-108056333D01*
X161451000Y-108243667D01*
X161414454Y-108427396D01*
X161342766Y-108600466D01*
X161238688Y-108756230D01*
X161106230Y-108888688D01*
X160950466Y-108992766D01*
X160777396Y-109064454D01*
X160593667Y-109101000D01*
X160406333Y-109101000D01*
X160222604Y-109064454D01*
X160049534Y-108992766D01*
X159893770Y-108888688D01*
X159761312Y-108756230D01*
X159657234Y-108600466D01*
X159585546Y-108427396D01*
X159549000Y-108243667D01*
X159549000Y-108056333D01*
X159585546Y-107872604D01*
X159657234Y-107699534D01*
X159761312Y-107543770D01*
X159893770Y-107411312D01*
X160049534Y-107307234D01*
X160222604Y-107235546D01*
X160406333Y-107199000D01*
X160593667Y-107199000D01*
X160777396Y-107235546D01*
X160777396Y-107235546D01*
G37*
G36*
X162830842Y-108650748D02*
X162228842Y-108650748D01*
X162228842Y-107648748D01*
X162830842Y-107648748D01*
X162830842Y-108650748D01*
X162830842Y-108650748D01*
G37*
G36*
X164330842Y-108650748D02*
X163728842Y-108650748D01*
X163728842Y-107648748D01*
X164330842Y-107648748D01*
X164330842Y-108650748D01*
X164330842Y-108650748D01*
G37*
G36*
X168098252Y-104277818D02*
X168098254Y-104277819D01*
X168098255Y-104277819D01*
X168471513Y-104432427D01*
X168471514Y-104432428D01*
X168807439Y-104656886D01*
X169093114Y-104942561D01*
X169093116Y-104942564D01*
X169317573Y-105278487D01*
X169472181Y-105651745D01*
X169472182Y-105651748D01*
X169551000Y-106047993D01*
X169551000Y-106452007D01*
X169489951Y-106758922D01*
X169472181Y-106848255D01*
X169317573Y-107221513D01*
X169172561Y-107438538D01*
X169093114Y-107557439D01*
X168807439Y-107843114D01*
X168807436Y-107843116D01*
X168471513Y-108067573D01*
X168098255Y-108222181D01*
X168098254Y-108222181D01*
X168098252Y-108222182D01*
X167702007Y-108301000D01*
X167297993Y-108301000D01*
X166901748Y-108222182D01*
X166901746Y-108222181D01*
X166901745Y-108222181D01*
X166528487Y-108067573D01*
X166192564Y-107843116D01*
X166192561Y-107843114D01*
X165906886Y-107557439D01*
X165827439Y-107438538D01*
X165682427Y-107221513D01*
X165527819Y-106848255D01*
X165510050Y-106758922D01*
X165449000Y-106452007D01*
X165449000Y-106047993D01*
X165527818Y-105651748D01*
X165527819Y-105651745D01*
X165682427Y-105278487D01*
X165906884Y-104942564D01*
X165906886Y-104942561D01*
X166192561Y-104656886D01*
X166528486Y-104432428D01*
X166528487Y-104432427D01*
X166901745Y-104277819D01*
X166901746Y-104277819D01*
X166901748Y-104277818D01*
X167297993Y-104199000D01*
X167702007Y-104199000D01*
X168098252Y-104277818D01*
X168098252Y-104277818D01*
G37*
G36*
X154301000Y-108051000D02*
X152199000Y-108051000D01*
X152199000Y-105949000D01*
X154301000Y-105949000D01*
X154301000Y-108051000D01*
X154301000Y-108051000D01*
G37*
G36*
X143343282Y-106041065D02*
X143409467Y-106047584D01*
X143522693Y-106081931D01*
X143579307Y-106099104D01*
X143717927Y-106173199D01*
X143735831Y-106182769D01*
X143771569Y-106212099D01*
X143873026Y-106295361D01*
X143956288Y-106396818D01*
X143985618Y-106432556D01*
X143985619Y-106432558D01*
X144069283Y-106589080D01*
X144069283Y-106589081D01*
X144120803Y-106758920D01*
X144138199Y-106935547D01*
X144120803Y-107112174D01*
X144094465Y-107199000D01*
X144069283Y-107282014D01*
X144000172Y-107411310D01*
X143985618Y-107438538D01*
X143956288Y-107474276D01*
X143873026Y-107575733D01*
X143771569Y-107658995D01*
X143735831Y-107688325D01*
X143735829Y-107688326D01*
X143579307Y-107771990D01*
X143522693Y-107789163D01*
X143409467Y-107823510D01*
X143343283Y-107830028D01*
X143277100Y-107836547D01*
X143188580Y-107836547D01*
X143122397Y-107830028D01*
X143056213Y-107823510D01*
X142942987Y-107789163D01*
X142886373Y-107771990D01*
X142729851Y-107688326D01*
X142729849Y-107688325D01*
X142694111Y-107658995D01*
X142592654Y-107575733D01*
X142509392Y-107474276D01*
X142480062Y-107438538D01*
X142465508Y-107411310D01*
X142396397Y-107282014D01*
X142371215Y-107199000D01*
X142344877Y-107112174D01*
X142327481Y-106935547D01*
X142344877Y-106758920D01*
X142396397Y-106589081D01*
X142396397Y-106589080D01*
X142480061Y-106432558D01*
X142480062Y-106432556D01*
X142509392Y-106396818D01*
X142592654Y-106295361D01*
X142694111Y-106212099D01*
X142729849Y-106182769D01*
X142747753Y-106173199D01*
X142886373Y-106099104D01*
X142942987Y-106081931D01*
X143056213Y-106047584D01*
X143122398Y-106041065D01*
X143188580Y-106034547D01*
X143277100Y-106034547D01*
X143343282Y-106041065D01*
X143343282Y-106041065D01*
G37*
G36*
X140803282Y-106041065D02*
X140869467Y-106047584D01*
X140982693Y-106081931D01*
X141039307Y-106099104D01*
X141177927Y-106173199D01*
X141195831Y-106182769D01*
X141231569Y-106212099D01*
X141333026Y-106295361D01*
X141416288Y-106396818D01*
X141445618Y-106432556D01*
X141445619Y-106432558D01*
X141529283Y-106589080D01*
X141529283Y-106589081D01*
X141580803Y-106758920D01*
X141598199Y-106935547D01*
X141580803Y-107112174D01*
X141554465Y-107199000D01*
X141529283Y-107282014D01*
X141460172Y-107411310D01*
X141445618Y-107438538D01*
X141416288Y-107474276D01*
X141333026Y-107575733D01*
X141231569Y-107658995D01*
X141195831Y-107688325D01*
X141195829Y-107688326D01*
X141039307Y-107771990D01*
X140982693Y-107789163D01*
X140869467Y-107823510D01*
X140803283Y-107830028D01*
X140737100Y-107836547D01*
X140648580Y-107836547D01*
X140582397Y-107830028D01*
X140516213Y-107823510D01*
X140402987Y-107789163D01*
X140346373Y-107771990D01*
X140189851Y-107688326D01*
X140189849Y-107688325D01*
X140154111Y-107658995D01*
X140052654Y-107575733D01*
X139969392Y-107474276D01*
X139940062Y-107438538D01*
X139925508Y-107411310D01*
X139856397Y-107282014D01*
X139831215Y-107199000D01*
X139804877Y-107112174D01*
X139787481Y-106935547D01*
X139804877Y-106758920D01*
X139856397Y-106589081D01*
X139856397Y-106589080D01*
X139940061Y-106432558D01*
X139940062Y-106432556D01*
X139969392Y-106396818D01*
X140052654Y-106295361D01*
X140154111Y-106212099D01*
X140189849Y-106182769D01*
X140207753Y-106173199D01*
X140346373Y-106099104D01*
X140402987Y-106081931D01*
X140516213Y-106047584D01*
X140582398Y-106041065D01*
X140648580Y-106034547D01*
X140737100Y-106034547D01*
X140803282Y-106041065D01*
X140803282Y-106041065D01*
G37*
G36*
X139053840Y-107836547D02*
X137251840Y-107836547D01*
X137251840Y-106034547D01*
X139053840Y-106034547D01*
X139053840Y-107836547D01*
X139053840Y-107836547D01*
G37*
G36*
X135401000Y-105901000D02*
X133599000Y-105901000D01*
X133599000Y-104099000D01*
X135401000Y-104099000D01*
X135401000Y-105901000D01*
X135401000Y-105901000D01*
G37*
G36*
X162175331Y-100018211D02*
X162503092Y-100153974D01*
X162798073Y-100351074D01*
X163048926Y-100601927D01*
X163246026Y-100896908D01*
X163381789Y-101224669D01*
X163451000Y-101572616D01*
X163451000Y-101927384D01*
X163381789Y-102275331D01*
X163246026Y-102603092D01*
X163048926Y-102898073D01*
X162798073Y-103148926D01*
X162503092Y-103346026D01*
X162175331Y-103481789D01*
X161827384Y-103551000D01*
X161472616Y-103551000D01*
X161124669Y-103481789D01*
X160796908Y-103346026D01*
X160501927Y-103148926D01*
X160251074Y-102898073D01*
X160053974Y-102603092D01*
X159918211Y-102275331D01*
X159849000Y-101927384D01*
X159849000Y-101572616D01*
X159918211Y-101224669D01*
X160053974Y-100896908D01*
X160251074Y-100601927D01*
X160501927Y-100351074D01*
X160796908Y-100153974D01*
X161124669Y-100018211D01*
X161472616Y-99949000D01*
X161827384Y-99949000D01*
X162175331Y-100018211D01*
X162175331Y-100018211D01*
G37*
G36*
X138875331Y-100018211D02*
X139203092Y-100153974D01*
X139498073Y-100351074D01*
X139748926Y-100601927D01*
X139946026Y-100896908D01*
X140081789Y-101224669D01*
X140151000Y-101572616D01*
X140151000Y-101927384D01*
X140081789Y-102275331D01*
X139946026Y-102603092D01*
X139748926Y-102898073D01*
X139498073Y-103148926D01*
X139203092Y-103346026D01*
X138875331Y-103481789D01*
X138527384Y-103551000D01*
X138172616Y-103551000D01*
X137824669Y-103481789D01*
X137496908Y-103346026D01*
X137201927Y-103148926D01*
X136951074Y-102898073D01*
X136753974Y-102603092D01*
X136618211Y-102275331D01*
X136549000Y-101927384D01*
X136549000Y-101572616D01*
X136618211Y-101224669D01*
X136753974Y-100896908D01*
X136951074Y-100601927D01*
X137201927Y-100351074D01*
X137496908Y-100153974D01*
X137824669Y-100018211D01*
X138172616Y-99949000D01*
X138527384Y-99949000D01*
X138875331Y-100018211D01*
X138875331Y-100018211D01*
G37*
G36*
X134610443Y-101565519D02*
X134676627Y-101572037D01*
X134746115Y-101593116D01*
X134846467Y-101623557D01*
X134985087Y-101697652D01*
X135002991Y-101707222D01*
X135038729Y-101736552D01*
X135140186Y-101819814D01*
X135223448Y-101921271D01*
X135252778Y-101957009D01*
X135252779Y-101957011D01*
X135336443Y-102113533D01*
X135336443Y-102113534D01*
X135387963Y-102283373D01*
X135405359Y-102460000D01*
X135387963Y-102636627D01*
X135354229Y-102747834D01*
X135336443Y-102806467D01*
X135287479Y-102898070D01*
X135252778Y-102962991D01*
X135223448Y-102998729D01*
X135140186Y-103100186D01*
X135041244Y-103181384D01*
X135002991Y-103212778D01*
X135002989Y-103212779D01*
X134846467Y-103296443D01*
X134831444Y-103301000D01*
X134676627Y-103347963D01*
X134610443Y-103354481D01*
X134544260Y-103361000D01*
X134455740Y-103361000D01*
X134389557Y-103354481D01*
X134323373Y-103347963D01*
X134168556Y-103301000D01*
X134153533Y-103296443D01*
X133997011Y-103212779D01*
X133997009Y-103212778D01*
X133958756Y-103181384D01*
X133859814Y-103100186D01*
X133776552Y-102998729D01*
X133747222Y-102962991D01*
X133712521Y-102898070D01*
X133663557Y-102806467D01*
X133645771Y-102747834D01*
X133612037Y-102636627D01*
X133594641Y-102460000D01*
X133612037Y-102283373D01*
X133663557Y-102113534D01*
X133663557Y-102113533D01*
X133747221Y-101957011D01*
X133747222Y-101957009D01*
X133776552Y-101921271D01*
X133859814Y-101819814D01*
X133961271Y-101736552D01*
X133997009Y-101707222D01*
X134014913Y-101697652D01*
X134153533Y-101623557D01*
X134253885Y-101593116D01*
X134323373Y-101572037D01*
X134389558Y-101565518D01*
X134455740Y-101559000D01*
X134544260Y-101559000D01*
X134610443Y-101565519D01*
X134610443Y-101565519D01*
G37*
G36*
X154116565Y-101239389D02*
X154307834Y-101318615D01*
X154479976Y-101433637D01*
X154626363Y-101580024D01*
X154741385Y-101752166D01*
X154820611Y-101943435D01*
X154861000Y-102146484D01*
X154861000Y-102353516D01*
X154820611Y-102556565D01*
X154741385Y-102747834D01*
X154626363Y-102919976D01*
X154479976Y-103066363D01*
X154307834Y-103181385D01*
X154116565Y-103260611D01*
X153913516Y-103301000D01*
X153706484Y-103301000D01*
X153503435Y-103260611D01*
X153312166Y-103181385D01*
X153140024Y-103066363D01*
X152993637Y-102919976D01*
X152878615Y-102747834D01*
X152799389Y-102556565D01*
X152759000Y-102353516D01*
X152759000Y-102146484D01*
X152799389Y-101943435D01*
X152878615Y-101752166D01*
X152993637Y-101580024D01*
X153140024Y-101433637D01*
X153312166Y-101318615D01*
X153503435Y-101239389D01*
X153706484Y-101199000D01*
X153913516Y-101199000D01*
X154116565Y-101239389D01*
X154116565Y-101239389D01*
G37*
G36*
X146496565Y-101239389D02*
X146687834Y-101318615D01*
X146859976Y-101433637D01*
X147006363Y-101580024D01*
X147121385Y-101752166D01*
X147200611Y-101943435D01*
X147241000Y-102146484D01*
X147241000Y-102353516D01*
X147200611Y-102556565D01*
X147121385Y-102747834D01*
X147006363Y-102919976D01*
X146859976Y-103066363D01*
X146687834Y-103181385D01*
X146496565Y-103260611D01*
X146293516Y-103301000D01*
X146086484Y-103301000D01*
X145883435Y-103260611D01*
X145692166Y-103181385D01*
X145520024Y-103066363D01*
X145373637Y-102919976D01*
X145258615Y-102747834D01*
X145179389Y-102556565D01*
X145139000Y-102353516D01*
X145139000Y-102146484D01*
X145179389Y-101943435D01*
X145258615Y-101752166D01*
X145373637Y-101580024D01*
X145520024Y-101433637D01*
X145692166Y-101318615D01*
X145883435Y-101239389D01*
X146086484Y-101199000D01*
X146293516Y-101199000D01*
X146496565Y-101239389D01*
X146496565Y-101239389D01*
G37*
G36*
X149036565Y-101239389D02*
X149227834Y-101318615D01*
X149399976Y-101433637D01*
X149546363Y-101580024D01*
X149661385Y-101752166D01*
X149740611Y-101943435D01*
X149781000Y-102146484D01*
X149781000Y-102353516D01*
X149740611Y-102556565D01*
X149661385Y-102747834D01*
X149546363Y-102919976D01*
X149399976Y-103066363D01*
X149227834Y-103181385D01*
X149036565Y-103260611D01*
X148833516Y-103301000D01*
X148626484Y-103301000D01*
X148423435Y-103260611D01*
X148232166Y-103181385D01*
X148060024Y-103066363D01*
X147913637Y-102919976D01*
X147798615Y-102747834D01*
X147719389Y-102556565D01*
X147679000Y-102353516D01*
X147679000Y-102146484D01*
X147719389Y-101943435D01*
X147798615Y-101752166D01*
X147913637Y-101580024D01*
X148060024Y-101433637D01*
X148232166Y-101318615D01*
X148423435Y-101239389D01*
X148626484Y-101199000D01*
X148833516Y-101199000D01*
X149036565Y-101239389D01*
X149036565Y-101239389D01*
G37*
G36*
X151576565Y-101239389D02*
X151767834Y-101318615D01*
X151939976Y-101433637D01*
X152086363Y-101580024D01*
X152201385Y-101752166D01*
X152280611Y-101943435D01*
X152321000Y-102146484D01*
X152321000Y-102353516D01*
X152280611Y-102556565D01*
X152201385Y-102747834D01*
X152086363Y-102919976D01*
X151939976Y-103066363D01*
X151767834Y-103181385D01*
X151576565Y-103260611D01*
X151373516Y-103301000D01*
X151166484Y-103301000D01*
X150963435Y-103260611D01*
X150772166Y-103181385D01*
X150600024Y-103066363D01*
X150453637Y-102919976D01*
X150338615Y-102747834D01*
X150259389Y-102556565D01*
X150219000Y-102353516D01*
X150219000Y-102146484D01*
X150259389Y-101943435D01*
X150338615Y-101752166D01*
X150453637Y-101580024D01*
X150600024Y-101433637D01*
X150772166Y-101318615D01*
X150963435Y-101239389D01*
X151166484Y-101199000D01*
X151373516Y-101199000D01*
X151576565Y-101239389D01*
X151576565Y-101239389D01*
G37*
G36*
X130598252Y-98027818D02*
X130598254Y-98027819D01*
X130598255Y-98027819D01*
X130971513Y-98182427D01*
X130971514Y-98182428D01*
X131307439Y-98406886D01*
X131593114Y-98692561D01*
X131593116Y-98692564D01*
X131817573Y-99028487D01*
X131921676Y-99279815D01*
X131972182Y-99401748D01*
X132051000Y-99797993D01*
X132051000Y-100202007D01*
X131979754Y-100560186D01*
X131972181Y-100598255D01*
X131817573Y-100971513D01*
X131817572Y-100971514D01*
X131593114Y-101307439D01*
X131307439Y-101593114D01*
X131307436Y-101593116D01*
X130971513Y-101817573D01*
X130598255Y-101972181D01*
X130598254Y-101972181D01*
X130598252Y-101972182D01*
X130202007Y-102051000D01*
X129797993Y-102051000D01*
X129401748Y-101972182D01*
X129401746Y-101972181D01*
X129401745Y-101972181D01*
X129028487Y-101817573D01*
X128692564Y-101593116D01*
X128692561Y-101593114D01*
X128406886Y-101307439D01*
X128182428Y-100971514D01*
X128182427Y-100971513D01*
X128027819Y-100598255D01*
X128020247Y-100560186D01*
X127949000Y-100202007D01*
X127949000Y-99797993D01*
X128027818Y-99401748D01*
X128078324Y-99279815D01*
X128182427Y-99028487D01*
X128406884Y-98692564D01*
X128406886Y-98692561D01*
X128692561Y-98406886D01*
X129028486Y-98182428D01*
X129028487Y-98182427D01*
X129401745Y-98027819D01*
X129401746Y-98027819D01*
X129401748Y-98027818D01*
X129797993Y-97949000D01*
X130202007Y-97949000D01*
X130598252Y-98027818D01*
X130598252Y-98027818D01*
G37*
G36*
X170598252Y-98027818D02*
X170598254Y-98027819D01*
X170598255Y-98027819D01*
X170971513Y-98182427D01*
X170971514Y-98182428D01*
X171307439Y-98406886D01*
X171593114Y-98692561D01*
X171593116Y-98692564D01*
X171817573Y-99028487D01*
X171921676Y-99279815D01*
X171972182Y-99401748D01*
X172051000Y-99797993D01*
X172051000Y-100202007D01*
X171979754Y-100560186D01*
X171972181Y-100598255D01*
X171817573Y-100971513D01*
X171817572Y-100971514D01*
X171593114Y-101307439D01*
X171307439Y-101593114D01*
X171307436Y-101593116D01*
X170971513Y-101817573D01*
X170598255Y-101972181D01*
X170598254Y-101972181D01*
X170598252Y-101972182D01*
X170202007Y-102051000D01*
X169797993Y-102051000D01*
X169401748Y-101972182D01*
X169401746Y-101972181D01*
X169401745Y-101972181D01*
X169028487Y-101817573D01*
X168692564Y-101593116D01*
X168692561Y-101593114D01*
X168406886Y-101307439D01*
X168182428Y-100971514D01*
X168182427Y-100971513D01*
X168027819Y-100598255D01*
X168020247Y-100560186D01*
X167949000Y-100202007D01*
X167949000Y-99797993D01*
X168027818Y-99401748D01*
X168078324Y-99279815D01*
X168182427Y-99028487D01*
X168406884Y-98692564D01*
X168406886Y-98692561D01*
X168692561Y-98406886D01*
X169028486Y-98182428D01*
X169028487Y-98182427D01*
X169401745Y-98027819D01*
X169401746Y-98027819D01*
X169401748Y-98027818D01*
X169797993Y-97949000D01*
X170202007Y-97949000D01*
X170598252Y-98027818D01*
X170598252Y-98027818D01*
G37*
G36*
X134610442Y-99025518D02*
X134676627Y-99032037D01*
X134789853Y-99066384D01*
X134846467Y-99083557D01*
X134985087Y-99157652D01*
X135002991Y-99167222D01*
X135038729Y-99196552D01*
X135140186Y-99279814D01*
X135223448Y-99381271D01*
X135252778Y-99417009D01*
X135252779Y-99417011D01*
X135336443Y-99573533D01*
X135336443Y-99573534D01*
X135387963Y-99743373D01*
X135405359Y-99920000D01*
X135387963Y-100096627D01*
X135355997Y-100202006D01*
X135336443Y-100266467D01*
X135291220Y-100351072D01*
X135252778Y-100422991D01*
X135223448Y-100458729D01*
X135140186Y-100560186D01*
X135038729Y-100643448D01*
X135002991Y-100672778D01*
X135002989Y-100672779D01*
X134846467Y-100756443D01*
X134789853Y-100773616D01*
X134676627Y-100807963D01*
X134610442Y-100814482D01*
X134544260Y-100821000D01*
X134455740Y-100821000D01*
X134389557Y-100814481D01*
X134323373Y-100807963D01*
X134210147Y-100773616D01*
X134153533Y-100756443D01*
X133997011Y-100672779D01*
X133997009Y-100672778D01*
X133961271Y-100643448D01*
X133859814Y-100560186D01*
X133776552Y-100458729D01*
X133747222Y-100422991D01*
X133708780Y-100351072D01*
X133663557Y-100266467D01*
X133644003Y-100202006D01*
X133612037Y-100096627D01*
X133594641Y-99920000D01*
X133612037Y-99743373D01*
X133663557Y-99573534D01*
X133663557Y-99573533D01*
X133747221Y-99417011D01*
X133747222Y-99417009D01*
X133776552Y-99381271D01*
X133859814Y-99279814D01*
X133961271Y-99196552D01*
X133997009Y-99167222D01*
X134014913Y-99157652D01*
X134153533Y-99083557D01*
X134210147Y-99066384D01*
X134323373Y-99032037D01*
X134389558Y-99025518D01*
X134455740Y-99019000D01*
X134544260Y-99019000D01*
X134610442Y-99025518D01*
X134610442Y-99025518D01*
G37*
G36*
X155551000Y-98451000D02*
X154449000Y-98451000D01*
X154449000Y-96549000D01*
X155551000Y-96549000D01*
X155551000Y-98451000D01*
X155551000Y-98451000D01*
G37*
G36*
X145551000Y-98451000D02*
X144449000Y-98451000D01*
X144449000Y-96549000D01*
X145551000Y-96549000D01*
X145551000Y-98451000D01*
X145551000Y-98451000D01*
G37*
G36*
X147551000Y-98451000D02*
X146449000Y-98451000D01*
X146449000Y-96549000D01*
X147551000Y-96549000D01*
X147551000Y-98451000D01*
X147551000Y-98451000D01*
G37*
G36*
X149551000Y-98451000D02*
X148449000Y-98451000D01*
X148449000Y-96549000D01*
X149551000Y-96549000D01*
X149551000Y-98451000D01*
X149551000Y-98451000D01*
G37*
G36*
X151551000Y-98451000D02*
X150449000Y-98451000D01*
X150449000Y-96549000D01*
X151551000Y-96549000D01*
X151551000Y-98451000D01*
X151551000Y-98451000D01*
G37*
G36*
X153551000Y-98451000D02*
X152449000Y-98451000D01*
X152449000Y-96549000D01*
X153551000Y-96549000D01*
X153551000Y-98451000D01*
X153551000Y-98451000D01*
G37*
G36*
X131890484Y-96793592D02*
X129838484Y-96793592D01*
X129838484Y-95191592D01*
X131890484Y-95191592D01*
X131890484Y-96793592D01*
X131890484Y-96793592D01*
G37*
G36*
X134640484Y-96793592D02*
X132588484Y-96793592D01*
X132588484Y-95191592D01*
X134640484Y-95191592D01*
X134640484Y-96793592D01*
X134640484Y-96793592D01*
G37*
G36*
X143701000Y-96551000D02*
X141099000Y-96551000D01*
X141099000Y-95449000D01*
X143701000Y-95449000D01*
X143701000Y-96551000D01*
X143701000Y-96551000D01*
G37*
G36*
X158901000Y-96551000D02*
X156299000Y-96551000D01*
X156299000Y-95449000D01*
X158901000Y-95449000D01*
X158901000Y-96551000D01*
X158901000Y-96551000D01*
G37*
G36*
X168701000Y-96176000D02*
X167799000Y-96176000D01*
X167799000Y-95324000D01*
X168701000Y-95324000D01*
X168701000Y-96176000D01*
X168701000Y-96176000D01*
G37*
G36*
X167201000Y-96176000D02*
X166299000Y-96176000D01*
X166299000Y-95324000D01*
X167201000Y-95324000D01*
X167201000Y-96176000D01*
X167201000Y-96176000D01*
G37*
G36*
X165946000Y-94751000D02*
X165244000Y-94751000D01*
X165244000Y-92649000D01*
X165946000Y-92649000D01*
X165946000Y-94751000D01*
X165946000Y-94751000D01*
G37*
G36*
X167216000Y-94751000D02*
X166514000Y-94751000D01*
X166514000Y-92649000D01*
X167216000Y-92649000D01*
X167216000Y-94751000D01*
X167216000Y-94751000D01*
G37*
G36*
X168486000Y-94751000D02*
X167784000Y-94751000D01*
X167784000Y-92649000D01*
X168486000Y-92649000D01*
X168486000Y-94751000D01*
X168486000Y-94751000D01*
G37*
G36*
X169756000Y-94751000D02*
X169054000Y-94751000D01*
X169054000Y-92649000D01*
X169756000Y-92649000D01*
X169756000Y-94751000D01*
X169756000Y-94751000D01*
G37*
G36*
X158901000Y-94551000D02*
X156299000Y-94551000D01*
X156299000Y-93449000D01*
X158901000Y-93449000D01*
X158901000Y-94551000D01*
X158901000Y-94551000D01*
G37*
G36*
X143701000Y-94551000D02*
X141099000Y-94551000D01*
X141099000Y-93449000D01*
X143701000Y-93449000D01*
X143701000Y-94551000D01*
X143701000Y-94551000D01*
G37*
G36*
X171501000Y-93801000D02*
X170499000Y-93801000D01*
X170499000Y-93199000D01*
X171501000Y-93199000D01*
X171501000Y-93801000D01*
X171501000Y-93801000D01*
G37*
G36*
X134640484Y-93793592D02*
X132588484Y-93793592D01*
X132588484Y-92191592D01*
X134640484Y-92191592D01*
X134640484Y-93793592D01*
X134640484Y-93793592D01*
G37*
G36*
X131890484Y-93793592D02*
X129838484Y-93793592D01*
X129838484Y-92191592D01*
X131890484Y-92191592D01*
X131890484Y-93793592D01*
X131890484Y-93793592D01*
G37*
G36*
X143701000Y-92551000D02*
X141099000Y-92551000D01*
X141099000Y-91449000D01*
X143701000Y-91449000D01*
X143701000Y-92551000D01*
X143701000Y-92551000D01*
G37*
G36*
X158901000Y-92551000D02*
X156299000Y-92551000D01*
X156299000Y-91449000D01*
X158901000Y-91449000D01*
X158901000Y-92551000D01*
X158901000Y-92551000D01*
G37*
G36*
X171501000Y-92301000D02*
X170499000Y-92301000D01*
X170499000Y-91699000D01*
X171501000Y-91699000D01*
X171501000Y-92301000D01*
X171501000Y-92301000D01*
G37*
G36*
X130140484Y-91093592D02*
X128038484Y-91093592D01*
X128038484Y-89491592D01*
X130140484Y-89491592D01*
X130140484Y-91093592D01*
X130140484Y-91093592D01*
G37*
G36*
X171501000Y-90801000D02*
X170499000Y-90801000D01*
X170499000Y-90199000D01*
X171501000Y-90199000D01*
X171501000Y-90801000D01*
X171501000Y-90801000D01*
G37*
G36*
X158901000Y-90551000D02*
X156299000Y-90551000D01*
X156299000Y-89449000D01*
X158901000Y-89449000D01*
X158901000Y-90551000D01*
X158901000Y-90551000D01*
G37*
G36*
X143701000Y-90551000D02*
X141099000Y-90551000D01*
X141099000Y-89449000D01*
X143701000Y-89449000D01*
X143701000Y-90551000D01*
X143701000Y-90551000D01*
G37*
G36*
X136440484Y-89943592D02*
X134338484Y-89943592D01*
X134338484Y-86041592D01*
X136440484Y-86041592D01*
X136440484Y-89943592D01*
X136440484Y-89943592D01*
G37*
G36*
X167216000Y-89851000D02*
X166514000Y-89851000D01*
X166514000Y-87749000D01*
X167216000Y-87749000D01*
X167216000Y-89851000D01*
X167216000Y-89851000D01*
G37*
G36*
X168486000Y-89851000D02*
X167784000Y-89851000D01*
X167784000Y-87749000D01*
X168486000Y-87749000D01*
X168486000Y-89851000D01*
X168486000Y-89851000D01*
G37*
G36*
X165946000Y-89851000D02*
X165244000Y-89851000D01*
X165244000Y-87749000D01*
X165946000Y-87749000D01*
X165946000Y-89851000D01*
X165946000Y-89851000D01*
G37*
G36*
X169756000Y-89851000D02*
X169054000Y-89851000D01*
X169054000Y-87749000D01*
X169756000Y-87749000D01*
X169756000Y-89851000D01*
X169756000Y-89851000D01*
G37*
G36*
X171501000Y-89301000D02*
X170499000Y-89301000D01*
X170499000Y-88699000D01*
X171501000Y-88699000D01*
X171501000Y-89301000D01*
X171501000Y-89301000D01*
G37*
G36*
X130140484Y-88793592D02*
X128038484Y-88793592D01*
X128038484Y-87191592D01*
X130140484Y-87191592D01*
X130140484Y-88793592D01*
X130140484Y-88793592D01*
G37*
G36*
X158901000Y-88551000D02*
X156299000Y-88551000D01*
X156299000Y-87449000D01*
X158901000Y-87449000D01*
X158901000Y-88551000D01*
X158901000Y-88551000D01*
G37*
G36*
X143701000Y-88551000D02*
X141099000Y-88551000D01*
X141099000Y-87449000D01*
X143701000Y-87449000D01*
X143701000Y-88551000D01*
X143701000Y-88551000D01*
G37*
G36*
X167201000Y-86826000D02*
X166299000Y-86826000D01*
X166299000Y-85974000D01*
X167201000Y-85974000D01*
X167201000Y-86826000D01*
X167201000Y-86826000D01*
G37*
G36*
X168701000Y-86826000D02*
X167799000Y-86826000D01*
X167799000Y-85974000D01*
X168701000Y-85974000D01*
X168701000Y-86826000D01*
X168701000Y-86826000D01*
G37*
G36*
X158901000Y-86551000D02*
X156299000Y-86551000D01*
X156299000Y-85449000D01*
X158901000Y-85449000D01*
X158901000Y-86551000D01*
X158901000Y-86551000D01*
G37*
G36*
X143701000Y-86551000D02*
X141099000Y-86551000D01*
X141099000Y-85449000D01*
X143701000Y-85449000D01*
X143701000Y-86551000D01*
X143701000Y-86551000D01*
G37*
G36*
X130140484Y-86493592D02*
X128038484Y-86493592D01*
X128038484Y-84891592D01*
X130140484Y-84891592D01*
X130140484Y-86493592D01*
X130140484Y-86493592D01*
G37*
G36*
X171501000Y-85051000D02*
X170499000Y-85051000D01*
X170499000Y-84449000D01*
X171501000Y-84449000D01*
X171501000Y-85051000D01*
X171501000Y-85051000D01*
G37*
G36*
X143701000Y-84551000D02*
X141099000Y-84551000D01*
X141099000Y-83449000D01*
X143701000Y-83449000D01*
X143701000Y-84551000D01*
X143701000Y-84551000D01*
G37*
G36*
X158901000Y-84551000D02*
X156299000Y-84551000D01*
X156299000Y-83449000D01*
X158901000Y-83449000D01*
X158901000Y-84551000D01*
X158901000Y-84551000D01*
G37*
G36*
X134707793Y-83793592D02*
X132655793Y-83793592D01*
X132655793Y-82191592D01*
X134707793Y-82191592D01*
X134707793Y-83793592D01*
X134707793Y-83793592D01*
G37*
G36*
X131957793Y-83793592D02*
X129905793Y-83793592D01*
X129905793Y-82191592D01*
X131957793Y-82191592D01*
X131957793Y-83793592D01*
X131957793Y-83793592D01*
G37*
G36*
X171501000Y-83551000D02*
X170499000Y-83551000D01*
X170499000Y-82949000D01*
X171501000Y-82949000D01*
X171501000Y-83551000D01*
X171501000Y-83551000D01*
G37*
G36*
X163361000Y-83401000D02*
X161559000Y-83401000D01*
X161559000Y-81599000D01*
X163361000Y-81599000D01*
X163361000Y-83401000D01*
X163361000Y-83401000D01*
G37*
G36*
X167802812Y-81633624D02*
X167966784Y-81701544D01*
X168114354Y-81800147D01*
X168239853Y-81925646D01*
X168338456Y-82073216D01*
X168406376Y-82237188D01*
X168441000Y-82411259D01*
X168441000Y-82588741D01*
X168406376Y-82762812D01*
X168338456Y-82926784D01*
X168239853Y-83074354D01*
X168114354Y-83199853D01*
X167966784Y-83298456D01*
X167802812Y-83366376D01*
X167628741Y-83401000D01*
X167451259Y-83401000D01*
X167277188Y-83366376D01*
X167113216Y-83298456D01*
X166965646Y-83199853D01*
X166840147Y-83074354D01*
X166741544Y-82926784D01*
X166673624Y-82762812D01*
X166639000Y-82588741D01*
X166639000Y-82411259D01*
X166673624Y-82237188D01*
X166741544Y-82073216D01*
X166840147Y-81925646D01*
X166965646Y-81800147D01*
X167113216Y-81701544D01*
X167277188Y-81633624D01*
X167451259Y-81599000D01*
X167628741Y-81599000D01*
X167802812Y-81633624D01*
X167802812Y-81633624D01*
G37*
G36*
X165262812Y-81633624D02*
X165426784Y-81701544D01*
X165574354Y-81800147D01*
X165699853Y-81925646D01*
X165798456Y-82073216D01*
X165866376Y-82237188D01*
X165901000Y-82411259D01*
X165901000Y-82588741D01*
X165866376Y-82762812D01*
X165798456Y-82926784D01*
X165699853Y-83074354D01*
X165574354Y-83199853D01*
X165426784Y-83298456D01*
X165262812Y-83366376D01*
X165088741Y-83401000D01*
X164911259Y-83401000D01*
X164737188Y-83366376D01*
X164573216Y-83298456D01*
X164425646Y-83199853D01*
X164300147Y-83074354D01*
X164201544Y-82926784D01*
X164133624Y-82762812D01*
X164099000Y-82588741D01*
X164099000Y-82411259D01*
X164133624Y-82237188D01*
X164201544Y-82073216D01*
X164300147Y-81925646D01*
X164425646Y-81800147D01*
X164573216Y-81701544D01*
X164737188Y-81633624D01*
X164911259Y-81599000D01*
X165088741Y-81599000D01*
X165262812Y-81633624D01*
X165262812Y-81633624D01*
G37*
G36*
X158901000Y-82551000D02*
X156299000Y-82551000D01*
X156299000Y-81449000D01*
X158901000Y-81449000D01*
X158901000Y-82551000D01*
X158901000Y-82551000D01*
G37*
G36*
X143701000Y-82551000D02*
X141099000Y-82551000D01*
X141099000Y-81449000D01*
X143701000Y-81449000D01*
X143701000Y-82551000D01*
X143701000Y-82551000D01*
G37*
M02*
