M48
; DRILL file {KiCad 6.0.0-rc1-unknown-59b0f55~66~ubuntu18.04.1} date So 02 Dez 2018 19:59:05 CET
; FORMAT={-:-/ absolute / inch / decimal}
; #@! TF.CreationDate,2018-12-02T19:59:05+01:00
; #@! TF.GenerationSoftware,Kicad,Pcbnew,6.0.0-rc1-unknown-59b0f55~66~ubuntu18.04.1
; #@! TF.FileFunction,Plated,1,2,PTH
FMAT,2
INCH
T1C0.0157
T2C0.0394
%
G90
G05
T1
X5.1181Y-4.1339
X5.1417Y-3.4409
X5.2717Y-3.4409
X5.2835Y-4.4173
X5.4528Y-4.4173
X5.5276Y-3.5079
X5.544Y-3.5827
X5.6654Y-3.2283
X5.6654Y-3.3051
X5.6654Y-3.3858
X5.6654Y-3.4646
X5.6654Y-3.5433
X5.6654Y-3.622
X5.6654Y-3.7008
X5.6742Y-4.8031
X5.752Y-4.1181
X5.7835Y-3.5315
X5.7874Y-3.5984
X5.8543Y-4.3937
X5.9073Y-4.8057
X5.9291Y-4.3071
X5.9606Y-4.1181
X6.0118Y-3.2047
X6.0512Y-3.685
X6.063Y-4.8031
X6.1378Y-3.2283
X6.1378Y-3.3858
X6.1417Y-3.622
X6.2244Y-4.2402
X6.2923Y-4.0916
X6.4558Y-4.1161
X6.4579Y-4.1929
X6.5512Y-4.0512
X6.6142Y-3.622
X6.6811Y-3.6281
X6.6929Y-4.3307
X6.7244Y-4.0827
T2
X5.2953Y-3.9339
X5.2953Y-4.0339
X5.2953Y-4.1339
X5.4391Y-4.2101
X5.5391Y-4.2101
X5.6391Y-4.2101
X6.3961Y-3.248
X6.4961Y-3.248
X6.5961Y-3.248
X6.0335Y-4.2126
X6.0335Y-4.5118
X6.3189Y-4.2579
X6.3189Y-4.3563
X6.3189Y-4.4547
X5.4391Y-4.3101
X5.5391Y-4.3101
X5.6391Y-4.3101
X5.7555Y-4.0256
X5.8555Y-4.0256
X5.9555Y-4.0256
X6.0555Y-4.0256
T0
M30
